<svg viewBox="0 0 104.6 113" xmlns="http://www.w3.org/2000/svg" xmlns:xlink="http://www.w3.org/1999/xlink"><clipPath id="a"><path d="m10 33.45h84.6v46.09h-84.6z"/></clipPath><path d="m31.66 33.58h62.8v45.81h-62.8z" fill="#e6e6e6"/><g fill="none" stroke="#000" stroke-width=".45"><g clip-path="url(#a)"><path d="m53.56 65.54h19.01v13.64h-19.01z"/><path d="m75.24 33.81h19.01v13.64h-19.01z"/><path d="m10.23 33.81h19.01v13.64h-19.01z"/><path d="m31.9 65.54h19.01v13.64h-19.01z"/></g><path d="m53.56 49.68h19.01v13.64h-19.01z"/><g clip-path="url(#a)"><path d="m75.24 49.68h19.01v13.64h-19.01z"/><path d="m10.23 49.68h19.01v13.64h-19.01z"/></g><path d="m53.56 33.81h19.01v13.64h-19.01z"/><g clip-path="url(#a)"><path d="m75.24 65.54h19.01v13.64h-19.01z"/><path d="m10.23 65.54h19.01v13.64h-19.01z"/></g><path d="m31.9 49.68h19.01v13.64h-19.01z"/><path d="m31.9 33.81h19.01v13.64h-19.01z"/></g><path d="m26.28 53.02 2.05-1.19-2.05-1.18z" fill="#231f20"/></svg>