<svg viewBox="0 0 83.06 113" xmlns="http://www.w3.org/2000/svg" xmlns:xlink="http://www.w3.org/1999/xlink"><clipPath id="a"><path d="m10 25.59h63.06v61.82h-63.06z"/></clipPath><path d="m10.13 25.68h62.83v45.86h-62.83z" fill="#e6e6e6"/><g clip-path="url(#a)"><path d="m10.36 57.68h19.01v13.64h-19.01z" fill="none" stroke="#000" stroke-width=".45"/></g><path d="m53.7 57.68h19.01v13.64h-19.01z" fill="none" stroke="#000" stroke-width=".45"/><g clip-path="url(#a)"><path d="m53.7 73.54h19.01v13.64h-19.01z" fill="none" stroke="#000" stroke-width=".45"/></g><g fill="none" stroke="#000" stroke-width=".45"><path d="m32.03 57.68h19.01v13.64h-19.01z"/><g clip-path="url(#a)"><path d="m10.36 41.81h19.01v13.64h-19.01z"/><path d="m10.36 25.95h19.01v13.64h-19.01z"/></g><path d="m53.7 41.81h19.01v13.64h-19.01z"/></g><g clip-path="url(#a)"><path d="m53.7 25.95h19.01v13.64h-19.01z" fill="none" stroke="#000" stroke-width=".45"/></g><path d="m32.03 41.81h19.01v13.64h-19.01z" fill="none" stroke="#000" stroke-width=".45"/><g clip-path="url(#a)" fill="none" stroke="#000" stroke-width=".45"><path d="m32.03 25.95h19.01v13.64h-19.01z"/><path d="m10.36 73.54h19.01v13.64h-19.01z"/><path d="m32.03 73.54h19.01v13.64h-19.01z"/></g><path d="m27.44 76.5-1.19-2.05-1.19 2.05z" fill="#231f20"/></svg>