<svg viewBox="0 0 104.73 113" xmlns="http://www.w3.org/2000/svg" xmlns:xlink="http://www.w3.org/1999/xlink"><clipPath id="a"><path d="m10 17.59h84.73v77.82h-84.73z"/></clipPath><path d="m10.11 17.69h84.46v61.77h-84.46z" fill="#e6e6e6"/><g clip-path="url(#a)"><path d="m10.36 65.54h19.01v13.64h-19.01z" fill="none" stroke="#000" stroke-width=".45"/></g><path d="m53.7 65.54h19.01v13.64h-19.01z" fill="none" stroke="#000" stroke-width=".45"/><g clip-path="url(#a)"><path d="m53.7 81.41h19.01v13.64h-19.01z" fill="none" stroke="#000" stroke-width=".45"/></g><g fill="none" stroke="#000" stroke-width=".45"><path d="m32.03 65.54h19.01v13.64h-19.01z"/><g clip-path="url(#a)"><path d="m10.36 49.68h19.01v13.64h-19.01z"/><path d="m75.37 49.68h19.01v13.64h-19.01z"/><path d="m75.37 65.54h19.01v13.64h-19.01z"/><path d="m75.37 81.41h19.01v13.64h-19.01z"/><path d="m10.36 17.95h19.01v13.64h-19.01z"/><path d="m75.37 17.95h19.01v13.64h-19.01z"/><path d="m10.36 33.81h19.01v13.64h-19.01z"/><path d="m75.37 33.81h19.01v13.64h-19.01z"/></g><path d="m53.7 49.68h19.01v13.64h-19.01z"/></g><g clip-path="url(#a)"><path d="m53.7 17.95h19.01v13.64h-19.01z" fill="none" stroke="#000" stroke-width=".45"/></g><path d="m53.7 33.81h19.01v13.64h-19.01z" fill="none" stroke="#000" stroke-width=".45"/><path d="m32.03 49.68h19.01v13.64h-19.01z" fill="none" stroke="#000" stroke-width=".45"/><g clip-path="url(#a)"><path d="m32.03 17.95h19.01v13.64h-19.01z" fill="none" stroke="#000" stroke-width=".45"/></g><path d="m32.03 33.81h19.01v13.64h-19.01z" fill="none" stroke="#000" stroke-width=".45"/><g clip-path="url(#a)"><path d="m29.14 81.63v13.2h-18.56v-13.2zm.45-.45h-19.46v14.1h19.46z"/><path d="m32.03 81.41h19.01v13.64h-19.01z" fill="none" stroke="#000" stroke-width=".45"/><path d="m28.2 84.14-.79-1.38-.8 1.38z" fill="#231f20"/><path d="m28.2 84.14-.79-1.38-.8 1.38z" fill="none" stroke="#000" stroke-width=".45"/></g></svg>