<svg viewBox="0 0 169.54 113" xmlns="http://www.w3.org/2000/svg" xmlns:xlink="http://www.w3.org/1999/xlink"><clipPath id="a"><path d="m10 9.72h149.54v93.56h-149.54z"/></clipPath><path d="m31.67 9.78h127.8v93.4h-127.8z" fill="#e6e6e6"/><g clip-path="url(#a)"><path d="m140.25 25.85h19.01v13.64h-19.01z" fill="none" stroke="#000" stroke-width=".45"/></g><path d="m96.91 25.85h19.01v13.64h-19.01z" fill="none" stroke="#000" stroke-width=".45"/><g clip-path="url(#a)"><path d="m96.91 9.98h19.01v13.64h-19.01z" fill="none" stroke="#000" stroke-width=".45"/></g><path d="m118.58 25.85h19.01v13.64h-19.01z" fill="none" stroke="#000" stroke-width=".45"/><g clip-path="url(#a)"><path d="m140.25 41.71h19.01v13.64h-19.01z" fill="none" stroke="#000" stroke-width=".45"/></g><g fill="none" stroke="#000" stroke-width=".45"><path d="m75.23 41.71h19.01v13.64h-19.01z"/><path d="m75.23 25.85h19.01v13.64h-19.01z"/><g clip-path="url(#a)"><path d="m75.23 9.98h19.01v13.64h-19.01z"/><path d="m140.25 73.45h19.01v13.64h-19.01z"/></g><path d="m75.23 73.45h19.01v13.64h-19.01z"/></g><g clip-path="url(#a)"><path d="m140.25 57.58h19.01v13.64h-19.01z" fill="none" stroke="#000" stroke-width=".45"/></g><g fill="none" stroke="#000" stroke-width=".45"><path d="m75.23 57.58h19.01v13.64h-19.01z"/><g clip-path="url(#a)"><path d="m140.25 89.31h19.01v13.64h-19.01z"/><path d="m75.23 89.31h19.01v13.64h-19.01z"/></g><path d="m96.91 41.71h19.01v13.64h-19.01z"/><path d="m96.91 73.45h19.01v13.64h-19.01z"/><path d="m96.91 57.58h19.01v13.64h-19.01z"/></g><g clip-path="url(#a)"><path d="m96.91 89.31h19.01v13.64h-19.01z" fill="none" stroke="#000" stroke-width=".45"/></g><path d="m118.58 41.71h19.01v13.64h-19.01z" fill="none" stroke="#000" stroke-width=".45"/><path d="m53.56 41.68h19.01v13.64h-19.01z" fill="none" stroke="#000" stroke-width=".45"/><path d="m31.89 41.68h19.01v13.64h-19.01z" fill="none" stroke="#000" stroke-width=".45"/><g clip-path="url(#a)"><path d="m10.22 41.68h19.01v13.64h-19.01z" fill="none" stroke="#000" stroke-width=".45"/></g><g fill="none" stroke="#000" stroke-width=".45"><path d="m53.56 25.81h19.01v13.64h-19.01z"/><path d="m31.89 25.81h19.01v13.64h-19.01z"/><g clip-path="url(#a)"><path d="m10.22 25.81h19.01v13.64h-19.01z"/><path d="m53.56 9.95h19.01v13.64h-19.01z"/><path d="m31.89 9.95h19.01v13.64h-19.01z"/><path d="m10.22 9.95h19.01v13.64h-19.01z"/></g><path d="m118.58 73.45h19.01v13.64h-19.01z"/><path d="m53.56 73.41h19.01v13.64h-19.01z"/><path d="m31.89 73.41h19.01v13.64h-19.01z"/></g><g clip-path="url(#a)"><path d="m10.22 73.41h19.01v13.64h-19.01z" fill="none" stroke="#000" stroke-width=".45"/></g><path d="m118.58 57.58h19.01v13.64h-19.01z" fill="none" stroke="#000" stroke-width=".45"/><path d="m53.56 57.54h19.01v13.64h-19.01z" fill="none" stroke="#000" stroke-width=".45"/><path d="m31.89 57.54h19.01v13.64h-19.01z" fill="none" stroke="#000" stroke-width=".45"/><g clip-path="url(#a)" fill="none" stroke="#000" stroke-width=".45"><path d="m10.22 57.54h19.01v13.64h-19.01z"/><path d="m118.58 89.31h19.01v13.64h-19.01z"/><path d="m53.56 89.28h19.01v13.64h-19.01z"/><path d="m31.89 89.28h19.01v13.64h-19.01z"/><path d="m10.22 89.28h19.01v13.64h-19.01z"/><path d="m140.25 9.98h19.01v13.64h-19.01z"/><path d="m118.58 9.98h19.01v13.64h-19.01z"/></g><path d="m26.41 76.76 2.05-1.18-2.05-1.19z" fill="#231f20"/></svg>