<svg viewBox="0 0 126.27 113" xmlns="http://www.w3.org/2000/svg" xmlns:xlink="http://www.w3.org/1999/xlink"><clipPath id="a"><path d="m8.87 10.31h106.4v93.56h-106.4z"/></clipPath><path d="m8.98 10.41h106.18v77.62h-106.18z" fill="#e6e6e6"/><g clip-path="url(#a)"><path d="m9.23 74.13h19.01v13.64h-19.01z" fill="none" stroke="#000" stroke-width=".45"/></g><path d="m52.57 74.13h19.01v13.64h-19.01z" fill="none" stroke="#000" stroke-width=".45"/><g clip-path="url(#a)"><path d="m52.57 90h19.01v13.64h-19.01z" fill="none" stroke="#000" stroke-width=".45"/></g><path d="m30.9 74.13h19.01v13.64h-19.01z" fill="none" stroke="#000" stroke-width=".45"/><g clip-path="url(#a)"><path d="m9.23 58.27h19.01v13.64h-19.01z" fill="none" stroke="#000" stroke-width=".45"/></g><path d="m74.24 58.27h19.01v13.64h-19.01z" fill="none" stroke="#000" stroke-width=".45"/><path d="m74.24 74.13h19.01v13.64h-19.01z" fill="none" stroke="#000" stroke-width=".45"/><g clip-path="url(#a)" fill="none" stroke="#000" stroke-width=".45"><path d="m74.24 90h19.01v13.64h-19.01z"/><path d="m9.23 26.53h19.01v13.64h-19.01z"/></g><path d="m74.24 26.53h19.01v13.64h-19.01z" fill="none" stroke="#000" stroke-width=".45"/><g clip-path="url(#a)"><path d="m9.23 42.4h19.01v13.64h-19.01z" fill="none" stroke="#000" stroke-width=".45"/></g><g fill="none" stroke="#000" stroke-width=".45"><path d="m74.24 42.4h19.01v13.64h-19.01z"/><g clip-path="url(#a)"><path d="m9.23 10.67h19.01v13.64h-19.01z"/><path d="m74.24 10.67h19.01v13.64h-19.01z"/></g><path d="m52.57 58.27h19.01v13.64h-19.01z"/><path d="m52.57 26.53h19.01v13.64h-19.01z"/><path d="m52.57 42.4h19.01v13.64h-19.01z"/></g><g clip-path="url(#a)"><path d="m52.57 10.67h19.01v13.64h-19.01z" fill="none" stroke="#000" stroke-width=".45"/></g><path d="m30.9 58.27h19.01v13.64h-19.01z" fill="none" stroke="#000" stroke-width=".45"/><path d="m95.91 58.27h19.01v13.64h-19.01z" fill="none" stroke="#000" stroke-width=".45"/><path d="m95.91 74.13h19.01v13.64h-19.01z" fill="none" stroke="#000" stroke-width=".45"/><g clip-path="url(#a)"><path d="m95.91 90h19.01v13.64h-19.01z" fill="none" stroke="#000" stroke-width=".45"/></g><path d="m30.9 26.53h19.01v13.64h-19.01z" fill="none" stroke="#000" stroke-width=".45"/><path d="m95.91 26.53h19.01v13.64h-19.01z" fill="none" stroke="#000" stroke-width=".45"/><path d="m30.9 42.4h19.01v13.64h-19.01z" fill="none" stroke="#000" stroke-width=".45"/><path d="m95.91 42.4h19.01v13.64h-19.01z" fill="none" stroke="#000" stroke-width=".45"/><g clip-path="url(#a)" fill="none" stroke="#000" stroke-width=".45"><path d="m30.9 10.67h19.01v13.64h-19.01z"/><path d="m95.91 10.67h19.01v13.64h-19.01z"/><path d="m9.23 90h19.01v13.64h-19.01z"/><path d="m30.9 90h19.01v13.64h-19.01z"/></g><path d="m27.46 92.96-1.19-2.06-1.18 2.06z" fill="#231f20"/></svg>