<svg viewBox="0 0 104.6 113" xmlns="http://www.w3.org/2000/svg" xmlns:xlink="http://www.w3.org/1999/xlink"><clipPath id="a"><path d="m10 43.94h84.6v30.23h-84.6z"/></clipPath><path d="m75.25 44.42h19v13.62h-19z" fill="#e6e6e6"/><path d="m31.66 44.06h41.12v29.99h-41.12z" fill="#c8c8c8"/><path d="m10.23 60.17h19v13.64h-19z" fill="#fff"/><g clip-path="url(#a)" fill="none" stroke="#000" stroke-width=".45"><path d="m10.23 60.17h19.01v13.64h-19.01z"/><path d="m53.56 60.17h19.01v13.64h-19.01z"/></g><path d="m75.24 60.17h19.01v13.64h-19.01z" fill="#fff"/><g clip-path="url(#a)" fill="none" stroke="#000" stroke-width=".45"><path d="m75.24 60.17h19.01v13.64h-19.01z"/><path d="m31.9 60.17h19.01v13.64h-19.01z"/></g><path d="m10.23 44.3h19v13.64h-19z" fill="#fff"/><g clip-path="url(#a)"><path d="m10.23 44.3h19.01v13.64h-19.01z" fill="none" stroke="#000" stroke-width=".45"/></g><path d="m53.56 44.3h19.01v13.64h-19.01z" fill="none" stroke="#000" stroke-width=".45"/><g clip-path="url(#a)"><path d="m75.24 44.3h19.01v13.64h-19.01z" fill="none" stroke="#000" stroke-width=".45"/></g><path d="m31.9 44.3h19.01v13.64h-19.01z" fill="none" stroke="#000" stroke-width=".45"/><path d="m25.94 47.57 2.06-1.18-2.06-1.19z" fill="#231f20"/></svg>