<svg viewBox="0 0 83.79 113" xmlns="http://www.w3.org/2000/svg" xmlns:xlink="http://www.w3.org/1999/xlink"><clipPath id="a"><path d="m21.2 17.66h41.39v77.69h-41.39z"/></clipPath><path d="m21.33 49.49h41.14v29.99h-41.14z" fill="#c8c8c8"/><path d="m21.33 17.78h41.13v29.97h-41.13z" fill="#e6e6e6"/><g clip-path="url(#a)"><path d="m21.56 65.61h19.01v13.64h-19.01z" fill="none" stroke="#000" stroke-width=".45"/></g><g fill="none" stroke="#000" stroke-width=".45"><path d="m43.23 65.61h19.01v13.64h-19.01z"/><g clip-path="url(#a)"><path d="m21.56 49.74h19.01v13.64h-19.01z"/><path d="m21.56 18.01h19.01v13.64h-19.01z"/><path d="m21.56 33.88h19.01v13.64h-19.01z"/></g><path d="m43.23 49.74h19.01v13.64h-19.01z"/></g><g clip-path="url(#a)"><path d="m43.23 18.01h19.01v13.64h-19.01z" fill="none" stroke="#000" stroke-width=".45"/></g><path d="m43.23 33.88h19.01v13.64h-19.01z" fill="none" stroke="#000" stroke-width=".45"/><path d="m21.56 81.48h19v13.64h-19z" fill="#fff"/><g clip-path="url(#a)"><path d="m21.56 81.48h19.01v13.64h-19.01z" fill="none" stroke="#000" stroke-width=".45"/></g><path d="m43.23 81.48h19v13.64h-19z" fill="#fff"/><g clip-path="url(#a)"><path d="m43.23 81.48h19.01v13.64h-19.01z" fill="none" stroke="#000" stroke-width=".45"/></g><path d="m39.79 84.43-1.19-2.05-1.18 2.05z" fill="#231f20"/></svg>