<svg viewBox="0 0 126.27 113" xmlns="http://www.w3.org/2000/svg" xmlns:xlink="http://www.w3.org/1999/xlink"><clipPath id="a"><path d="m10 49.32h106.27v14.36h-106.27z"/></clipPath><path d="m53.64 49.68h18.99v13.63h-18.99z" fill="#c8c8c8"/><path d="m75.21 49.65h19.06v13.63h-19.06z" fill="#e6e6e6"/><path d="m96.78 49.65h19.14v13.66h-19.14z" fill="#969696"/><path d="m10.23 49.68h19v13.64h-19z" fill="#fff"/><g clip-path="url(#a)"><path d="m10.23 49.68h19.01v13.64h-19.01z" fill="none" stroke="#000" stroke-width=".45"/></g><path d="m31.9 49.68h19.01v13.64h-19.01z" fill="#fff"/><g clip-path="url(#a)" fill="none" stroke="#000" stroke-width=".45"><path d="m31.9 49.68h19.01v13.64h-19.01z"/><path d="m53.57 49.68h19.01v13.64h-19.01z"/><path d="m75.24 49.68h19.01v13.64h-19.01z"/><path d="m96.91 49.68h19.01v13.64h-19.01z"/></g><path d="m25.94 53.02 2.06-1.19-2.06-1.18z" fill="#231f20"/></svg>