<svg viewBox="0 0 83.06 113" xmlns="http://www.w3.org/2000/svg" xmlns:xlink="http://www.w3.org/1999/xlink"><clipPath id="a"><path d="m10 41.45h63.06v30.09h-63.06z"/></clipPath><path d="m31.81 41.65h19.37v13.96h-19.37z" fill="#e6e6e6"/><path d="m53.74 41.9h18.86v13.66h-18.86z" fill="#969696"/><path d="m10.26 41.61h19.27v13.81h-19.27z" fill="#c8c8c8"/><path d="m32.03 41.81h19.01v13.64h-19.01z" fill="none" stroke="#000" stroke-width=".45"/><path d="m53.7 41.81h19.01v13.64h-19.01z" fill="none" stroke="#000" stroke-width=".45"/><g clip-path="url(#a)"><path d="m10.36 41.81h19.01v13.64h-19.01z" fill="none" stroke="#000" stroke-width=".45"/></g><path d="m32.03 57.68h19v13.64h-19z" fill="#fff"/><g clip-path="url(#a)"><path d="m32.03 57.68h19.01v13.64h-19.01z" fill="none" stroke="#000" stroke-width=".45"/></g><path d="m53.7 57.68h19.01v13.64h-19.01z" fill="#fff"/><g clip-path="url(#a)"><path d="m53.7 57.68h19.01v13.64h-19.01z" fill="none" stroke="#000" stroke-width=".45"/></g><path d="m10.36 57.68h19v13.64h-19z" fill="#fff"/><g clip-path="url(#a)"><path d="m10.36 57.68h19.01v13.64h-19.01z" fill="none" stroke="#000" stroke-width=".45"/></g><path d="m28.92 60.63-1.19-2.05-1.18 2.05z" fill="#231f20"/></svg>