<svg viewBox="0 0 83.06 113" xmlns="http://www.w3.org/2000/svg" xmlns:xlink="http://www.w3.org/1999/xlink"><clipPath id="a"><path d="m9.93 41.39h63.21v30.23h-63.21z"/></clipPath><path d="m53.71 41.78h19.16v13.78h-19.16z" fill="#e6e6e6"/><path d="m32.02 57.53h19.17v13.83h-19.17z" fill="#969696"/><path d="m32.08 41.63h19.06v13.8h-19.06z" fill="#c8c8c8"/><path d="m53.77 57.61h19.01v13.64h-19.01z" fill="#fff"/><g clip-path="url(#a)"><path d="m53.77 57.61h19.01v13.64h-19.01z" fill="none" stroke="#000" stroke-width=".45"/></g><path d="m10.15 57.61h19.01v13.64h-19.01z" fill="#fff"/><g clip-path="url(#a)" fill="none" stroke="#000" stroke-width=".45"><path d="m10.15 57.61h19.01v13.64h-19.01z"/><path d="m32.1 57.61h19.01v13.64h-19.01z"/></g><path d="m53.77 41.74h19.01v13.64h-19.01z" fill="none" stroke="#000" stroke-width=".45"/><path d="m10.15 41.75h19.01v13.64h-19.01z" fill="#fff"/><g clip-path="url(#a)"><path d="m10.15 41.74h19.01v13.64h-19.01z" fill="none" stroke="#000" stroke-width=".45"/></g><path d="m32.1 41.74h19.01v13.64h-19.01z" fill="none" stroke="#000" stroke-width=".45"/><path d="m26.44 44.61 1.76-1.02-1.76-1.01z" fill="#231f20"/></svg>