<svg viewBox="0 0 104.62 113" xmlns="http://www.w3.org/2000/svg" xmlns:xlink="http://www.w3.org/1999/xlink"><clipPath id="a"><path d="m10 33.52h84.62v45.96h-84.62z"/></clipPath><path d="m10.31 49.51h18.84v14.04h-18.84z" fill="#e6e6e6"/><path d="m75.03 33.63h19.46v14.12h-19.46z" fill="#969696"/><path d="m31.65 33.65h41.15v29.94h-41.15z" fill="#c8c8c8"/><path d="m31.89 49.74h19.01v13.64h-19.01z" fill="none" stroke="#000" stroke-width=".45"/><g clip-path="url(#a)"><path d="m10.22 49.74h19.01v13.64h-19.01z" fill="none" stroke="#000" stroke-width=".45"/></g><path d="m53.56 49.74h19.01v13.64h-19.01z" fill="none" stroke="#000" stroke-width=".45"/><path d="m75.26 49.75h19v13.64h-19z" fill="#fff"/><g clip-path="url(#a)" fill="none" stroke="#000" stroke-width=".45"><path d="m75.26 49.74h19.01v13.64h-19.01z"/><path d="m31.89 33.88h19.01v13.64h-19.01z"/></g><path d="m10.22 33.88h19.01v13.64h-19.01z" fill="#fff"/><g clip-path="url(#a)" fill="none" stroke="#000" stroke-width=".45"><path d="m10.22 33.88h19.01v13.64h-19.01z"/><path d="m53.56 33.88h19.01v13.64h-19.01z"/><path d="m75.26 33.88h19.01v13.64h-19.01z"/></g><path d="m31.89 65.61h19.01v13.64h-19.01z" fill="#fff"/><g clip-path="url(#a)"><path d="m31.89 65.61h19.01v13.64h-19.01z" fill="none" stroke="#000" stroke-width=".45"/></g><path d="m10.22 65.61h19.01v13.64h-19.01z" fill="#fff"/><g clip-path="url(#a)"><path d="m10.22 65.61h19.01v13.64h-19.01z" fill="none" stroke="#000" stroke-width=".45"/></g><path d="m53.56 65.61h19.01v13.64h-19.01z" fill="#fff"/><g clip-path="url(#a)"><path d="m53.56 65.61h19.01v13.64h-19.01z" fill="none" stroke="#000" stroke-width=".45"/></g><path d="m75.26 65.61h19v13.64h-19z" fill="#fff"/><g clip-path="url(#a)"><path d="m75.26 65.61h19.01v13.64h-19.01z" fill="none" stroke="#000" stroke-width=".45"/></g><path d="m28.33 68.57-1.18-2.05-1.19 2.05z" fill="#231f20"/></svg>