<svg viewBox="0 0 169.74 113" xmlns="http://www.w3.org/2000/svg" xmlns:xlink="http://www.w3.org/1999/xlink"><clipPath id="a"><path d="m10 25.59h149.74v61.82h-149.74z"/></clipPath><path d="m118.47 25.71h41.12v29.97h-41.12z" fill="#969696"/><path d="m53.47 25.72h62.78v45.84h-62.78z" fill="#c8c8c8"/><path d="m10.13 41.58h41.11v29.99h-41.11z" fill="#e6e6e6"/><g clip-path="url(#a)"><path d="m10.36 57.68h19.01v13.64h-19.01z" fill="none" stroke="#000" stroke-width=".45"/></g><path d="m75.37 57.68h19.01v13.64h-19.01z" fill="none" stroke="#000" stroke-width=".45"/><path d="m53.7 57.68h19.01v13.64h-19.01z" fill="none" stroke="#000" stroke-width=".45"/><path d="m118.71 57.68h19.01v13.64h-19.01z" fill="#fff"/><path d="m118.71 57.68h19.01v13.64h-19.01z" fill="none" stroke="#000" stroke-width=".45"/><path d="m140.38 57.68h19.01v13.64h-19.01z" fill="#fff"/><g clip-path="url(#a)"><path d="m140.38 57.68h19.01v13.64h-19.01z" fill="none" stroke="#000" stroke-width=".45"/></g><path d="m53.7 73.54h19.01v13.64h-19.01z" fill="#fff"/><g clip-path="url(#a)"><path d="m53.7 73.54h19.01v13.64h-19.01z" fill="none" stroke="#000" stroke-width=".45"/></g><path d="m118.71 73.54h19v13.64h-19z" fill="#fff"/><g clip-path="url(#a)"><path d="m118.71 73.54h19.01v13.64h-19.01z" fill="none" stroke="#000" stroke-width=".45"/></g><path d="m140.38 73.54h19.01v13.64h-19.01z" fill="#fff"/><g clip-path="url(#a)"><path d="m140.38 73.54h19.01v13.64h-19.01z" fill="none" stroke="#000" stroke-width=".45"/></g><path d="m32.03 57.68h19.01v13.64h-19.01z" fill="none" stroke="#000" stroke-width=".45"/><path d="m97.04 57.68h19.01v13.64h-19.01z" fill="none" stroke="#000" stroke-width=".45"/><g clip-path="url(#a)"><path d="m10.36 41.81h19.01v13.64h-19.01z" fill="none" stroke="#000" stroke-width=".45"/></g><path d="m75.37 41.81h19.01v13.64h-19.01z" fill="none" stroke="#000" stroke-width=".45"/><path d="m10.36 25.95h19v13.64h-19z" fill="#fff"/><g fill="none" stroke="#000" stroke-width=".45"><g clip-path="url(#a)"><path d="m10.36 25.95h19.01v13.64h-19.01z"/><path d="m75.37 25.95h19.01v13.64h-19.01z"/></g><path d="m53.7 41.81h19.01v13.64h-19.01z"/><path d="m118.71 41.81h19.01v13.64h-19.01z"/><g clip-path="url(#a)"><path d="m140.38 41.81h19.01v13.64h-19.01z"/><path d="m53.7 25.95h19.01v13.64h-19.01z"/><path d="m118.71 25.95h19.01v13.64h-19.01z"/><path d="m140.38 25.95h19.01v13.64h-19.01z"/></g><path d="m32.03 41.81h19.01v13.64h-19.01z"/><path d="m97.04 41.81h19.01v13.64h-19.01z"/></g><path d="m32.03 25.95h19v13.64h-19z" fill="#fff"/><g clip-path="url(#a)" fill="none" stroke="#000" stroke-width=".45"><path d="m32.03 25.95h19.01v13.64h-19.01z"/><path d="m97.04 25.95h19.01v13.64h-19.01z"/></g><path d="m10.36 73.54h19v13.64h-19z" fill="#fff"/><g clip-path="url(#a)"><path d="m10.36 73.54h19.01v13.64h-19.01z" fill="none" stroke="#000" stroke-width=".45"/></g><path d="m75.37 73.54h19v13.64h-19z" fill="#fff"/><g clip-path="url(#a)"><path d="m75.37 73.54h19.01v13.64h-19.01z" fill="none" stroke="#000" stroke-width=".45"/></g><path d="m32.03 73.54h19v13.64h-19z" fill="#fff"/><g clip-path="url(#a)"><path d="m32.03 73.54h19.01v13.64h-19.01z" fill="none" stroke="#000" stroke-width=".45"/></g><path d="m97.04 73.54h19v13.64h-19z" fill="#fff"/><g clip-path="url(#a)"><path d="m97.04 73.54h19.01v13.64h-19.01z" fill="none" stroke="#000" stroke-width=".45"/></g><path d="m27.44 76.5-1.19-2.05-1.19 2.05z" fill="#231f20"/></svg>