<svg viewBox="0 0 82.93 113" xmlns="http://www.w3.org/2000/svg" xmlns:xlink="http://www.w3.org/1999/xlink"><clipPath id="a"><path d="m10 25.52h62.93v61.96h-62.93z"/></clipPath><path d="m31.88 73.42h19.15v13.82h-19.15z" fill="#e6e6e6"/><path d="m31.68 25.65h41.13v29.97h-41.13z" fill="#969696"/><path d="m31.75 57.49h19.15v13.91h-19.15z" fill="#c8c8c8"/><path d="m31.9 57.61h19.01v13.64h-19.01z" fill="none" stroke="#000" stroke-width=".45"/><path d="m53.56 57.61h19.01v13.64h-19.01z" fill="#fff"/><g clip-path="url(#a)" fill="none" stroke="#000" stroke-width=".45"><path d="m53.56 57.61h19.01v13.64h-19.01z"/><path d="m31.9 73.48h19.01v13.64h-19.01z"/></g><path d="m53.56 73.48h19.01v13.64h-19.01z" fill="#fff"/><g clip-path="url(#a)"><path d="m53.56 73.48h19.01v13.64h-19.01z" fill="none" stroke="#000" stroke-width=".45"/></g><path d="m10.22 57.61h19.01v13.64h-19.01z" fill="#fff"/><g clip-path="url(#a)"><path d="m10.22 57.61h19.01v13.64h-19.01z" fill="none" stroke="#000" stroke-width=".45"/></g><path d="m31.9 41.74h19.01v13.64h-19.01z" fill="none" stroke="#000" stroke-width=".45"/><g clip-path="url(#a)" fill="none" stroke="#000" stroke-width=".45"><path d="m53.56 41.74h19.01v13.64h-19.01z"/><path d="m31.9 25.88h19.01v13.64h-19.01z"/><path d="m53.56 25.88h19.01v13.64h-19.01z"/></g><path d="m10.22 41.74h19.01v13.64h-19.01z" fill="#fff"/><g clip-path="url(#a)"><path d="m10.22 41.74h19.01v13.64h-19.01z" fill="none" stroke="#000" stroke-width=".45"/></g><path d="m10.22 25.88h19.01v13.64h-19.01z" fill="#fff"/><g clip-path="url(#a)"><path d="m10.22 25.88h19.01v13.64h-19.01z" fill="none" stroke="#000" stroke-width=".45"/></g><path d="m10.22 73.48h19.01v13.64h-19.01z" fill="#fff"/><g clip-path="url(#a)"><path d="m10.22 73.48h19.01v13.64h-19.01z" fill="none" stroke="#000" stroke-width=".45"/></g><path d="m26.28 60.88 2.05-1.18-2.05-1.19z" fill="#231f20"/></svg>