<svg viewBox="0 0 191.36 113" xmlns="http://www.w3.org/2000/svg" xmlns:xlink="http://www.w3.org/1999/xlink"><clipPath id="a"><path d="m10 17.66h171.36v77.69h-171.36z"/></clipPath><path d="m140.13 17.77h41.11v29.98h-41.11z" fill="#969696"/><path d="m10.13 49.5h41.13v29.98h-41.13z" fill="#c8c8c8"/><path d="m53.49 17.78h84.45v61.7h-84.45z" fill="#e6e6e6"/><g clip-path="url(#a)"><path d="m10.37 65.61h19.01v13.64h-19.01z" fill="none" stroke="#000" stroke-width=".45"/></g><path d="m97.05 65.61h19.01v13.64h-19.01z" fill="none" stroke="#000" stroke-width=".45"/><path d="m53.71 65.61h19.01v13.64h-19.01z" fill="none" stroke="#000" stroke-width=".45"/><path d="m53.71 81.48h19v13.64h-19z" fill="#fff"/><g clip-path="url(#a)"><path d="m53.71 81.48h19.01v13.64h-19.01z" fill="none" stroke="#000" stroke-width=".45"/></g><path d="m32.04 65.61h19.01v13.64h-19.01z" fill="none" stroke="#000" stroke-width=".45"/><path d="m118.72 65.61h19.01v13.64h-19.01z" fill="none" stroke="#000" stroke-width=".45"/><path d="m140.36 65.61h19.01v13.64h-19.01z" fill="#fff"/><path d="m140.36 65.61h19.01v13.64h-19.01z" fill="none" stroke="#000" stroke-width=".45"/><path d="m162 65.61h19.01v13.64h-19.01z" fill="#fff"/><path d="m162 65.61h19.01v13.64h-19.01z" fill="none" stroke="#000" stroke-width=".45"/><g clip-path="url(#a)"><path d="m10.37 49.74h19.01v13.64h-19.01z" fill="none" stroke="#000" stroke-width=".45"/></g><g fill="none" stroke="#000" stroke-width=".45"><path d="m97.05 49.74h19.01v13.64h-19.01z"/><path d="m75.38 49.74h19.01v13.64h-19.01z"/><path d="m75.38 65.61h19.01v13.64h-19.01z"/></g><path d="m75.38 81.48h19v13.64h-19z" fill="#fff"/><g clip-path="url(#a)"><path d="m75.38 81.48h19.01v13.64h-19.01z" fill="none" stroke="#000" stroke-width=".45"/></g><path d="m10.37 18.01h19.01v13.64h-19.01z" fill="#fff"/><g clip-path="url(#a)" fill="none" stroke="#000" stroke-width=".45"><path d="m10.37 18.01h19.01v13.64h-19.01z"/><path d="m97.05 18.01h19.01v13.64h-19.01z"/><path d="m75.38 18.01h19.01v13.64h-19.01z"/></g><path d="m10.37 33.88h19.01v13.64h-19.01z" fill="#fff"/><g clip-path="url(#a)"><path d="m10.37 33.88h19.01v13.64h-19.01z" fill="none" stroke="#000" stroke-width=".45"/></g><path d="m97.05 33.88h19.01v13.64h-19.01z" fill="none" stroke="#000" stroke-width=".45"/><path d="m75.38 33.88h19.01v13.64h-19.01z" fill="none" stroke="#000" stroke-width=".45"/><path d="m53.71 49.74h19.01v13.64h-19.01z" fill="none" stroke="#000" stroke-width=".45"/><g clip-path="url(#a)"><path d="m53.71 18.01h19.01v13.64h-19.01z" fill="none" stroke="#000" stroke-width=".45"/></g><path d="m53.71 33.88h19.01v13.64h-19.01z" fill="none" stroke="#000" stroke-width=".45"/><path d="m32.04 49.74h19.01v13.64h-19.01z" fill="none" stroke="#000" stroke-width=".45"/><path d="m118.72 49.74h19.01v13.64h-19.01z" fill="none" stroke="#000" stroke-width=".45"/><path d="m140.36 49.74h19.01v13.64h-19.01z" fill="#fff"/><path d="m140.36 49.74h19.01v13.64h-19.01z" fill="none" stroke="#000" stroke-width=".45"/><path d="m162 49.74h19.01v13.64h-19.01z" fill="#fff"/><path d="m162 49.74h19.01v13.64h-19.01z" fill="none" stroke="#000" stroke-width=".45"/><path d="m32.04 18.01h19.01v13.64h-19.01z" fill="#fff"/><g clip-path="url(#a)" fill="none" stroke="#000" stroke-width=".45"><path d="m32.04 18.01h19.01v13.64h-19.01z"/><path d="m118.72 18.01h19.01v13.64h-19.01z"/><path d="m140.36 18.01h19.01v13.64h-19.01z"/><path d="m162 18.01h19.01v13.64h-19.01z"/></g><path d="m32.04 33.88h19.01v13.64h-19.01z" fill="#fff"/><g fill="none" stroke="#000" stroke-width=".45"><path d="m32.04 33.88h19.01v13.64h-19.01z"/><path d="m118.72 33.88h19.01v13.64h-19.01z"/><path d="m140.36 33.88h19.01v13.64h-19.01z"/><path d="m162 33.88h19.01v13.64h-19.01z"/></g><path d="m10.37 81.48h19.01v13.64h-19.01z" fill="#fff"/><g clip-path="url(#a)"><path d="m10.37 81.48h19.01v13.64h-19.01z" fill="none" stroke="#000" stroke-width=".45"/></g><path d="m97.05 81.48h19v13.64h-19z" fill="#fff"/><g clip-path="url(#a)"><path d="m97.05 81.48h19.01v13.64h-19.01z" fill="none" stroke="#000" stroke-width=".45"/></g><path d="m32.04 81.48h19.01v13.64h-19.01z" fill="#fff"/><g clip-path="url(#a)"><path d="m32.04 81.48h19.01v13.64h-19.01z" fill="none" stroke="#000" stroke-width=".45"/></g><path d="m118.72 81.48h19v13.64h-19z" fill="#fff"/><g clip-path="url(#a)"><path d="m118.72 81.48h19.01v13.64h-19.01z" fill="none" stroke="#000" stroke-width=".45"/></g><path d="m140.36 81.48h19.01v13.64h-19.01z" fill="#fff"/><g clip-path="url(#a)"><path d="m140.36 81.48h19.01v13.64h-19.01z" fill="none" stroke="#000" stroke-width=".45"/></g><path d="m162 81.48h19.01v13.64h-19.01z" fill="#fff"/><g clip-path="url(#a)"><path d="m162 81.48h19.01v13.64h-19.01z" fill="none" stroke="#000" stroke-width=".45"/></g><path d="m28.6 84.43-1.19-2.05-1.18 2.05z" fill="#231f20"/></svg>