<svg viewBox="0 0 148.16 113" xmlns="http://www.w3.org/2000/svg" xmlns:xlink="http://www.w3.org/1999/xlink"><clipPath id="a"><path d="m10 17.66h128.15v77.69h-128.15z"/></clipPath><g clip-path="url(#a)"><path d="m118.71 81.48h19.01v13.64h-19.01z" fill="none" stroke="#000" stroke-width=".45"/></g><path d="m96.78 49.52h41.21v29.99h-41.21z" fill="#969696"/><path d="m96.81 17.79h41.13v29.96h-41.13z" fill="#c8c8c8"/><path d="m10.13 17.79h84.47v61.7h-84.47z" fill="#e6e6e6"/><g clip-path="url(#a)"><path d="m10.36 65.61h19.01v13.64h-19.01z" fill="none" stroke="#000" stroke-width=".45"/></g><path d="m97.04 65.61h19.01v13.64h-19.01z" fill="none" stroke="#000" stroke-width=".45"/><path d="m53.7 65.61h19.01v13.64h-19.01z" fill="none" stroke="#000" stroke-width=".45"/><path d="m53.7 81.48h19.01v13.64h-19.01z" fill="#fff"/><g clip-path="url(#a)"><path d="m53.7 81.48h19.01v13.64h-19.01z" fill="none" stroke="#000" stroke-width=".45"/></g><path d="m32.03 65.61h19.01v13.64h-19.01z" fill="none" stroke="#000" stroke-width=".45"/><path d="m118.71 65.61h19.01v13.64h-19.01z" fill="none" stroke="#000" stroke-width=".45"/><g clip-path="url(#a)"><path d="m10.36 49.74h19.01v13.64h-19.01z" fill="none" stroke="#000" stroke-width=".45"/></g><path d="m97.04 49.74h19.01v13.64h-19.01z" fill="none" stroke="#000" stroke-width=".45"/><path d="m75.37 49.74h19.01v13.64h-19.01z" fill="none" stroke="#000" stroke-width=".45"/><path d="m75.37 65.61h19.01v13.64h-19.01z" fill="none" stroke="#000" stroke-width=".45"/><path d="m75.37 81.48h19v13.64h-19z" fill="#fff"/><g fill="none" stroke="#000" stroke-width=".45"><g clip-path="url(#a)"><path d="m75.37 81.48h19.01v13.64h-19.01z"/><path d="m10.36 18.01h19.01v13.64h-19.01z"/><path d="m97.04 18.01h19.01v13.64h-19.01z"/><path d="m75.37 18.01h19.01v13.64h-19.01z"/><path d="m10.36 33.88h19.01v13.64h-19.01z"/></g><path d="m97.04 33.88h19.01v13.64h-19.01z"/><path d="m75.37 33.88h19.01v13.64h-19.01z"/><path d="m53.7 49.74h19.01v13.64h-19.01z"/></g><g clip-path="url(#a)"><path d="m53.7 18.01h19.01v13.64h-19.01z" fill="none" stroke="#000" stroke-width=".45"/></g><g fill="none" stroke="#000" stroke-width=".45"><path d="m53.7 33.88h19.01v13.64h-19.01z"/><path d="m32.03 49.74h19.01v13.64h-19.01z"/><path d="m118.71 49.74h19.01v13.64h-19.01z"/><g clip-path="url(#a)"><path d="m32.03 18.01h19.01v13.64h-19.01z"/><path d="m118.71 18.01h19.01v13.64h-19.01z"/></g><path d="m32.03 33.88h19.01v13.64h-19.01z"/><path d="m118.71 33.88h19.01v13.64h-19.01z"/></g><path d="m10.36 81.48h19v13.64h-19z" fill="#fff"/><g clip-path="url(#a)"><path d="m10.36 81.48h19.01v13.64h-19.01z" fill="none" stroke="#000" stroke-width=".45"/></g><path d="m97.04 81.48h19v13.64h-19z" fill="#fff"/><g clip-path="url(#a)"><path d="m97.04 81.48h19.01v13.64h-19.01z" fill="none" stroke="#000" stroke-width=".45"/></g><path d="m32.03 81.48h19v13.64h-19z" fill="#fff"/><g clip-path="url(#a)"><path d="m32.03 81.48h19.01v13.64h-19.01z" fill="none" stroke="#000" stroke-width=".45"/></g><path d="m28.59 84.43-1.18-2.05-1.19 2.05z" fill="#231f20"/></svg>