<svg viewBox="0 0 191.56 113" xmlns="http://www.w3.org/2000/svg" xmlns:xlink="http://www.w3.org/1999/xlink"><clipPath id="a"><path d="m10 9.64h171.55v93.72h-171.55z"/></clipPath><path d="m118.49 57.24h63.06v46.12h-63.06z" fill="#969696"/><path d="m10 9.64h106.4v77.82h-106.4z" fill="#e6e6e6"/><path d="m118.49 9.64h63.06v46.12h-63.06z" fill="#c8c8c8"/><g clip-path="url(#a)"><path d="m10.36 73.46h19.01v13.64h-19.01z" fill="none" stroke="#000" stroke-width=".45"/></g><path d="m118.85 73.46h19.01v13.64h-19.01z" fill="none" stroke="#000" stroke-width=".45"/><path d="m53.7 73.46h19.01v13.64h-19.01z" fill="none" stroke="#000" stroke-width=".45"/><g clip-path="url(#a)"><path d="m162.19 73.46h19.01v13.64h-19.01z" fill="none" stroke="#000" stroke-width=".45"/></g><path d="m53.7 89.33h19.01v13.64h-19.01z" fill="#fff"/><g clip-path="url(#a)" fill="none" stroke="#000" stroke-width=".45"><path d="m53.7 89.33h19.01v13.64h-19.01z"/><path d="m162.19 89.33h19.01v13.64h-19.01z"/></g><path d="m32.03 73.46h19.01v13.64h-19.01z" fill="none" stroke="#000" stroke-width=".45"/><path d="m140.52 73.46h19.01v13.64h-19.01z" fill="none" stroke="#000" stroke-width=".45"/><g clip-path="url(#a)"><path d="m10.36 57.59h19.01v13.64h-19.01z" fill="none" stroke="#000" stroke-width=".45"/></g><path d="m118.85 57.59h19.01v13.64h-19.01z" fill="none" stroke="#000" stroke-width=".45"/><path d="m75.37 57.59h19.01v13.64h-19.01z" fill="none" stroke="#000" stroke-width=".45"/><path d="m75.37 73.46h19.01v13.64h-19.01z" fill="none" stroke="#000" stroke-width=".45"/><path d="m75.37 89.33h19v13.64h-19z" fill="#fff"/><g clip-path="url(#a)" fill="none" stroke="#000" stroke-width=".45"><path d="m75.37 89.33h19.01v13.64h-19.01z"/><path d="m10.36 25.86h19.01v13.64h-19.01z"/></g><path d="m118.85 25.86h19.01v13.64h-19.01z" fill="none" stroke="#000" stroke-width=".45"/><path d="m75.37 25.86h19.01v13.64h-19.01z" fill="none" stroke="#000" stroke-width=".45"/><g clip-path="url(#a)"><path d="m10.36 41.73h19.01v13.64h-19.01z" fill="none" stroke="#000" stroke-width=".45"/></g><path d="m118.85 41.73h19.01v13.64h-19.01z" fill="none" stroke="#000" stroke-width=".45"/><path d="m75.37 41.73h19.01v13.64h-19.01z" fill="none" stroke="#000" stroke-width=".45"/><g clip-path="url(#a)" fill="none" stroke="#000" stroke-width=".45"><path d="m10.36 10h19.01v13.64h-19.01z"/><path d="m118.85 10h19.01v13.64h-19.01z"/><path d="m75.37 10h19.01v13.64h-19.01z"/></g><path d="m53.7 57.59h19.01v13.64h-19.01z" fill="none" stroke="#000" stroke-width=".45"/><g clip-path="url(#a)"><path d="m162.19 57.59h19.01v13.64h-19.01z" fill="none" stroke="#000" stroke-width=".45"/></g><path d="m53.7 25.86h19.01v13.64h-19.01z" fill="none" stroke="#000" stroke-width=".45"/><g clip-path="url(#a)"><path d="m162.19 25.86h19.01v13.64h-19.01z" fill="none" stroke="#000" stroke-width=".45"/></g><g fill="none" stroke="#000" stroke-width=".45"><path d="m53.7 41.73h19.01v13.64h-19.01z"/><g clip-path="url(#a)"><path d="m162.19 41.73h19.01v13.64h-19.01z"/><path d="m53.7 10h19.01v13.64h-19.01z"/><path d="m162.19 10h19.01v13.64h-19.01z"/></g><path d="m32.03 57.59h19.01v13.64h-19.01z"/><path d="m140.52 57.59h19.01v13.64h-19.01z"/><path d="m97.04 57.59h19.01v13.64h-19.01z"/><path d="m97.04 73.46h19.01v13.64h-19.01z"/></g><path d="m97.04 89.33h19v13.64h-19z" fill="#fff"/><g clip-path="url(#a)"><path d="m97.04 89.33h19.01v13.64h-19.01z" fill="none" stroke="#000" stroke-width=".45"/></g><g fill="none" stroke="#000" stroke-width=".45"><path d="m32.03 25.86h19.01v13.64h-19.01z"/><path d="m140.52 25.86h19.01v13.64h-19.01z"/><path d="m97.04 25.86h19.01v13.64h-19.01z"/><path d="m32.03 41.73h19.01v13.64h-19.01z"/><path d="m140.52 41.73h19.01v13.64h-19.01z"/><path d="m97.04 41.73h19.01v13.64h-19.01z"/><g clip-path="url(#a)"><path d="m32.03 10h19.01v13.64h-19.01z"/><path d="m140.52 10h19.01v13.64h-19.01z"/><path d="m97.04 10h19.01v13.64h-19.01z"/></g></g><path d="m10.36 89.33h19v13.64h-19z" fill="#fff"/><g clip-path="url(#a)" fill="none" stroke="#000" stroke-width=".45"><path d="m10.36 89.33h19.01v13.64h-19.01z"/><path d="m118.85 89.33h19.01v13.64h-19.01z"/></g><path d="m32.03 89.33h19v13.64h-19z" fill="#fff"/><g clip-path="url(#a)" fill="none" stroke="#000" stroke-width=".45"><path d="m32.03 89.33h19.01v13.64h-19.01z"/><path d="m140.52 89.33h19.01v13.64h-19.01z"/></g><path d="m28.59 92.28-1.18-2.05-1.19 2.05z" fill="#231f20"/></svg>