<svg viewBox="0 0 126.27 113" xmlns="http://www.w3.org/2000/svg" xmlns:xlink="http://www.w3.org/1999/xlink"><clipPath id="a"><path d="m10.07 49.32h106.14v14.36h-106.14z"/></clipPath><path d="m53.85 49.74h18.64v13.51h-18.64z" fill="#c8c8c8"/><path d="m75.17 49.54h19.19v13.91h-19.19z" fill="#e6e6e6"/><path d="m96.83 49.6h9.65v13.72h-9.65z" fill="#969696"/><path d="m10.29 49.68h19.01v13.64h-19.01z" fill="#fff"/><g clip-path="url(#a)"><path d="m10.29 49.68h19.01v13.64h-19.01z" fill="none" stroke="#000" stroke-width=".45"/></g><path d="m31.96 49.68h19.01v13.64h-19.01z" fill="#fff"/><g clip-path="url(#a)" fill="none" stroke="#000" stroke-width=".45"><path d="m31.96 49.68h19.01v13.64h-19.01z"/><path d="m53.63 49.68h19.01v13.64h-19.01z"/><path d="m75.3 49.68h19.01v13.64h-19.01z"/><path d="m96.97 49.68h19.01v13.64h-19.01z"/></g><path d="m26.01 53.02 2.05-1.19-2.05-1.18z" fill="#231f20"/></svg>