<svg viewBox="0 0 104.6 113" xmlns="http://www.w3.org/2000/svg" xmlns:xlink="http://www.w3.org/1999/xlink"><clipPath id="a"><path d="m10 41.39h84.6v30.23h-84.6z"/></clipPath><path d="m31.84 57.48h19.11v13.91h-19.11z" fill="#e6e6e6"/><path d="m75.09 41.54h19.3v13.84h-19.3z" fill="#969696"/><path d="m53.28 41.48h19.53v30.13h-19.53z" fill="#c8c8c8"/><g clip-path="url(#a)" fill="none" stroke="#000" stroke-width=".45"><path d="m53.56 57.61h19.01v13.64h-19.01z"/><path d="m75.24 57.61h19.01v13.64h-19.01z"/><path d="m31.9 57.61h19.01v13.64h-19.01z"/></g><path d="m53.56 41.74h19.01v13.64h-19.01z" fill="none" stroke="#000" stroke-width=".45"/><g clip-path="url(#a)"><path d="m75.24 41.74h19.01v13.64h-19.01z" fill="none" stroke="#000" stroke-width=".45"/></g><path d="m31.9 41.74h19.01v13.64h-19.01z" fill="none" stroke="#000" stroke-width=".45"/><g clip-path="url(#a)"><path d="m10.23 41.74h19.01v13.64h-19.01z" fill="none" stroke="#000" stroke-width=".45"/></g><path d="m10.26 57.61h19.01v13.64h-19.01z" fill="#fff"/><g clip-path="url(#a)"><path d="m10.26 57.61h19.01v13.64h-19.01z" fill="none" stroke="#000" stroke-width=".45"/></g><path d="m26.21 45.01 2.05-1.18-2.05-1.19z" fill="#231f20"/></svg>