<svg viewBox="0 0 83.06 113" xmlns="http://www.w3.org/2000/svg" xmlns:xlink="http://www.w3.org/1999/xlink"><clipPath id="a"><path d="m9.93 41.39h63.21v30.23h-63.21z"/></clipPath><path d="m10.15 57.61h19v13.64h-19z" fill="#fff"/><g clip-path="url(#a)"><path d="m10.15 57.61h19.01v13.64h-19.01z" fill="none" stroke="#000" stroke-width=".45"/></g><path d="m53.52 41.51h19.5v29.98h-19.5z" fill="#e6e6e6"/><path d="m32.06 57.47h19.14v13.93h-19.14z" fill="#969696"/><path d="m31.98 41.54h19.28v14.05h-19.28z" fill="#c8c8c8"/><g clip-path="url(#a)" fill="none" stroke="#000" stroke-width=".45"><path d="m53.77 57.61h19.01v13.64h-19.01z"/><path d="m32.1 57.61h19.01v13.64h-19.01z"/></g><path d="m53.77 41.74h19.01v13.64h-19.01z" fill="none" stroke="#000" stroke-width=".45"/><g clip-path="url(#a)"><path d="m10.15 41.74h19.01v13.64h-19.01z" fill="none" stroke="#000" stroke-width=".45"/></g><path d="m32.1 41.74h19.01v13.64h-19.01z" fill="none" stroke="#000" stroke-width=".45"/><path d="m26.44 45.12 2.06-1.18-2.06-1.19z" fill="#231f20"/></svg>