<svg viewBox="0 0 125.71 113" xmlns="http://www.w3.org/2000/svg" xmlns:xlink="http://www.w3.org/1999/xlink"><clipPath id="a"><path d="m10 33.52h105.71v45.96h-105.71z"/></clipPath><path d="m53.44 33.65h19.47v29.94h-19.47z" fill="#e6e6e6"/><path d="m75.13 33.62h40.44v30.03h-40.44z" fill="#969696"/><path d="m10.08 33.64h41.16v29.97h-41.16z" fill="#c8c8c8"/><path d="m32 49.74h19.01v13.64h-19.01z" fill="none" stroke="#000" stroke-width=".45"/><g clip-path="url(#a)"><path d="m10.34 49.74h19.01v13.64h-19.01z" fill="none" stroke="#000" stroke-width=".45"/></g><path d="m53.67 49.74h19.01v13.64h-19.01z" fill="none" stroke="#000" stroke-width=".45"/><g clip-path="url(#a)"><path d="m96.35 49.74h19.01v13.64h-19.01z" fill="none" stroke="#000" stroke-width=".45"/></g><path d="m75.37 49.74h19.01v13.64h-19.01z" fill="none" stroke="#000" stroke-width=".45"/><g clip-path="url(#a)" fill="none" stroke="#000" stroke-width=".45"><path d="m32 33.88h19.01v13.64h-19.01z"/><path d="m10.34 33.88h19.01v13.64h-19.01z"/><path d="m53.67 33.88h19.01v13.64h-19.01z"/><path d="m96.35 33.88h19.01v13.64h-19.01z"/><path d="m75.37 33.88h19.01v13.64h-19.01z"/></g><path d="m32 65.61h19v13.64h-19z" fill="#fff"/><g clip-path="url(#a)"><path d="m32 65.61h19.01v13.64h-19.01z" fill="none" stroke="#000" stroke-width=".45"/></g><path d="m10.34 65.61h19v13.64h-19z" fill="#fff"/><g clip-path="url(#a)" fill="none" stroke="#000" stroke-width=".45"><path d="m10.34 65.61h19.01v13.64h-19.01z"/><path d="m53.67 65.61h19.01v13.64h-19.01z"/><path d="m96.35 65.61h19.01v13.64h-19.01z"/></g><path d="m75.37 65.61h19v13.64h-19z" fill="#fff"/><g clip-path="url(#a)"><path d="m75.37 65.61h19.01v13.64h-19.01z" fill="none" stroke="#000" stroke-width=".45"/></g><path d="m13.67 68.57-1.18-2.05-1.19 2.05z" fill="#231f20"/></svg>