<svg viewBox="0 0 83.04 113" xmlns="http://www.w3.org/2000/svg" xmlns:xlink="http://www.w3.org/1999/xlink"><clipPath id="a"><path d="m10.05 33.52h62.93v45.96h-62.93z"/></clipPath><path d="m10.36 49.72h18.84v13.74h-18.84z" fill="#e6e6e6"/><path d="m53.55 33.73h19.15v13.94h-19.15z" fill="#969696"/><path d="m31.71 33.63h19.48v29.98h-19.48z" fill="#c8c8c8"/><path d="m31.95 49.74h19.01v13.64h-19.01z" fill="none" stroke="#000" stroke-width=".45"/><g clip-path="url(#a)" fill="none" stroke="#000" stroke-width=".45"><path d="m10.28 49.74h19.01v13.64h-19.01z"/><path d="m53.62 49.74h19.01v13.64h-19.01z"/><path d="m31.95 33.88h19.01v13.64h-19.01z"/></g><path d="m10.28 33.88h19.01v13.64h-19.01z" fill="#fff"/><g clip-path="url(#a)" fill="none" stroke="#000" stroke-width=".45"><path d="m10.28 33.88h19.01v13.64h-19.01z"/><path d="m53.62 33.88h19.01v13.64h-19.01z"/></g><path d="m31.95 65.61h19.01v13.64h-19.01z" fill="#fff"/><g clip-path="url(#a)"><path d="m31.95 65.61h19.01v13.64h-19.01z" fill="none" stroke="#000" stroke-width=".45"/></g><path d="m10.28 65.61h19.01v13.64h-19.01z" fill="#fff"/><g clip-path="url(#a)"><path d="m10.28 65.61h19.01v13.64h-19.01z" fill="none" stroke="#000" stroke-width=".45"/></g><path d="m53.62 65.61h19.01v13.64h-19.01z" fill="#fff"/><g clip-path="url(#a)"><path d="m53.62 65.61h19.01v13.64h-19.01z" fill="none" stroke="#000" stroke-width=".45"/></g><path d="m28.39 68.57-1.19-2.05-1.18 2.05z" fill="#231f20"/></svg>