<svg viewBox="0 0 61.37 113" xmlns="http://www.w3.org/2000/svg" xmlns:xlink="http://www.w3.org/1999/xlink"><clipPath id="a"><path d="m10 33.52h41.37v45.96h-41.37z"/></clipPath><path d="m31.74 33.62h19.5v30h-19.5z" fill="#e6e6e6"/><path d="m10.35 49.64h19.03v13.86h-19.03z" fill="#969696"/><path d="m10.23 33.69h19.24v14.02h-19.24z" fill="#c8c8c8"/><path d="m32 49.74h19.01v13.64h-19.01z" fill="none" stroke="#000" stroke-width=".45"/><g clip-path="url(#a)" fill="none" stroke="#000" stroke-width=".45"><path d="m10.34 49.74h19.01v13.64h-19.01z"/><path d="m32 33.88h19.01v13.64h-19.01z"/><path d="m10.34 33.88h19.01v13.64h-19.01z"/></g><path d="m32 65.61h19v13.64h-19z" fill="#fff"/><g clip-path="url(#a)"><path d="m32 65.61h19.01v13.64h-19.01z" fill="none" stroke="#000" stroke-width=".45"/></g><path d="m10.34 65.61h19v13.64h-19z" fill="#fff"/><g clip-path="url(#a)"><path d="m10.34 65.61h19.01v13.64h-19.01z" fill="none" stroke="#000" stroke-width=".45"/></g><path d="m27.98 68.57-1.18-2.05-1.19 2.05z" fill="#231f20"/></svg>