<svg viewBox="0 0 148.22 113" xmlns="http://www.w3.org/2000/svg" xmlns:xlink="http://www.w3.org/1999/xlink"><clipPath id="a"><path d="m10 25.59h128.22v61.82h-128.22z"/></clipPath><path d="m96.92 25.65h41.16v30.04h-41.16z" fill="#969696"/><path d="m53.39 25.59h41.2v45.97h-41.2z" fill="#c8c8c8"/><path d="m10.14 41.56h41.13v30h-41.13z" fill="#e6e6e6"/><g clip-path="url(#a)"><path d="m10.36 57.68h19.01v13.64h-19.01z" fill="none" stroke="#000" stroke-width=".45"/></g><path d="m75.37 57.68h19.01v13.64h-19.01z" fill="none" stroke="#000" stroke-width=".45"/><path d="m53.7 57.68h19.01v13.64h-19.01z" fill="none" stroke="#000" stroke-width=".45"/><path d="m97.18 57.68h19.01v13.64h-19.01z" fill="#fff"/><path d="m97.18 57.68h19.01v13.64h-19.01z" fill="none" stroke="#000" stroke-width=".45"/><path d="m118.85 57.68h19.01v13.64h-19.01z" fill="#fff"/><path d="m118.85 57.68h19.01v13.64h-19.01z" fill="none" stroke="#000" stroke-width=".45"/><path d="m53.7 73.54h19.01v13.64h-19.01z" fill="#fff"/><g clip-path="url(#a)"><path d="m53.7 73.54h19.01v13.64h-19.01z" fill="none" stroke="#000" stroke-width=".45"/></g><path d="m97.18 73.54h19.01v13.64h-19.01z" fill="#fff"/><g clip-path="url(#a)"><path d="m97.18 73.54h19.01v13.64h-19.01z" fill="none" stroke="#000" stroke-width=".45"/></g><path d="m118.85 73.54h19.01v13.64h-19.01z" fill="#fff"/><g clip-path="url(#a)"><path d="m118.85 73.54h19.01v13.64h-19.01z" fill="none" stroke="#000" stroke-width=".45"/></g><path d="m32.03 57.68h19.01v13.64h-19.01z" fill="none" stroke="#000" stroke-width=".45"/><g clip-path="url(#a)"><path d="m10.36 41.81h19.01v13.64h-19.01z" fill="none" stroke="#000" stroke-width=".45"/></g><path d="m75.37 41.81h19.01v13.64h-19.01z" fill="none" stroke="#000" stroke-width=".45"/><path d="m10.36 25.95h19v13.64h-19z" fill="#fff"/><g fill="none" stroke="#000" stroke-width=".45"><g clip-path="url(#a)"><path d="m10.36 25.95h19.01v13.64h-19.01z"/><path d="m75.37 25.95h19.01v13.64h-19.01z"/></g><path d="m53.7 41.81h19.01v13.64h-19.01z"/><path d="m97.18 41.81h19.01v13.64h-19.01z"/><path d="m118.85 41.81h19.01v13.64h-19.01z"/><g clip-path="url(#a)"><path d="m53.7 25.95h19.01v13.64h-19.01z"/><path d="m97.18 25.95h19.01v13.64h-19.01z"/><path d="m118.85 25.95h19.01v13.64h-19.01z"/></g><path d="m32.03 41.81h19.01v13.64h-19.01z"/></g><path d="m32.03 25.95h19v13.64h-19z" fill="#fff"/><g clip-path="url(#a)"><path d="m32.03 25.95h19.01v13.64h-19.01z" fill="none" stroke="#000" stroke-width=".45"/></g><path d="m10.36 73.54h19v13.64h-19z" fill="#fff"/><g clip-path="url(#a)"><path d="m10.36 73.54h19.01v13.64h-19.01z" fill="none" stroke="#000" stroke-width=".45"/></g><path d="m75.37 73.54h19v13.64h-19z" fill="#fff"/><g clip-path="url(#a)"><path d="m75.37 73.54h19.01v13.64h-19.01z" fill="none" stroke="#000" stroke-width=".45"/></g><path d="m32.03 73.54h19v13.64h-19z" fill="#fff"/><g clip-path="url(#a)"><path d="m32.03 73.54h19.01v13.64h-19.01z" fill="none" stroke="#000" stroke-width=".45"/></g><path d="m27.44 76.5-1.19-2.05-1.19 2.05z" fill="#231f20"/></svg>