<svg viewBox="0 0 104.04 113" xmlns="http://www.w3.org/2000/svg" xmlns:xlink="http://www.w3.org/1999/xlink"><clipPath id="a"><path d="m10 25.52h84.04v61.96h-84.04z"/></clipPath><path d="m52.73 57.36h41.2v29.98h-41.2z" fill="#969696"/><path d="m52.75 25.62h41.19v30h-41.19z" fill="#c8c8c8"/><path d="m10.1 25.62h41.13v45.86h-41.13z" fill="#e6e6e6"/><g clip-path="url(#a)"><path d="m10.36 57.61h19.01v13.64h-19.01z" fill="none" stroke="#000" stroke-width=".45"/></g><path d="m53.01 57.61h19.01v13.64h-19.01z" fill="none" stroke="#000" stroke-width=".45"/><path d="m32.03 57.61h19.01v13.64h-19.01z" fill="none" stroke="#000" stroke-width=".45"/><path d="m74.68 57.61h19.01v13.64h-19.01z" fill="none" stroke="#000" stroke-width=".45"/><g clip-path="url(#a)"><path d="m10.36 41.74h19.01v13.64h-19.01z" fill="none" stroke="#000" stroke-width=".45"/></g><g fill="none" stroke="#000" stroke-width=".45"><path d="m53.01 41.74h19.01v13.64h-19.01z"/><g clip-path="url(#a)"><path d="m10.36 25.88h19.01v13.64h-19.01z"/><path d="m53.01 25.88h19.01v13.64h-19.01z"/></g><path d="m32.03 41.74h19.01v13.64h-19.01z"/><path d="m74.68 41.74h19.01v13.64h-19.01z"/><g clip-path="url(#a)"><path d="m32.03 25.88h19.01v13.64h-19.01z"/><path d="m74.68 25.88h19.01v13.64h-19.01z"/></g></g><path d="m10.36 73.48h19v13.64h-19z" fill="#fff"/><g clip-path="url(#a)" fill="none" stroke="#000" stroke-width=".45"><path d="m10.36 73.48h19.01v13.64h-19.01z"/><path d="m53.01 73.48h19.01v13.64h-19.01z"/></g><path d="m32.03 73.48h19v13.64h-19z" fill="#fff"/><g clip-path="url(#a)" fill="none" stroke="#000" stroke-width=".45"><path d="m32.03 73.48h19.01v13.64h-19.01z"/><path d="m74.68 73.48h19.01v13.64h-19.01z"/></g><path d="m27.44 76.43-1.19-2.05-1.19 2.05z" fill="#231f20"/></svg>