<svg viewBox="0 0 148.2 113" xmlns="http://www.w3.org/2000/svg" xmlns:xlink="http://www.w3.org/1999/xlink"><clipPath id="a"><path d="m9.62 16.18h128.2v77.69h-128.2z"/></clipPath><path d="m96.57 16.26h41.11v30.01h-41.11z" fill="#969696"/><path d="m9.75 48.02h41.13v30.03h-41.13z" fill="#c8c8c8"/><path d="m53.07 16.29h41.15v61.71h-41.15z" fill="#e6e6e6"/><g clip-path="url(#a)"><path d="m9.99 64.13h19.01v13.64h-19.01z" fill="none" stroke="#000" stroke-width=".45"/></g><path d="m53.33 64.13h19.01v13.64h-19.01z" fill="none" stroke="#000" stroke-width=".45"/><path d="m53.33 80h19.01v13.64h-19.01z" fill="#fff"/><g clip-path="url(#a)"><path d="m53.33 80h19.01v13.64h-19.01z" fill="none" stroke="#000" stroke-width=".45"/></g><path d="m31.66 64.13h19.01v13.64h-19.01z" fill="none" stroke="#000" stroke-width=".45"/><path d="m96.81 64.13h19.01v13.64h-19.01z" fill="#fff"/><path d="m96.81 64.13h19.01v13.64h-19.01z" fill="none" stroke="#000" stroke-width=".45"/><path d="m118.46 64.13h19.01v13.64h-19.01z" fill="#fff"/><path d="m118.46 64.13h19.01v13.64h-19.01z" fill="none" stroke="#000" stroke-width=".45"/><g clip-path="url(#a)"><path d="m9.99 48.26h19.01v13.64h-19.01z" fill="none" stroke="#000" stroke-width=".45"/></g><path d="m75 48.26h19.01v13.64h-19.01z" fill="none" stroke="#000" stroke-width=".45"/><path d="m75 64.13h19.01v13.64h-19.01z" fill="none" stroke="#000" stroke-width=".45"/><path d="m75 80h19v13.64h-19z" fill="#fff"/><g clip-path="url(#a)"><path d="m75 80h19.01v13.64h-19.01z" fill="none" stroke="#000" stroke-width=".45"/></g><path d="m9.99 16.53h19.01v13.64h-19.01z" fill="#fff"/><g clip-path="url(#a)" fill="none" stroke="#000" stroke-width=".45"><path d="m9.99 16.53h19.01v13.64h-19.01z"/><path d="m75 16.53h19.01v13.64h-19.01z"/></g><path d="m9.99 32.4h19.01v13.64h-19.01z" fill="#fff"/><g clip-path="url(#a)"><path d="m9.99 32.4h19.01v13.64h-19.01z" fill="none" stroke="#000" stroke-width=".45"/></g><path d="m75 32.4h19.01v13.64h-19.01z" fill="none" stroke="#000" stroke-width=".45"/><path d="m53.33 48.26h19.01v13.64h-19.01z" fill="none" stroke="#000" stroke-width=".45"/><g clip-path="url(#a)"><path d="m53.33 16.53h19.01v13.64h-19.01z" fill="none" stroke="#000" stroke-width=".45"/></g><path d="m53.33 32.4h19.01v13.64h-19.01z" fill="none" stroke="#000" stroke-width=".45"/><path d="m31.66 48.26h19.01v13.64h-19.01z" fill="none" stroke="#000" stroke-width=".45"/><path d="m96.81 48.26h19.01v13.64h-19.01z" fill="#fff"/><path d="m96.81 48.26h19.01v13.64h-19.01z" fill="none" stroke="#000" stroke-width=".45"/><path d="m118.46 48.26h19.01v13.64h-19.01z" fill="#fff"/><path d="m118.46 48.26h19.01v13.64h-19.01z" fill="none" stroke="#000" stroke-width=".45"/><path d="m31.66 16.53h19.01v13.64h-19.01z" fill="#fff"/><g clip-path="url(#a)" fill="none" stroke="#000" stroke-width=".45"><path d="m31.66 16.53h19.01v13.64h-19.01z"/><path d="m96.81 16.53h19.01v13.64h-19.01z"/><path d="m118.46 16.53h19.01v13.64h-19.01z"/></g><path d="m31.66 32.4h19.01v13.64h-19.01z" fill="#fff"/><g fill="none" stroke="#000" stroke-width=".45"><path d="m31.66 32.4h19.01v13.64h-19.01z"/><path d="m96.81 32.4h19.01v13.64h-19.01z"/><path d="m118.46 32.4h19.01v13.64h-19.01z"/></g><path d="m9.99 80h19.01v13.64h-19.01z" fill="#fff"/><g clip-path="url(#a)"><path d="m9.99 80h19.01v13.64h-19.01z" fill="none" stroke="#000" stroke-width=".45"/></g><path d="m31.66 80h19.01v13.64h-19.01z" fill="#fff"/><g clip-path="url(#a)"><path d="m31.66 80h19.01v13.64h-19.01z" fill="none" stroke="#000" stroke-width=".45"/></g><path d="m96.81 80h19.01v13.64h-19.01z" fill="#fff"/><g clip-path="url(#a)"><path d="m96.81 80h19.01v13.64h-19.01z" fill="none" stroke="#000" stroke-width=".45"/></g><path d="m118.46 80h19.01v13.64h-19.01z" fill="#fff"/><g clip-path="url(#a)"><path d="m118.46 80h19.01v13.64h-19.01z" fill="none" stroke="#000" stroke-width=".45"/></g><path d="m28.22 82.95-1.18-2.05-1.19 2.05z" fill="#231f20"/></svg>