<svg viewBox="0 0 82.93 113" xmlns="http://www.w3.org/2000/svg" xmlns:xlink="http://www.w3.org/1999/xlink"><clipPath id="a"><path d="m10 9.66h62.93v93.69h-62.93z"/></clipPath><path d="m31.64 73.24h41.16v29.99h-41.16z" fill="#969696"/><path d="m31.66 9.76h41.12v29.99h-41.12z" fill="#e6e6e6"/><path d="m31.66 41.51h19.48v29.96h-19.48z" fill="#c8c8c8"/><path d="m10.22 73.48h19.01v13.64h-19.01z" fill="#fff"/><g clip-path="url(#a)" fill="none" stroke="#000" stroke-width=".45"><path d="m10.22 73.48h19.01v13.64h-19.01z"/><path d="m53.56 73.48h19.01v13.64h-19.01z"/><path d="m53.56 89.34h19.01v13.64h-19.01z"/></g><path d="m31.9 73.48h19.01v13.64h-19.01z" fill="none" stroke="#000" stroke-width=".45"/><path d="m10.22 57.61h19.01v13.64h-19.01z" fill="#fff"/><g clip-path="url(#a)"><path d="m10.22 57.61h19.01v13.64h-19.01z" fill="none" stroke="#000" stroke-width=".45"/></g><path d="m10.22 25.88h19.01v13.64h-19.01z" fill="#fff"/><g clip-path="url(#a)"><path d="m10.22 25.88h19.01v13.64h-19.01z" fill="none" stroke="#000" stroke-width=".45"/></g><path d="m10.22 41.74h19.01v13.64h-19.01z" fill="#fff"/><g clip-path="url(#a)"><path d="m10.22 41.74h19.01v13.64h-19.01z" fill="none" stroke="#000" stroke-width=".45"/></g><path d="m10.22 10.01h19.01v13.64h-19.01z" fill="#fff"/><g fill="none" stroke="#000" stroke-width=".45"><g clip-path="url(#a)"><path d="m10.22 10.01h19.01v13.64h-19.01z"/><path d="m53.56 57.61h19.01v13.64h-19.01z"/><path d="m53.56 25.88h19.01v13.64h-19.01z"/><path d="m53.56 41.74h19.01v13.64h-19.01z"/><path d="m53.56 10.01h19.01v13.64h-19.01z"/></g><path d="m31.9 57.61h19.01v13.64h-19.01z"/><path d="m31.9 25.88h19.01v13.64h-19.01z"/><path d="m31.9 41.74h19.01v13.64h-19.01z"/></g><g clip-path="url(#a)"><path d="m31.9 10.01h19.01v13.64h-19.01z" fill="none" stroke="#000" stroke-width=".45"/></g><path d="m10.22 89.34h19.01v13.64h-19.01z" fill="#fff"/><g clip-path="url(#a)" fill="none" stroke="#000" stroke-width=".45"><path d="m10.22 89.34h19.01v13.64h-19.01z"/><path d="m31.9 89.34h19.01v13.64h-19.01z"/></g><path d="m26.28 76.75 2.05-1.19-2.05-1.19z" fill="#231f20"/></svg>