<svg viewBox="0 0 147.8 113" xmlns="http://www.w3.org/2000/svg" xmlns:xlink="http://www.w3.org/1999/xlink"><clipPath id="a"><path d="m10 9.72h127.8v93.56h-127.8z"/></clipPath><path d="m96.49 57.42h41.18v29.92h-41.18z" fill="#969696"/><path d="m10 9.72h62.91v77.82h-62.91z" fill="#e6e6e6"/><path d="m74.84 9.85h62.81v45.82h-62.81z" fill="#c8c8c8"/><g clip-path="url(#a)"><path d="m10.36 73.54h19.01v13.64h-19.01z" fill="none" stroke="#000" stroke-width=".45"/></g><path d="m75.09 73.54h19.01v13.64h-19.01z" fill="#fff"/><path d="m75.09 73.54h19.01v13.64h-19.01z" fill="none" stroke="#000" stroke-width=".45"/><path d="m53.7 73.54h19.01v13.64h-19.01z" fill="none" stroke="#000" stroke-width=".45"/><g clip-path="url(#a)"><path d="m118.43 73.54h19.01v13.64h-19.01z" fill="none" stroke="#000" stroke-width=".45"/></g><path d="m53.7 89.41h19.01v13.64h-19.01z" fill="#fff"/><g clip-path="url(#a)"><path d="m53.7 89.41h19.01v13.64h-19.01z" fill="none" stroke="#000" stroke-width=".45"/></g><path d="m118.43 89.41h19.01v13.64h-19.01z" fill="#fff"/><g clip-path="url(#a)"><path d="m118.43 89.41h19.01v13.64h-19.01z" fill="none" stroke="#000" stroke-width=".45"/></g><path d="m32.03 73.54h19.01v13.64h-19.01z" fill="none" stroke="#000" stroke-width=".45"/><path d="m96.76 73.54h19.01v13.64h-19.01z" fill="none" stroke="#000" stroke-width=".45"/><g clip-path="url(#a)"><path d="m10.36 57.68h19.01v13.64h-19.01z" fill="none" stroke="#000" stroke-width=".45"/></g><path d="m75.09 57.68h19.01v13.64h-19.01z" fill="#fff"/><path d="m75.09 57.68h19.01v13.64h-19.01z" fill="none" stroke="#000" stroke-width=".45"/><g clip-path="url(#a)"><path d="m10.36 25.95h19.01v13.64h-19.01z" fill="none" stroke="#000" stroke-width=".45"/></g><path d="m75.09 25.95h19.01v13.64h-19.01z" fill="none" stroke="#000" stroke-width=".45"/><g clip-path="url(#a)"><path d="m10.36 41.81h19.01v13.64h-19.01z" fill="none" stroke="#000" stroke-width=".45"/></g><path d="m75.09 41.81h19.01v13.64h-19.01z" fill="none" stroke="#000" stroke-width=".45"/><g clip-path="url(#a)" fill="none" stroke="#000" stroke-width=".45"><path d="m10.36 10.08h19.01v13.64h-19.01z"/><path d="m75.09 10.08h19.01v13.64h-19.01z"/></g><path d="m53.7 57.68h19.01v13.64h-19.01z" fill="none" stroke="#000" stroke-width=".45"/><g clip-path="url(#a)"><path d="m118.43 57.68h19.01v13.64h-19.01z" fill="none" stroke="#000" stroke-width=".45"/></g><path d="m53.7 25.95h19.01v13.64h-19.01z" fill="none" stroke="#000" stroke-width=".45"/><g clip-path="url(#a)"><path d="m118.43 25.95h19.01v13.64h-19.01z" fill="none" stroke="#000" stroke-width=".45"/></g><g fill="none" stroke="#000" stroke-width=".45"><path d="m53.7 41.81h19.01v13.64h-19.01z"/><g clip-path="url(#a)"><path d="m118.43 41.81h19.01v13.64h-19.01z"/><path d="m53.7 10.08h19.01v13.64h-19.01z"/><path d="m118.43 10.08h19.01v13.64h-19.01z"/></g><path d="m32.03 57.68h19.01v13.64h-19.01z"/><path d="m96.76 57.68h19.01v13.64h-19.01z"/><path d="m32.03 25.95h19.01v13.64h-19.01z"/><path d="m96.76 25.95h19.01v13.64h-19.01z"/><path d="m32.03 41.81h19.01v13.64h-19.01z"/><path d="m96.76 41.81h19.01v13.64h-19.01z"/><g clip-path="url(#a)"><path d="m32.03 10.08h19.01v13.64h-19.01z"/><path d="m96.76 10.08h19.01v13.64h-19.01z"/></g></g><path d="m10.36 89.41h19v13.64h-19z" fill="#fff"/><g clip-path="url(#a)"><path d="m10.36 89.41h19.01v13.64h-19.01z" fill="none" stroke="#000" stroke-width=".45"/></g><path d="m75.09 89.41h19.01v13.64h-19.01z" fill="#fff"/><g clip-path="url(#a)"><path d="m75.09 89.41h19.01v13.64h-19.01z" fill="none" stroke="#000" stroke-width=".45"/></g><path d="m32.03 89.41h19v13.64h-19z" fill="#fff"/><g clip-path="url(#a)"><path d="m32.03 89.41h19.01v13.64h-19.01z" fill="none" stroke="#000" stroke-width=".45"/></g><path d="m96.76 89.41h19.01v13.64h-19.01z" fill="#fff"/><g clip-path="url(#a)"><path d="m96.76 89.41h19.01v13.64h-19.01z" fill="none" stroke="#000" stroke-width=".45"/></g><path d="m28.59 92.37-1.18-2.06-1.19 2.06z" fill="#231f20"/></svg>