<svg viewBox="0 0 104.39 113" xmlns="http://www.w3.org/2000/svg" xmlns:xlink="http://www.w3.org/1999/xlink"><clipPath id="a"><path d="m10 41.39h84.39v30.23h-84.39z"/></clipPath><path d="m74.8 41.39h19.46v30.23h-19.46z" fill="#c8c8c8"/><path d="m31.45 41.51h41.13v29.99h-41.13z" fill="#e6e6e6"/><g clip-path="url(#a)" fill="none" stroke="#000" stroke-width=".45"><path d="m31.68 57.61h19.01v13.64h-19.01z"/><path d="m53.35 57.61h19.01v13.64h-19.01z"/><path d="m75.03 57.61h19.01v13.64h-19.01z"/></g><path d="m10.23 57.61h19.01v13.64h-19.01z" fill="#fff"/><g clip-path="url(#a)"><path d="m10.23 57.61h19.01v13.64h-19.01z" fill="none" stroke="#000" stroke-width=".45"/></g><g fill="none" stroke="#000" stroke-width=".45"><path d="m31.68 41.74h19.01v13.64h-19.01z"/><path d="m53.35 41.74h19.01v13.64h-19.01z"/><path d="m75.03 41.74h19.01v13.64h-19.01z"/></g><path d="m10.23 41.75h19.01v13.64h-19.01z" fill="#fff"/><g clip-path="url(#a)"><path d="m10.23 41.74h19.01v13.64h-19.01z" fill="none" stroke="#000" stroke-width=".45"/></g><path d="m26.28 45.43 2.05-1.18-2.05-1.19z" fill="#231f20"/></svg>