<svg viewBox="0 0 104.6 113" xmlns="http://www.w3.org/2000/svg" xmlns:xlink="http://www.w3.org/1999/xlink"><clipPath id="a"><path d="m20.76 41.39h63.07v30.23h-63.07z"/></clipPath><path d="m64.24 41.52h19.47v29.98h-19.47z" fill="#c8c8c8"/><path d="m42.72 41.67h19.09v13.83h-19.09z" fill="#e6e6e6"/><path d="m42.8 57.61h19.01v13.64h-19.01z" fill="#fff"/><g fill="none" stroke="#000" stroke-width=".45"><g clip-path="url(#a)"><path d="m42.8 57.61h19.01v13.64h-19.01z"/><path d="m64.47 57.61h19.01v13.64h-19.01z"/></g><path d="m42.8 41.74h19.01v13.64h-19.01z"/><path d="m64.47 41.74h19.01v13.64h-19.01z"/></g><path d="m20.99 57.61h19v13.64h-19z" fill="#fff"/><g clip-path="url(#a)"><path d="m20.99 57.61h19.01v13.64h-19.01z" fill="none" stroke="#000" stroke-width=".45"/></g><path d="m20.99 41.75h19v13.64h-19z" fill="#fff"/><g clip-path="url(#a)"><path d="m20.99 41.74h19.01v13.64h-19.01z" fill="none" stroke="#000" stroke-width=".45"/></g><path d="m37.04 45.01 2.06-1.18-2.06-1.19z" fill="#231f20"/></svg>