<svg viewBox="0 0 61.39 113" xmlns="http://www.w3.org/2000/svg" xmlns:xlink="http://www.w3.org/1999/xlink"><clipPath id="a"><path d="m10.07 33.34h41.26v46.32h-41.26z"/></clipPath><path d="m31.74 49.44h19.44v30.23h-19.44z" fill="#c8c8c8"/><path d="m31.6 33.34h19.72v14.36h-19.72z" fill="#e6e6e6"/><path d="m10.29 49.56h19.01v13.64h-19.01z" fill="#fff"/><g clip-path="url(#a)"><path d="m10.29 49.56h19.01v13.64h-19.01z" fill="none" stroke="#000" stroke-width=".45"/></g><path d="m31.96 49.56h19.01v13.64h-19.01z" fill="none" stroke="#000" stroke-width=".45"/><path d="m10.29 33.7h19.01v13.64h-19.01z" fill="#fff"/><g clip-path="url(#a)"><path d="m10.29 33.7h19.01v13.64h-19.01z" fill="none" stroke="#000" stroke-width=".45"/></g><path d="m31.96 33.7h19.01v13.64h-19.01z" fill="none" stroke="#000" stroke-width=".45"/><path d="m10.29 65.43h19.01v13.64h-19.01z" fill="#fff"/><g clip-path="url(#a)" fill="none" stroke="#000" stroke-width=".45"><path d="m10.29 65.43h19.01v13.64h-19.01z"/><path d="m31.96 65.43h19.01v13.64h-19.01z"/></g><path d="m26.34 52.71 2.06-1.19-2.06-1.18z" fill="#231f20"/></svg>