<svg viewBox="0 0 82.96 113" xmlns="http://www.w3.org/2000/svg" xmlns:xlink="http://www.w3.org/1999/xlink"><clipPath id="a"><path d="m10 25.52h62.96v61.96h-62.96z"/></clipPath><path d="m31.68 57.62h19.44v29.7h-19.44z" fill="#c8c8c8"/><path d="m31.66 25.65h41.17v29.97h-41.17z" fill="#e6e6e6"/><path d="m10.22 57.61h19.01v13.64h-19.01z" fill="#fff"/><g clip-path="url(#a)"><path d="m10.22 57.61h19.01v13.64h-19.01z" fill="none" stroke="#000" stroke-width=".45"/></g><path d="m31.9 57.61h19.01v13.64h-19.01z" fill="none" stroke="#000" stroke-width=".45"/><path d="m53.59 57.61h19.01v13.64h-19.01z" fill="#fff"/><g clip-path="url(#a)"><path d="m53.59 57.61h19.01v13.64h-19.01z" fill="none" stroke="#000" stroke-width=".45"/></g><path d="m10.22 41.75h19.01v13.64h-19.01z" fill="#fff"/><g clip-path="url(#a)"><path d="m10.22 41.75h19.01v13.64h-19.01z" fill="none" stroke="#000" stroke-width=".45"/></g><path d="m10.22 25.88h19.01v13.64h-19.01z" fill="#fff"/><g clip-path="url(#a)"><path d="m10.22 25.88h19.01v13.64h-19.01z" fill="none" stroke="#000" stroke-width=".45"/></g><path d="m31.9 41.75h19.01v13.64h-19.01z" fill="none" stroke="#000" stroke-width=".45"/><g clip-path="url(#a)" fill="none" stroke="#000" stroke-width=".45"><path d="m53.59 41.75h19.01v13.64h-19.01z"/><path d="m31.9 25.88h19.01v13.64h-19.01z"/><path d="m53.59 25.88h19.01v13.64h-19.01z"/></g><path d="m10.22 73.48h19.01v13.64h-19.01z" fill="#fff"/><g clip-path="url(#a)" fill="none" stroke="#000" stroke-width=".45"><path d="m10.22 73.48h19.01v13.64h-19.01z"/><path d="m31.9 73.48h19.01v13.64h-19.01z"/></g><path d="m53.59 73.48h19.01v13.64h-19.01z" fill="#fff"/><g clip-path="url(#a)"><path d="m53.59 73.48h19.01v13.64h-19.01z" fill="none" stroke="#000" stroke-width=".45"/></g><path d="m25.09 61.82 2.05-1.18-2.05-1.19z" fill="#231f20"/></svg>