<svg viewBox="0 0 104.64 113" xmlns="http://www.w3.org/2000/svg" xmlns:xlink="http://www.w3.org/1999/xlink"><clipPath id="a"><path d="m10 25.59h84.64v61.82h-84.64z"/></clipPath><path d="m53.58 25.71h40.96v45.85h-40.96z" fill="#c8c8c8"/><path d="m10.22 25.71h41.13v29.99h-41.13z" fill="#e6e6e6"/><path d="m10.45 57.68h19.01v13.64h-19.01z" fill="#fff"/><g clip-path="url(#a)"><path d="m10.45 57.68h19.01v13.64h-19.01z" fill="none" stroke="#000" stroke-width=".45"/></g><path d="m53.79 57.68h19.01v13.64h-19.01z" fill="none" stroke="#000" stroke-width=".45"/><g clip-path="url(#a)"><path d="m75.28 57.68h19.01v13.64h-19.01z" fill="none" stroke="#000" stroke-width=".45"/></g><path d="m53.79 73.54h19.01v13.64h-19.01z" fill="#fff"/><g clip-path="url(#a)"><path d="m53.79 73.54h19.01v13.64h-19.01z" fill="none" stroke="#000" stroke-width=".45"/></g><path d="m75.28 73.54h19.01v13.64h-19.01z" fill="#fff"/><g clip-path="url(#a)"><path d="m75.28 73.54h19.01v13.64h-19.01z" fill="none" stroke="#000" stroke-width=".45"/></g><path d="m32.12 57.68h19.01v13.64h-19.01z" fill="#fff"/><g fill="none" stroke="#000" stroke-width=".45"><path d="m32.12 57.68h19.01v13.64h-19.01z"/><g clip-path="url(#a)"><path d="m10.45 41.81h19.01v13.64h-19.01z"/><path d="m10.45 25.95h19.01v13.64h-19.01z"/></g><path d="m53.79 41.81h19.01v13.64h-19.01z"/><g clip-path="url(#a)"><path d="m75.28 41.81h19.01v13.64h-19.01z"/><path d="m53.79 25.95h19.01v13.64h-19.01z"/><path d="m75.28 25.95h19.01v13.64h-19.01z"/></g><path d="m32.12 41.81h19.01v13.64h-19.01z"/></g><g clip-path="url(#a)"><path d="m32.12 25.95h19.01v13.64h-19.01z" fill="none" stroke="#000" stroke-width=".45"/></g><path d="m10.45 73.54h19.01v13.64h-19.01z" fill="#fff"/><g clip-path="url(#a)"><path d="m10.45 73.54h19.01v13.64h-19.01z" fill="none" stroke="#000" stroke-width=".45"/></g><path d="m32.12 73.54h19.01v13.64h-19.01z" fill="#fff"/><g clip-path="url(#a)"><path d="m32.12 73.54h19.01v13.64h-19.01z" fill="none" stroke="#000" stroke-width=".45"/></g><path d="m27.53 76.5-1.19-2.05-1.18 2.05z" fill="#231f20"/></svg>