<svg viewBox="0 0 61.39 113" xmlns="http://www.w3.org/2000/svg" xmlns:xlink="http://www.w3.org/1999/xlink"><clipPath id="a"><path d="m10 17.66h41.39v77.69h-41.39z"/></clipPath><path d="m10 49.39h19.72v30.23h-19.72z" fill="#c8c8c8"/><path d="m10.14 17.78h41.12v29.98h-41.12z" fill="#e6e6e6"/><path d="m32.03 65.61h19v13.64h-19z" fill="#fff"/><path d="m32.03 65.61h19.01v13.64h-19.01z" fill="none" stroke="#000" stroke-width=".45"/><path d="m32.03 81.48h19v13.64h-19z" fill="#fff"/><g clip-path="url(#a)" fill="none" stroke="#000" stroke-width=".45"><path d="m32.03 81.48h19.01v13.64h-19.01z"/><path d="m10.36 65.61h19.01v13.64h-19.01z"/></g><path d="m32.03 49.74h19v13.64h-19z" fill="#fff"/><path d="m32.03 49.74h19.01v13.64h-19.01z" fill="none" stroke="#000" stroke-width=".45"/><g clip-path="url(#a)"><path d="m32.03 18.01h19.01v13.64h-19.01z" fill="none" stroke="#000" stroke-width=".45"/></g><path d="m32.03 33.88h19.01v13.64h-19.01z" fill="none" stroke="#000" stroke-width=".45"/><g clip-path="url(#a)" fill="none" stroke="#000" stroke-width=".45"><path d="m10.36 49.74h19.01v13.64h-19.01z"/><path d="m10.36 18.01h19.01v13.64h-19.01z"/><path d="m10.36 33.88h19.01v13.64h-19.01z"/></g><path d="m10.36 81.48h19v13.64h-19z" fill="#fff"/><g clip-path="url(#a)"><path d="m10.36 81.48h19.01v13.64h-19.01z" fill="none" stroke="#000" stroke-width=".45"/></g><path d="m28.47 84.43-1.19-2.05-1.19 2.05z" fill="#231f20"/></svg>