<svg viewBox="0 0 104.6 113" xmlns="http://www.w3.org/2000/svg" xmlns:xlink="http://www.w3.org/1999/xlink"><clipPath id="a"><path d="m10 9.66h84.6v93.69h-84.6z"/></clipPath><path d="m31.66 57.37h41.14v45.85h-41.14z" fill="#c8c8c8"/><path d="m31.68 9.79h62.8v45.83h-62.8z" fill="#e6e6e6"/><path d="m10.23 73.48h19v13.64h-19z" fill="#fff"/><g clip-path="url(#a)"><path d="m10.23 73.48h19.01v13.64h-19.01z" fill="none" stroke="#000" stroke-width=".45"/></g><path d="m53.56 73.48h19.01v13.64h-19.01z" fill="none" stroke="#000" stroke-width=".45"/><g clip-path="url(#a)"><path d="m53.56 89.34h19.01v13.64h-19.01z" fill="none" stroke="#000" stroke-width=".45"/></g><path d="m31.9 73.48h19.01v13.64h-19.01z" fill="none" stroke="#000" stroke-width=".45"/><path d="m10.23 57.61h19v13.64h-19z" fill="#fff"/><g clip-path="url(#a)"><path d="m10.23 57.61h19.01v13.64h-19.01z" fill="none" stroke="#000" stroke-width=".45"/></g><path d="m75.24 57.61h19.01v13.64h-19.01z" fill="#fff"/><g clip-path="url(#a)"><path d="m75.24 57.61h19.01v13.64h-19.01z" fill="none" stroke="#000" stroke-width=".45"/></g><path d="m75.24 73.48h19.01v13.64h-19.01z" fill="#fff"/><g clip-path="url(#a)"><path d="m75.24 73.48h19.01v13.64h-19.01z" fill="none" stroke="#000" stroke-width=".45"/></g><path d="m75.24 89.34h19.01v13.64h-19.01z" fill="#fff"/><g clip-path="url(#a)"><path d="m75.24 89.34h19.01v13.64h-19.01z" fill="none" stroke="#000" stroke-width=".45"/></g><path d="m10.23 25.88h19v13.64h-19z" fill="#fff"/><g clip-path="url(#a)" fill="none" stroke="#000" stroke-width=".45"><path d="m10.23 25.88h19.01v13.64h-19.01z"/><path d="m75.24 25.88h19.01v13.64h-19.01z"/></g><path d="m10.23 41.74h19v13.64h-19z" fill="#fff"/><g clip-path="url(#a)" fill="none" stroke="#000" stroke-width=".45"><path d="m10.23 41.74h19.01v13.64h-19.01z"/><path d="m75.24 41.74h19.01v13.64h-19.01z"/></g><path d="m10.23 10.01h19v13.64h-19z" fill="#fff"/><g fill="none" stroke="#000" stroke-width=".45"><g clip-path="url(#a)"><path d="m10.23 10.01h19.01v13.64h-19.01z"/><path d="m75.24 10.01h19.01v13.64h-19.01z"/></g><path d="m53.56 57.61h19.01v13.64h-19.01z"/><path d="m53.56 25.88h19.01v13.64h-19.01z"/><path d="m53.56 41.74h19.01v13.64h-19.01z"/></g><g clip-path="url(#a)"><path d="m53.56 10.01h19.01v13.64h-19.01z" fill="none" stroke="#000" stroke-width=".45"/></g><g fill="none" stroke="#000" stroke-width=".45"><path d="m31.9 57.61h19.01v13.64h-19.01z"/><path d="m31.9 25.88h19.01v13.64h-19.01z"/><path d="m31.9 41.74h19.01v13.64h-19.01z"/></g><g clip-path="url(#a)"><path d="m31.9 10.01h19.01v13.64h-19.01z" fill="none" stroke="#000" stroke-width=".45"/></g><path d="m10.23 89.34h19v13.64h-19z" fill="#fff"/><g clip-path="url(#a)" fill="none" stroke="#000" stroke-width=".45"><path d="m10.23 89.34h19.01v13.64h-19.01z"/><path d="m31.9 89.34h19.01v13.64h-19.01z"/></g><path d="m26.25 76.75 2.05-1.19-2.05-1.19z" fill="#231f20"/></svg>