<svg viewBox="0 0 169.74 113" xmlns="http://www.w3.org/2000/svg" xmlns:xlink="http://www.w3.org/1999/xlink"><clipPath id="a"><path d="m10 9.72h149.74v93.56h-149.74z"/></clipPath><path d="m96.8 9.85h62.8v77.56h-62.8z" fill="#c8c8c8"/><path d="m10.14 9.86h84.47v61.7h-84.47z" fill="#e6e6e6"/><path d="m10.36 73.54h19v13.64h-19z" fill="#fff"/><g clip-path="url(#a)"><path d="m10.36 73.54h19.01v13.64h-19.01z" fill="none" stroke="#000" stroke-width=".45"/></g><path d="m97.04 73.54h19.01v13.64h-19.01z" fill="none" stroke="#000" stroke-width=".45"/><path d="m53.7 73.54h19.01v13.64h-19.01z" fill="#fff"/><path d="m53.7 73.54h19.01v13.64h-19.01z" fill="none" stroke="#000" stroke-width=".45"/><g clip-path="url(#a)"><path d="m140.38 73.54h19.01v13.64h-19.01z" fill="none" stroke="#000" stroke-width=".45"/></g><path d="m53.7 89.41h19.01v13.64h-19.01z" fill="#fff"/><g clip-path="url(#a)"><path d="m53.7 89.41h19.01v13.64h-19.01z" fill="none" stroke="#000" stroke-width=".45"/></g><path d="m140.38 89.41h19.01v13.64h-19.01z" fill="#fff"/><g clip-path="url(#a)"><path d="m140.38 89.41h19.01v13.64h-19.01z" fill="none" stroke="#000" stroke-width=".45"/></g><path d="m32.03 73.54h19.01v13.64h-19.01z" fill="#fff"/><path d="m32.03 73.54h19.01v13.64h-19.01z" fill="none" stroke="#000" stroke-width=".45"/><path d="m118.71 73.54h19.01v13.64h-19.01z" fill="none" stroke="#000" stroke-width=".45"/><g clip-path="url(#a)"><path d="m10.36 57.68h19.01v13.64h-19.01z" fill="none" stroke="#000" stroke-width=".45"/></g><path d="m97.04 57.68h19.01v13.64h-19.01z" fill="none" stroke="#000" stroke-width=".45"/><path d="m75.37 57.68h19.01v13.64h-19.01z" fill="none" stroke="#000" stroke-width=".45"/><path d="m75.37 73.54h19.01v13.64h-19.01z" fill="#fff"/><path d="m75.37 73.54h19.01v13.64h-19.01z" fill="none" stroke="#000" stroke-width=".45"/><path d="m75.37 89.41h19v13.64h-19z" fill="#fff"/><g clip-path="url(#a)" fill="none" stroke="#000" stroke-width=".45"><path d="m75.37 89.41h19.01v13.64h-19.01z"/><path d="m10.36 25.95h19.01v13.64h-19.01z"/></g><path d="m97.04 25.95h19.01v13.64h-19.01z" fill="none" stroke="#000" stroke-width=".45"/><path d="m75.37 25.95h19.01v13.64h-19.01z" fill="none" stroke="#000" stroke-width=".45"/><g clip-path="url(#a)"><path d="m10.36 41.81h19.01v13.64h-19.01z" fill="none" stroke="#000" stroke-width=".45"/></g><path d="m97.04 41.81h19.01v13.64h-19.01z" fill="none" stroke="#000" stroke-width=".45"/><path d="m75.37 41.81h19.01v13.64h-19.01z" fill="none" stroke="#000" stroke-width=".45"/><g clip-path="url(#a)" fill="none" stroke="#000" stroke-width=".45"><path d="m10.36 10.08h19.01v13.64h-19.01z"/><path d="m97.04 10.08h19.01v13.64h-19.01z"/><path d="m75.37 10.08h19.01v13.64h-19.01z"/></g><path d="m53.7 57.68h19.01v13.64h-19.01z" fill="none" stroke="#000" stroke-width=".45"/><g clip-path="url(#a)"><path d="m140.38 57.68h19.01v13.64h-19.01z" fill="none" stroke="#000" stroke-width=".45"/></g><path d="m53.7 25.95h19.01v13.64h-19.01z" fill="none" stroke="#000" stroke-width=".45"/><g clip-path="url(#a)"><path d="m140.38 25.95h19.01v13.64h-19.01z" fill="none" stroke="#000" stroke-width=".45"/></g><g fill="none" stroke="#000" stroke-width=".45"><path d="m53.7 41.81h19.01v13.64h-19.01z"/><g clip-path="url(#a)"><path d="m140.38 41.81h19.01v13.64h-19.01z"/><path d="m53.7 10.08h19.01v13.64h-19.01z"/><path d="m140.38 10.08h19.01v13.64h-19.01z"/></g><path d="m32.03 57.68h19.01v13.64h-19.01z"/><path d="m118.71 57.68h19.01v13.64h-19.01z"/><path d="m32.03 25.95h19.01v13.64h-19.01z"/><path d="m118.71 25.95h19.01v13.64h-19.01z"/><path d="m32.03 41.81h19.01v13.64h-19.01z"/><path d="m118.71 41.81h19.01v13.64h-19.01z"/><g clip-path="url(#a)"><path d="m32.03 10.08h19.01v13.64h-19.01z"/><path d="m118.71 10.08h19.01v13.64h-19.01z"/></g></g><path d="m10.36 89.41h19v13.64h-19z" fill="#fff"/><g clip-path="url(#a)"><path d="m10.36 89.41h19.01v13.64h-19.01z" fill="none" stroke="#000" stroke-width=".45"/></g><path d="m97.04 89.41h19v13.64h-19z" fill="#fff"/><g clip-path="url(#a)"><path d="m97.04 89.41h19.01v13.64h-19.01z" fill="none" stroke="#000" stroke-width=".45"/></g><path d="m32.03 89.41h19v13.64h-19z" fill="#fff"/><g clip-path="url(#a)"><path d="m32.03 89.41h19.01v13.64h-19.01z" fill="none" stroke="#000" stroke-width=".45"/></g><path d="m118.71 89.41h19v13.64h-19z" fill="#fff"/><g clip-path="url(#a)"><path d="m118.71 89.41h19.01v13.64h-19.01z" fill="none" stroke="#000" stroke-width=".45"/></g><path d="m28.59 92.37-1.18-2.06-1.19 2.06z" fill="#231f20"/></svg>