<svg viewBox="0 0 126.14 113" xmlns="http://www.w3.org/2000/svg" xmlns:xlink="http://www.w3.org/1999/xlink"><clipPath id="a"><path d="m10 49.32h106.14v14.36h-106.14z"/></clipPath><path d="m75.05 49.45h19.37v14.1h-19.37z" fill="#c8c8c8"/><path d="m53.36 49.53h9.71v13.85h-9.71z" fill="#e6e6e6"/><path d="m96.72 49.57h9.51v13.85h-9.51z" fill="#969696"/><path d="m10.22 49.68h19.01v13.64h-19.01z" fill="#fff"/><g clip-path="url(#a)"><path d="m10.22 49.68h19.01v13.64h-19.01z" fill="none" stroke="#000" stroke-width=".45"/></g><path d="m31.89 49.68h19.01v13.64h-19.01z" fill="#fff"/><g clip-path="url(#a)" fill="none" stroke="#000" stroke-width=".45"><path d="m31.89 49.68h19.01v13.64h-19.01z"/><path d="m53.56 49.68h19.01v13.64h-19.01z"/><path d="m75.24 49.68h19.01v13.64h-19.01z"/><path d="m96.91 49.68h19.01v13.64h-19.01z"/></g><path d="m25.94 53.02 2.06-1.19-2.06-1.18z" fill="#231f20"/></svg>