<svg viewBox="0 0 105.28 113" xmlns="http://www.w3.org/2000/svg" xmlns:xlink="http://www.w3.org/1999/xlink"><clipPath id="a"><path d="m10.31 41.49h84.66v30.23h-84.66z"/></clipPath><path d="m75.36 41.61h19.44v29.96h-19.44z" fill="#969696"/><path d="m32 41.62h19.5v29.94h-19.5z" fill="#c8c8c8"/><path d="m53.95 41.73h19.02v13.89h-19.02z" fill="#e6e6e6"/><g clip-path="url(#a)"><path d="m32.26 57.71h19.01v13.64h-19.01z" fill="none" stroke="#000" stroke-width=".45"/></g><path d="m10.54 57.71h19v13.64h-19z" fill="#fff"/><g clip-path="url(#a)" fill="none" stroke="#000" stroke-width=".45"><path d="m10.54 57.71h19.01v13.64h-19.01z"/><path d="m53.93 57.71h19.01v13.64h-19.01z"/><path d="m75.6 57.71h19.01v13.64h-19.01z"/></g><path d="m32.26 41.85h19.01v13.64h-19.01z" fill="none" stroke="#000" stroke-width=".45"/><path d="m10.54 41.85h19v13.64h-19z" fill="#fff"/><g clip-path="url(#a)"><path d="m10.54 41.85h19.01v13.64h-19.01z" fill="none" stroke="#000" stroke-width=".45"/></g><path d="m53.93 41.85h19.01v13.64h-19.01z" fill="none" stroke="#000" stroke-width=".45"/><g clip-path="url(#a)"><path d="m75.6 41.85h19.01v13.64h-19.01z" fill="none" stroke="#000" stroke-width=".45"/></g><path d="m26.43 45.12 2.05-1.19-2.05-1.19z" fill="#231f20"/></svg>