<svg viewBox="0 0 126 113" xmlns="http://www.w3.org/2000/svg" xmlns:xlink="http://www.w3.org/1999/xlink"><clipPath id="a"><path d="m10 41.39h106v30.23h-106z"/></clipPath><path d="m96.4 41.52h19.46v29.93h-19.46z" fill="#969696"/><path d="m31.39 41.51h19.47v30.1h-19.47z" fill="#c8c8c8"/><path d="m53.06 41.51h41.13v29.86h-41.13z" fill="#e6e6e6"/><g clip-path="url(#a)"><path d="m31.62 57.61h19.01v13.64h-19.01z" fill="none" stroke="#000" stroke-width=".45"/></g><path d="m10.22 57.61h19.01v13.64h-19.01z" fill="#fff"/><g clip-path="url(#a)" fill="none" stroke="#000" stroke-width=".45"><path d="m10.22 57.61h19.01v13.64h-19.01z"/><path d="m53.29 57.61h19.01v13.64h-19.01z"/><path d="m74.96 57.61h19.01v13.64h-19.01z"/><path d="m96.63 57.61h19.01v13.64h-19.01z"/></g><path d="m31.62 41.74h19.01v13.64h-19.01z" fill="none" stroke="#000" stroke-width=".45"/><path d="m10.22 41.75h19.01v13.64h-19.01z" fill="#fff"/><g clip-path="url(#a)"><path d="m10.22 41.74h19.01v13.64h-19.01z" fill="none" stroke="#000" stroke-width=".45"/></g><path d="m53.29 41.74h19.01v13.64h-19.01z" fill="none" stroke="#000" stroke-width=".45"/><path d="m74.96 41.74h19.01v13.64h-19.01z" fill="none" stroke="#000" stroke-width=".45"/><g clip-path="url(#a)"><path d="m96.63 41.74h19.01v13.64h-19.01z" fill="none" stroke="#000" stroke-width=".45"/></g><path d="m26.28 45.01 2.05-1.18-2.05-1.19z" fill="#231f20"/></svg>