<svg viewBox="0 0 126.15 113" xmlns="http://www.w3.org/2000/svg" xmlns:xlink="http://www.w3.org/1999/xlink"><clipPath id="a"><path d="m10 33.34h106.15v46.32h-106.15z"/></clipPath><path d="m96.75 33.8h19.08v13.89h-19.08z" fill="#969696"/><path d="m31.59 33.68h41.1v45.84h-41.1z" fill="#c8c8c8"/><path d="m74.89 33.68h19.48v29.96h-19.48z" fill="#e6e6e6"/><path d="m53.45 49.79h19.01v13.64h-19.01z" fill="none" stroke="#000" stroke-width=".45"/><path d="m31.83 49.79h19.01v13.64h-19.01z" fill="none" stroke="#000" stroke-width=".45"/><path d="m75.12 49.79h19.01v13.64h-19.01z" fill="none" stroke="#000" stroke-width=".45"/><path d="m96.79 49.79h19.01v13.64h-19.01z" fill="none" stroke="#000" stroke-width=".45"/><g clip-path="url(#a)"><path d="m10.23 49.79h19.01v13.64h-19.01z" fill="none" stroke="#000" stroke-width=".45"/></g><g fill="none" stroke="#000" stroke-width=".45"><path d="m53.45 33.93h19.01v13.64h-19.01z"/><path d="m31.83 33.93h19.01v13.64h-19.01z"/><path d="m75.12 33.93h19.01v13.64h-19.01z"/><path d="m96.79 33.93h19.01v13.64h-19.01z"/><g clip-path="url(#a)"><path d="m10.23 33.93h19.01v13.64h-19.01z"/><path d="m53.45 65.66h19.01v13.64h-19.01z"/><path d="m31.83 65.66h19.01v13.64h-19.01z"/><path d="m75.12 65.66h19.01v13.64h-19.01z"/><path d="m96.79 65.66h19.01v13.64h-19.01z"/></g></g><path d="m10.23 65.66h19.01v13.64h-19.01z" fill="#fff"/><g clip-path="url(#a)"><path d="m10.23 65.66h19.01v13.64h-19.01z" fill="none" stroke="#000" stroke-width=".45"/></g><path d="m26.12 52.9 2.05-1.18-2.05-1.19z" fill="#231f20"/></svg>