<svg viewBox="0 0 147.68 113" xmlns="http://www.w3.org/2000/svg" xmlns:xlink="http://www.w3.org/1999/xlink"><clipPath id="a"><path d="m9.87 25.59h127.94v61.82h-127.94z"/></clipPath><path d="m10.08 25.67h41.15v45.89h-41.15z" fill="#c8c8c8"/><path d="m96.7 25.68h40.99v45.85h-40.99z" fill="#969696"/><path d="m53.43 25.69h40.97v30.02h-40.97z" fill="#e6e6e6"/><g clip-path="url(#a)"><path d="m10.34 57.68h19.01v13.64h-19.01z" fill="none" stroke="#000" stroke-width=".45"/></g><path d="m53.68 57.68h19.01v13.64h-19.01z" fill="none" stroke="#000" stroke-width=".45"/><path d="m96.96 57.68h19.01v13.64h-19.01z" fill="none" stroke="#000" stroke-width=".45"/><path d="m75.17 57.68h19.01v13.64h-19.01z" fill="none" stroke="#000" stroke-width=".45"/><g clip-path="url(#a)"><path d="m118.44 57.68h19.01v13.64h-19.01z" fill="none" stroke="#000" stroke-width=".45"/></g><path d="m53.68 73.54h19.01v13.64h-19.01z" fill="#fff"/><g clip-path="url(#a)"><path d="m53.68 73.54h19.01v13.64h-19.01z" fill="none" stroke="#000" stroke-width=".45"/></g><path d="m96.96 73.54h19v13.64h-19z" fill="#fff"/><g clip-path="url(#a)"><path d="m96.96 73.54h19.01v13.64h-19.01z" fill="none" stroke="#000" stroke-width=".45"/></g><path d="m75.17 73.54h19v13.64h-19z" fill="#fff"/><g clip-path="url(#a)"><path d="m75.17 73.54h19.01v13.64h-19.01z" fill="none" stroke="#000" stroke-width=".45"/></g><path d="m118.44 73.54h19v13.64h-19z" fill="#fff"/><g clip-path="url(#a)"><path d="m118.44 73.54h19.01v13.64h-19.01z" fill="none" stroke="#000" stroke-width=".45"/></g><g fill="none" stroke="#000" stroke-width=".45"><path d="m32.01 57.68h19.01v13.64h-19.01z"/><g clip-path="url(#a)"><path d="m10.34 41.81h19.01v13.64h-19.01z"/><path d="m10.34 25.95h19.01v13.64h-19.01z"/></g><path d="m53.68 41.81h19.01v13.64h-19.01z"/><path d="m96.96 41.81h19.01v13.64h-19.01z"/><path d="m75.17 41.81h19.01v13.64h-19.01z"/><g clip-path="url(#a)"><path d="m118.44 41.81h19.01v13.64h-19.01z"/><path d="m53.68 25.95h19.01v13.64h-19.01z"/><path d="m96.96 25.95h19.01v13.64h-19.01z"/><path d="m75.17 25.95h19.01v13.64h-19.01z"/><path d="m118.44 25.95h19.01v13.64h-19.01z"/></g><path d="m32.01 41.81h19.01v13.64h-19.01z"/></g><g clip-path="url(#a)"><path d="m32.01 25.95h19.01v13.64h-19.01z" fill="none" stroke="#000" stroke-width=".45"/></g><path d="m10.34 73.54h19.01v13.64h-19.01z" fill="#fff"/><g clip-path="url(#a)"><path d="m10.34 73.54h19.01v13.64h-19.01z" fill="none" stroke="#000" stroke-width=".45"/></g><path d="m32.01 73.54h19.01v13.64h-19.01z" fill="#fff"/><g clip-path="url(#a)"><path d="m32.01 73.54h19.01v13.64h-19.01z" fill="none" stroke="#000" stroke-width=".45"/></g><path d="m27.42 76.5-1.18-2.05-1.19 2.05z" fill="#231f20"/></svg>