<svg viewBox="0 0 168.65 113" xmlns="http://www.w3.org/2000/svg" xmlns:xlink="http://www.w3.org/1999/xlink"><clipPath id="a"><path d="m7.78 25.56h148.65v61.87h-148.65z"/></clipPath><path d="m24.05 61.77 2.06-1.19-2.06-1.19z" fill="#231f20"/><path d="m115.81 25.68h40.49v29.96h-40.49z" fill="#969696"/><path d="m72.76 25.67h40.89v45.88h-40.89z" fill="#c8c8c8"/><path d="m29.42 25.66h41.18v61.74h-41.18z" fill="#e6e6e6"/><g fill="none" stroke="#000" stroke-width=".45"><g clip-path="url(#a)"><path d="m94.42 73.52h19.01v13.64h-19.01z"/><path d="m51.34 73.52h19.01v13.64h-19.01z"/><path d="m29.67 73.52h19.01v13.64h-19.01z"/><path d="m8 73.52h19.01v13.64h-19.01z"/><path d="m116.09 73.52h19.01v13.64h-19.01z"/><path d="m137.06 73.52h19.01v13.64h-19.01z"/></g><path d="m94.42 57.65h19.01v13.64h-19.01z"/><path d="m73.01 57.65h19.01v13.64h-19.01z"/><g clip-path="url(#a)"><path d="m73.01 73.52h19.01v13.64h-19.01z"/><path d="m94.42 25.92h19.01v13.64h-19.01z"/><path d="m73.01 25.92h19.01v13.64h-19.01z"/></g><path d="m94.42 41.79h19.01v13.64h-19.01z"/><path d="m73.01 41.79h19.01v13.64h-19.01z"/><path d="m51.34 57.65h19.01v13.64h-19.01z"/></g><g clip-path="url(#a)"><path d="m51.34 25.92h19.01v13.64h-19.01z" fill="none" stroke="#000" stroke-width=".45"/></g><path d="m51.34 41.79h19.01v13.64h-19.01z" fill="none" stroke="#000" stroke-width=".45"/><path d="m29.67 57.65h19.01v13.64h-19.01z" fill="none" stroke="#000" stroke-width=".45"/><g clip-path="url(#a)"><path d="m8 57.65h19.01v13.64h-19.01z" fill="none" stroke="#000" stroke-width=".45"/></g><path d="m116.09 57.65h19.01v13.64h-19.01z" fill="none" stroke="#000" stroke-width=".45"/><g clip-path="url(#a)" fill="none" stroke="#000" stroke-width=".45"><path d="m137.06 57.65h19.01v13.64h-19.01z"/><path d="m29.67 25.92h19.01v13.64h-19.01z"/><path d="m8 25.92h19.01v13.64h-19.01z"/><path d="m116.09 25.92h19.01v13.64h-19.01z"/><path d="m137.06 25.92h19.01v13.64h-19.01z"/></g><path d="m29.67 41.79h19.01v13.64h-19.01z" fill="none" stroke="#000" stroke-width=".45"/><g clip-path="url(#a)"><path d="m8 41.79h19.01v13.64h-19.01z" fill="none" stroke="#000" stroke-width=".45"/></g><path d="m116.09 41.79h19.01v13.64h-19.01z" fill="none" stroke="#000" stroke-width=".45"/><g clip-path="url(#a)"><path d="m137.06 41.79h19.01v13.64h-19.01z" fill="none" stroke="#000" stroke-width=".45"/></g></svg>