<svg viewBox="0 0 61.26 113" xmlns="http://www.w3.org/2000/svg" xmlns:xlink="http://www.w3.org/1999/xlink"><clipPath id="a"><path d="m10.1 17.59h41.05v77.82h-41.05z"/></clipPath><path d="m31.54 49.47h19.46v29.92h-19.46z" fill="#969696"/><path d="m31.52 17.71h19.48v29.97h-19.48z" fill="#c8c8c8"/><path d="m31.86 81.29h18.77v13.88h-18.77z" fill="#e6e6e6"/><g fill="none" stroke="#000" stroke-width=".45"><g clip-path="url(#a)"><path d="m10.33 65.54h19.01v13.64h-19.01z"/><path d="m10.33 81.41h19.01v13.64h-19.01z"/></g><path d="m31.79 65.54h19.01v13.64h-19.01z"/><g clip-path="url(#a)"><path d="m10.33 49.68h19.01v13.64h-19.01z"/><path d="m10.33 17.95h19.01v13.64h-19.01z"/><path d="m10.33 33.81h19.01v13.64h-19.01z"/></g><path d="m31.79 49.68h19.01v13.64h-19.01z"/></g><g clip-path="url(#a)"><path d="m31.79 17.95h19.01v13.64h-19.01z" fill="none" stroke="#000" stroke-width=".45"/></g><path d="m31.79 33.81h19.01v13.64h-19.01z" fill="none" stroke="#000" stroke-width=".45"/><g clip-path="url(#a)"><path d="m31.79 81.41h19.01v13.64h-19.01z" fill="none" stroke="#000" stroke-width=".45"/></g><path d="m26.38 68.81 2.05-1.18-2.05-1.19z" fill="#231f20"/></svg>