<svg viewBox="0 0 63 65" xmlns="http://www.w3.org/2000/svg"><path d="m22.5 11.5v9h-14v-9zm.5-.5h-15v10h15z"/><path d="m38.5 11.5v9h-14v-9zm.5-.5h-15v10h15z"/><path d="m22.5 22.5v9h-14v-9zm.5-.5h-15v10h15z"/><path d="m38.5 22.5v9h-14v-9zm.5-.5h-15v10h15z"/><path d="m22.5 33.5v9h-14v-9zm.5-.5h-15v10h15z"/><path d="m38.5 33.5v9h-14v-9zm.5-.5h-15v10h15z"/><path d="m54.5 11.5v9h-14v-9zm.5-.5h-15v10h15z"/><path d="m54.5 22.5v9h-14v-9zm.5-.5h-15v10h15z"/><path d="m54.5 33.5v9h-14v-9zm.5-.5h-15v10h15z"/><path d="m22.5 44.5v9h-14v-9zm.5-.5h-15v10h15z"/><path d="m38.5 44.5v9h-14v-9zm.5-.5h-15v10h15z"/><path d="m54.5 44.5v9h-14v-9zm.5-.5h-15v10h15z"/><path d="m9 23h45v30h-45z" opacity=".25"/></svg>