<svg viewBox="0 0 82.88 113" xmlns="http://www.w3.org/2000/svg" xmlns:xlink="http://www.w3.org/1999/xlink"><clipPath id="a"><path d="m10 33.5h62.8v46h-62.8z"/></clipPath><path d="m31.66 33.61h41.23v45.74h-41.23z" fill="#e6e6e6"/><g fill="none" stroke="#000" stroke-width=".45"><g clip-path="url(#a)"><path d="m53.57 65.53h19.01v13.62h-19.01z"/><path d="m10.23 33.86h19.01v13.62h-19.01z"/><path d="m31.9 65.53h19.01v13.62h-19.01z"/><path d="m53.57 49.69h19.01v13.62h-19.01z"/><path d="m10.23 49.69h19.01v13.62h-19.01z"/><path d="m53.57 33.86h19.01v13.62h-19.01z"/><path d="m10.23 65.53h19.01v13.62h-19.01z"/></g><path d="m31.9 49.72h19.01v13.64h-19.01z"/><path d="m31.9 33.86h19.01v13.64h-19.01z"/></g><path d="m26.28 53.06 2.05-1.18-2.05-1.19z" fill="#231f20"/></svg>