<svg viewBox="0 0 81.82 113" xmlns="http://www.w3.org/2000/svg" xmlns:xlink="http://www.w3.org/1999/xlink"><clipPath id="a"><path d="m20.22 17.66h41.39v77.69h-41.39z"/></clipPath><path d="m20.34 17.8h41.14v61.67h-41.14z" fill="#e6e6e6"/><g clip-path="url(#a)"><path d="m20.57 65.61h19.01v13.64h-19.01z" fill="none" stroke="#000" stroke-width=".45"/></g><g stroke="#000" stroke-width=".45"><g fill="none"><path d="m42.24 65.61h19.01v13.64h-19.01z"/><path d="m20.57 49.74h19.01v13.64h-19.01z"/><path d="m20.57 18.01h19.01v13.64h-19.01z"/><path d="m20.57 33.88h19.01v13.64h-19.01z"/><path d="m42.24 49.74h19.01v13.64h-19.01z"/><path d="m42.24 18.01h19.01v13.64h-19.01z"/><path d="m42.24 33.88h19.01v13.64h-19.01z"/></g><path d="m20.57 81.48h19.01v13.64h-19.01z" fill="#fff"/><path d="m42.24 81.48h19.01v13.64h-19.01z" fill="#fff"/></g><path d="m38.81 84.43-1.19-2.05-1.18 2.05z" fill="#231f20"/></svg>