<svg viewBox="0 0 83.16 113" xmlns="http://www.w3.org/2000/svg" xmlns:xlink="http://www.w3.org/1999/xlink"><clipPath id="a"><path d="m10 9.72h63.16v93.56h-63.16z"/></clipPath><path d="m10.12 9.85h62.84v77.57h-62.84z" fill="#e6e6e6"/><g clip-path="url(#a)"><path d="m10.36 73.54h19.01v13.64h-19.01z" fill="none" stroke="#000" stroke-width=".45"/></g><path d="m53.7 73.54h19.01v13.64h-19.01z" fill="none" stroke="#000" stroke-width=".45"/><g clip-path="url(#a)"><path d="m53.7 89.41h19.01v13.64h-19.01z" fill="#fff" stroke="#000" stroke-width=".45"/></g><g fill="none" stroke="#000" stroke-width=".45"><path d="m32.03 73.54h19.01v13.64h-19.01z"/><g clip-path="url(#a)"><path d="m10.36 57.68h19.01v13.64h-19.01z"/><path d="m10.36 25.95h19.01v13.64h-19.01z"/><path d="m10.36 41.81h19.01v13.64h-19.01z"/><path d="m10.36 10.08h19.01v13.64h-19.01z"/></g><path d="m53.7 57.68h19.01v13.64h-19.01z"/><path d="m53.7 25.95h19.01v13.64h-19.01z"/><path d="m53.7 41.81h19.01v13.64h-19.01z"/></g><g clip-path="url(#a)"><path d="m53.7 10.08h19.01v13.64h-19.01z" fill="none" stroke="#000" stroke-width=".45"/></g><g stroke="#000" stroke-width=".45"><path d="m32.03 57.68h19.01v13.64h-19.01z" fill="none"/><path d="m32.03 25.95h19.01v13.64h-19.01z" fill="none"/><path d="m32.03 41.81h19.01v13.64h-19.01z" fill="none"/><g clip-path="url(#a)"><path d="m32.03 10.08h19.01v13.64h-19.01z" fill="none"/><g fill="#fff"><path d="m10.36 89.41h19.01v13.64h-19.01z"/><path d="m32.03 89.41h19.01v13.64h-19.01z"/></g></g></g><path d="m28.59 92.37-1.18-2.06-1.19 2.06z" fill="#231f20"/></svg>