<svg viewBox="0 0 104.6 113" xmlns="http://www.w3.org/2000/svg" xmlns:xlink="http://www.w3.org/1999/xlink"><clipPath id="a"><path d="m10 9.72h84.6v93.56h-84.6z"/></clipPath><path d="m31.66 9.72h62.8v93.44h-62.8z" fill="#e6e6e6"/><g clip-path="url(#a)" fill="none" stroke="#000" stroke-width=".45"><path d="m75.24 41.72h19.01v13.64h-19.01z"/><path d="m75.24 25.85h19.01v13.64h-19.01z"/><path d="m75.24 9.99h19.01v13.64h-19.01z"/><path d="m75.24 73.45h19.01v13.64h-19.01z"/><path d="m75.24 57.58h19.01v13.64h-19.01z"/><path d="m75.24 89.31h19.01v13.64h-19.01z"/></g><path d="m53.56 41.68h19.01v13.64h-19.01z" fill="none" stroke="#000" stroke-width=".45"/><path d="m31.9 41.68h19.01v13.64h-19.01z" fill="none" stroke="#000" stroke-width=".45"/><g clip-path="url(#a)"><path d="m10.23 41.68h19.01v13.64h-19.01z" fill="#fff" stroke="#000" stroke-width=".45"/></g><g stroke="#000" stroke-width=".45"><path d="m53.56 25.82h19.01v13.64h-19.01z" fill="none"/><path d="m31.9 25.82h19.01v13.64h-19.01z" fill="none"/><path d="m10.23 25.82h19.01v13.64h-19.01z" fill="#fff"/><path d="m53.56 9.95h19.01v13.64h-19.01z" fill="none"/><path d="m31.9 9.95h19.01v13.64h-19.01z" fill="none"/><path d="m10.23 9.95h19.01v13.64h-19.01z" fill="#fff"/></g><path d="m10 9.72h84.6v93.56h-84.6z" fill="none"/><path d="m53.56 73.41h19.01v13.64h-19.01z" fill="none" stroke="#000" stroke-width=".45"/><path d="m31.9 73.41h19.01v13.64h-19.01z" fill="none" stroke="#000" stroke-width=".45"/><g clip-path="url(#a)"><path d="m10.23 73.41h19.01v13.64h-19.01z" fill="#fff" stroke="#000" stroke-width=".45"/></g><g stroke="#000" stroke-width=".45"><path d="m53.56 57.55h19.01v13.64h-19.01z" fill="none"/><path d="m31.9 57.55h19.01v13.64h-19.01z" fill="none"/><path d="m10.22 57.55h18.98v13.64h-18.98z" fill="#fff"/><path d="m53.51 89.28h18.98v13.64h-18.98z" fill="none"/><path d="m31.87 89.28h18.98v13.64h-18.98z" fill="none"/><path d="m10.22 89.28h18.98v13.64h-18.98z" fill="#fff"/></g><path d="m26.41 76.76 2.05-1.18-2.05-1.19z" fill="#231f20"/></svg>