<svg viewBox="0 0 80.83 113" xmlns="http://www.w3.org/2000/svg"><path d="m51.82 41.68h19v13.64h-19z" fill="#fff"/><path d="m51.82 41.68h19.01v13.64h-19.01z" fill="none" stroke="#000" stroke-width=".45"/><path d="m30.69 41.45h19.44v30.1h-19.44z" fill="#e6e6e6"/><path d="m52.02 41.91h9.31v13.18h-9.31z" fill="#c8c8c8"/><path d="m30.91 57.55h19.01v13.64h-19.01z" fill="none" stroke="#000" stroke-width=".45"/><path d="m51.82 57.55h19v13.64h-19z" fill="#fff"/><path d="m51.82 57.55h19.01v13.64h-19.01z" fill="none" stroke="#000" stroke-width=".45"/><path d="m30.91 41.68h19.01v13.64h-19.01z" fill="none" stroke="#000" stroke-width=".45"/><path d="m10 41.68h19v13.64h-19z" fill="#fff"/><path d="m10 41.68h19.01v13.64h-19.01z" fill="none" stroke="#000" stroke-width=".45"/><path d="m10 57.55h19v13.64h-19z" fill="#fff"/><path d="m10 57.55h19.01v13.64h-19.01z" fill="none" stroke="#000" stroke-width=".45"/><path d="m25.62 44.95 2.05-1.18-2.05-1.19z" fill="#231f20"/></svg>