<svg viewBox="0 0 60.68 113" xmlns="http://www.w3.org/2000/svg" xmlns:xlink="http://www.w3.org/1999/xlink"><clipPath id="a"><path d="m10.03 33.52h40.63v45.96h-40.63z"/></clipPath><path d="m10.16 33.65h19.45v30.1h-19.45z" fill="#e6e6e6"/><path d="m31.07 33.64h19.46v30.11h-19.46z" fill="#c8c8c8"/><g clip-path="url(#a)" fill="none" stroke="#000" stroke-width=".45"><path d="m10.38 49.74h19.01v13.64h-19.01z"/><path d="m31.29 49.74h19.01v13.64h-19.01z"/><path d="m10.38 33.88h19.01v13.64h-19.01z"/><path d="m31.29 33.88h19.01v13.64h-19.01z"/></g><path d="m10.38 65.61h19v13.64h-19z" fill="#fff"/><g clip-path="url(#a)"><path d="m10.38 65.61h19.01v13.64h-19.01z" fill="none" stroke="#000" stroke-width=".45"/></g><path d="m31.29 65.61h19v13.64h-19z" fill="#fff"/><g clip-path="url(#a)"><path d="m31.29 65.61h19.01v13.64h-19.01z" fill="none" stroke="#000" stroke-width=".45"/></g><path d="m28.65 68.57-1.19-2.05-1.18 2.05z" fill="#231f20"/></svg>