<svg viewBox="0 0 82.88 113" xmlns="http://www.w3.org/2000/svg" xmlns:xlink="http://www.w3.org/1999/xlink"><clipPath id="a"><path d="m21.19 33.52h40.5v45.96h-40.5z"/></clipPath><path d="m42.46 33.88h19v13.64h-19z" fill="#fff"/><g clip-path="url(#a)"><path d="m42.46 33.88h19.01v13.64h-19.01z" fill="none" stroke="#000" stroke-width=".45"/></g><path d="m21.31 33.68h19.48v29.98h-19.48z" fill="#e6e6e6"/><g clip-path="url(#a)"><path d="m21.55 49.74h19.01v13.64h-19.01z" fill="none" stroke="#000" stroke-width=".45"/></g><path d="m42.46 49.75h19v13.64h-19z" fill="#fff"/><g clip-path="url(#a)" fill="none" stroke="#000" stroke-width=".45"><path d="m42.46 49.74h19.01v13.64h-19.01z"/><path d="m21.55 33.88h19.01v13.64h-19.01z"/></g><path d="m21.55 65.61h19v13.64h-19z" fill="#fff"/><g clip-path="url(#a)"><path d="m21.55 65.61h19.01v13.64h-19.01z" fill="none" stroke="#000" stroke-width=".45"/></g><path d="m42.46 65.61h19v13.64h-19z" fill="#fff"/><g clip-path="url(#a)"><path d="m42.46 65.61h19.01v13.64h-19.01z" fill="none" stroke="#000" stroke-width=".45"/></g><path d="m39.81 68.57-1.18-2.05-1.19 2.05z" fill="#231f20"/><path d="m42.7 34.11h8.58v13.19h-8.58z" fill="#c8c8c8"/></svg>