<svg viewBox="0 0 83.2 113" xmlns="http://www.w3.org/2000/svg" xmlns:xlink="http://www.w3.org/1999/xlink"><clipPath id="a"><path d="m10 25.59h63.21v61.82h-63.21z"/></clipPath><path d="m10.13 25.72h41.12v45.84h-41.12z" fill="#e6e6e6"/><path d="m53.61 25.72h19.46v29.97h-19.46z" fill="#c8c8c8"/><g clip-path="url(#a)"><path d="m10.36 57.68h19.01v13.64h-19.01z" fill="none" stroke="#000" stroke-width=".45"/></g><path d="m53.84 57.68h19.01v13.64h-19.01z" fill="#fff"/><path d="m53.84 57.68h19.01v13.64h-19.01z" fill="none" stroke="#000" stroke-width=".45"/><path d="m32.03 57.68h19.01v13.64h-19.01z" fill="none" stroke="#000" stroke-width=".45"/><g clip-path="url(#a)"><path d="m10.36 41.81h19.01v13.64h-19.01z" fill="none" stroke="#000" stroke-width=".45"/></g><g fill="none" stroke="#000" stroke-width=".45"><path d="m53.84 41.81h19.01v13.64h-19.01z"/><g clip-path="url(#a)"><path d="m10.36 25.95h19.01v13.64h-19.01z"/><path d="m53.84 25.95h19.01v13.64h-19.01z"/></g><path d="m32.03 41.81h19.01v13.64h-19.01z"/></g><g clip-path="url(#a)"><path d="m32.03 25.95h19.01v13.64h-19.01z" fill="none" stroke="#000" stroke-width=".45"/></g><path d="m10.36 73.54h19v13.64h-19z" fill="#fff"/><g clip-path="url(#a)"><path d="m10.36 73.54h19.01v13.64h-19.01z" fill="none" stroke="#000" stroke-width=".45"/></g><path d="m53.84 73.54h19.01v13.64h-19.01z" fill="#fff"/><g clip-path="url(#a)"><path d="m53.84 73.54h19.01v13.64h-19.01z" fill="none" stroke="#000" stroke-width=".45"/></g><path d="m32.03 73.54h19v13.64h-19z" fill="#fff"/><g clip-path="url(#a)"><path d="m32.03 73.54h19.01v13.64h-19.01z" fill="none" stroke="#000" stroke-width=".45"/></g><path d="m28.62 76.5-1.18-2.05-1.19 2.05z" fill="#231f20"/></svg>