<svg viewBox="0 0 61.08 113" xmlns="http://www.w3.org/2000/svg"><path d="m32.73 54.15h19.51v29.97h-19.51z" fill="#e6e6e6"/><path d="m32.73 22.4h19.48v29.97h-19.48z" fill="#c8c8c8"/><path d="m32.98 54.38h19.01v13.64h-19.01z" fill="none" stroke="#000" stroke-width=".45"/><path d="m11.17 54.38h19.01v13.64h-19.01z" fill="#fff"/><g fill="none" stroke="#000" stroke-width=".45"><path d="m11.17 54.38h19.01v13.64h-19.01z"/><path d="m32.98 38.52h19.01v13.64h-19.01z"/><path d="m32.98 22.65h19.01v13.64h-19.01z"/></g><path d="m11.17 38.52h19.01v13.64h-19.01z" fill="#fff"/><path d="m11.17 38.52h19.01v13.64h-19.01z" fill="none" stroke="#000" stroke-width=".45"/><path d="m11.17 22.65h19.01v13.64h-19.01z" fill="#fff"/><path d="m11.17 22.65h19.01v13.64h-19.01z" fill="none" stroke="#000" stroke-width=".45"/><path d="m32.98 70.25h19.01v13.64h-19.01z" fill="none" stroke="#000" stroke-width=".45"/><path d="m11.17 70.25h19.01v13.64h-19.01z" fill="#fff"/><path d="m11.17 70.25h19.01v13.64h-19.01z" fill="none" stroke="#000" stroke-width=".45"/><path d="m27.55 57.65 2.05-1.18-2.05-1.19z" fill="#231f20"/></svg>