<svg viewBox="0 0 104.88 113" xmlns="http://www.w3.org/2000/svg" xmlns:xlink="http://www.w3.org/1999/xlink"><clipPath id="a"><path d="m10 25.59h84.88v61.82h-84.88z"/></clipPath><path d="m10.11 25.74h41.13v45.77h-41.13z" fill="#e6e6e6"/><path d="m53.61 25.7h41.1v45.84h-41.1z" fill="#c8c8c8"/><g clip-path="url(#a)"><path d="m10.36 57.68h19.01v13.64h-19.01z" fill="none" stroke="#000" stroke-width=".45"/></g><g fill="none" stroke="#000" stroke-width=".45"><path d="m53.84 57.68h19.01v13.64h-19.01z"/><path d="m32.03 57.68h19.01v13.64h-19.01z"/><g clip-path="url(#a)"><path d="m75.51 57.68h19.01v13.64h-19.01z"/><path d="m10.36 41.81h19.01v13.64h-19.01z"/></g><path d="m53.84 41.81h19.01v13.64h-19.01z"/><g clip-path="url(#a)"><path d="m10.36 25.95h19.01v13.64h-19.01z"/><path d="m53.84 25.95h19.01v13.64h-19.01z"/></g><path d="m32.03 41.81h19.01v13.64h-19.01z"/><g clip-path="url(#a)"><path d="m75.51 41.81h19.01v13.64h-19.01z"/><path d="m32.03 25.95h19.01v13.64h-19.01z"/><path d="m75.51 25.95h19.01v13.64h-19.01z"/></g></g><path d="m10.36 73.54h19v13.64h-19z" fill="#fff"/><g clip-path="url(#a)"><path d="m10.36 73.54h19.01v13.64h-19.01z" fill="none" stroke="#000" stroke-width=".45"/></g><path d="m53.84 73.54h19.01v13.64h-19.01z" fill="#fff"/><g clip-path="url(#a)"><path d="m53.84 73.54h19.01v13.64h-19.01z" fill="none" stroke="#000" stroke-width=".45"/></g><path d="m32.03 73.54h19v13.64h-19z" fill="#fff"/><g clip-path="url(#a)"><path d="m32.03 73.54h19.01v13.64h-19.01z" fill="none" stroke="#000" stroke-width=".45"/></g><path d="m75.51 73.54h19.01v13.64h-19.01z" fill="#fff"/><g clip-path="url(#a)"><path d="m75.51 73.54h19.01v13.64h-19.01z" fill="none" stroke="#000" stroke-width=".45"/></g><path d="m28.62 76.5-1.18-2.05-1.19 2.05z" fill="#231f20"/></svg>