<svg viewBox="0 0 104.96 113" xmlns="http://www.w3.org/2000/svg" xmlns:xlink="http://www.w3.org/1999/xlink"><clipPath id="a"><path d="m10 17.66h84.96v77.69h-84.96z"/></clipPath><path d="m10.4 81.48h19.01v13.64h-19.01z" fill="#fff"/><g clip-path="url(#a)"><path d="m10.4 81.48h19.01v13.64h-19.01z" fill="none" stroke="#000" stroke-width=".45"/></g><path d="m53.92 81.48h19.01v13.64h-19.01z" fill="#fff"/><g clip-path="url(#a)"><path d="m53.92 81.48h19.01v13.64h-19.01z" fill="none" stroke="#000" stroke-width=".45"/></g><path d="m32.07 81.48h19.01v13.64h-19.01z" fill="#fff"/><g clip-path="url(#a)"><path d="m32.07 81.48h19.01v13.64h-19.01z" fill="none" stroke="#000" stroke-width=".45"/></g><path d="m75.6 81.48h19.01v13.64h-19.01z" fill="#fff"/><g clip-path="url(#a)"><path d="m75.6 81.48h19.01v13.64h-19.01z" fill="none" stroke="#000" stroke-width=".45"/></g><path d="m10.17 17.77h41.15v61.84h-41.15z" fill="#e6e6e6"/><path d="m53.68 17.76h41.13v61.74h-41.13z" fill="#c8c8c8"/><path d="m28.68 85.69-1.19-2.05-1.19 2.05z" fill="#231f20"/><g clip-path="url(#a)"><path d="m10.4 65.61h19.01v13.64h-19.01z" fill="none" stroke="#000" stroke-width=".45"/></g><path d="m53.92 65.61h19.01v13.64h-19.01z" fill="none" stroke="#000" stroke-width=".45"/><g clip-path="url(#a)"><path d="m10.4 49.74h19.01v13.64h-19.01z" fill="none" stroke="#000" stroke-width=".45"/></g><path d="m53.92 49.74h19.01v13.64h-19.01z" fill="none" stroke="#000" stroke-width=".45"/><g clip-path="url(#a)"><path d="m10.4 33.88h19.01v13.64h-19.01z" fill="none" stroke="#000" stroke-width=".45"/></g><g fill="none" stroke="#000" stroke-width=".45"><path d="m53.92 33.88h19.01v13.64h-19.01z"/><g clip-path="url(#a)"><path d="m10.4 18.01h19.01v13.64h-19.01z"/><path d="m53.92 18.01h19.01v13.64h-19.01z"/></g><path d="m32.07 65.61h19.01v13.64h-19.01z"/></g><g clip-path="url(#a)"><path d="m75.6 65.61h19.01v13.64h-19.01z" fill="none" stroke="#000" stroke-width=".45"/></g><path d="m32.07 49.74h19.01v13.64h-19.01z" fill="none" stroke="#000" stroke-width=".45"/><g clip-path="url(#a)"><path d="m75.6 49.74h19.01v13.64h-19.01z" fill="none" stroke="#000" stroke-width=".45"/></g><g fill="none" stroke="#000" stroke-width=".45"><path d="m32.07 33.88h19.01v13.64h-19.01z"/><g clip-path="url(#a)"><path d="m75.6 33.88h19.01v13.64h-19.01z"/><path d="m32.07 18.01h19.01v13.64h-19.01z"/><path d="m75.6 18.01h19.01v13.64h-19.01z"/></g></g></svg>