<svg viewBox="0 0 104.47 113" xmlns="http://www.w3.org/2000/svg" xmlns:xlink="http://www.w3.org/1999/xlink"><clipPath id="a"><path d="m9.75 17.66h84.96v77.69h-84.96z"/></clipPath><clipPath id="b"><path d="m9.88 17.66h84.83v77.69h-84.83z"/></clipPath><path d="m10.15 81.48h19.01v13.64h-19.01z" fill="#fff"/><g clip-path="url(#a)"><path d="m10.15 81.48h19.01v13.64h-19.01z" fill="none" stroke="#000" stroke-width=".45"/></g><path d="m53.68 81.48h19.01v13.64h-19.01z" fill="#fff"/><g clip-path="url(#a)"><path d="m53.68 81.48h19.01v13.64h-19.01z" fill="none" stroke="#000" stroke-width=".45"/></g><path d="m31.82 81.48h19.01v13.64h-19.01z" fill="#fff"/><g clip-path="url(#a)"><path d="m31.82 81.48h19.01v13.64h-19.01z" fill="none" stroke="#000" stroke-width=".45"/></g><path d="m75.35 81.48h19.01v13.64h-19.01z" fill="#fff"/><g clip-path="url(#a)"><path d="m75.35 81.48h19.01v13.64h-19.01z" fill="none" stroke="#000" stroke-width=".45"/></g><path d="m9.92 17.78h41.13v61.83h-41.13z" fill="#e6e6e6"/><path d="m53.44 17.8h41.13v45.83h-41.13z" fill="#c8c8c8"/><path d="m28.43 85.69-1.18-2.05-1.19 2.05z" fill="#231f20"/><g clip-path="url(#a)"><path d="m10.15 65.61h19.01v13.64h-19.01z" fill="none" stroke="#000" stroke-width=".45"/></g><path d="m53.68 65.61h19.01v13.64h-19.01z" fill="#fff"/><path d="m53.68 65.61h19.01v13.64h-19.01z" fill="none" stroke="#000" stroke-width=".45"/><g clip-path="url(#a)"><path d="m10.15 49.74h19.01v13.64h-19.01z" fill="none" stroke="#000" stroke-width=".45"/></g><path d="m53.68 49.74h19.01v13.64h-19.01z" fill="none" stroke="#000" stroke-width=".45"/><g clip-path="url(#a)"><path d="m10.15 33.88h19.01v13.64h-19.01z" fill="none" stroke="#000" stroke-width=".45"/></g><g fill="none" stroke="#000" stroke-width=".45"><path d="m53.68 33.88h19.01v13.64h-19.01z"/><g clip-path="url(#b)"><path d="m10.28 18.01h18.98v13.64h-18.98z"/><path d="m53.74 18.01h18.98v13.64h-18.98z"/></g><path d="m31.82 65.61h19.01v13.64h-19.01z"/></g><path d="m75.35 65.61h19.01v13.64h-19.01z" fill="#fff"/><g clip-path="url(#a)"><path d="m75.35 65.61h19.01v13.64h-19.01z" fill="none" stroke="#000" stroke-width=".45"/></g><path d="m31.82 49.74h19.01v13.64h-19.01z" fill="none" stroke="#000" stroke-width=".45"/><g clip-path="url(#a)"><path d="m75.35 49.74h19.01v13.64h-19.01z" fill="none" stroke="#000" stroke-width=".45"/></g><path d="m31.82 33.88h19.01v13.64h-19.01z" fill="none" stroke="#000" stroke-width=".45"/><g clip-path="url(#a)" fill="none" stroke="#000" stroke-width=".45"><path d="m75.35 33.88h19.01v13.64h-19.01z"/><path d="m31.82 18.01h19.01v13.64h-19.01z"/><path d="m75.35 18.01h19.01v13.64h-19.01z"/></g></svg>