<svg viewBox="0 0 171.32 113" xmlns="http://www.w3.org/2000/svg" xmlns:xlink="http://www.w3.org/1999/xlink"><clipPath id="a"><path d="m10 9.66h151.32v93.69h-151.32z"/></clipPath><path d="m31.74 9.66h63.72v93.69h-63.72z" fill="#e6e6e6"/><path d="m97.6 9.66h63.72v77.82h-63.72z" fill="#c8c8c8"/><g fill="none" stroke="#000" stroke-width=".45"><path d="m76.09 25.88h19.01v13.64h-19.01z"/><path d="m141.96 25.88h19.01v13.64h-19.01z"/><g clip-path="url(#a)"><path d="m76.09 10.01h19.01v13.64h-19.01z"/><path d="m141.96 10.01h19.01v13.64h-19.01z"/></g><path d="m54.42 25.88h19.01v13.64h-19.01z"/><path d="m120.29 25.88h19.01v13.64h-19.01z"/><g clip-path="url(#a)"><path d="m54.42 10.01h19.01v13.64h-19.01z"/><path d="m120.29 10.01h19.01v13.64h-19.01z"/></g><path d="m32.09 25.88h19.01v13.64h-19.01z"/><path d="m97.96 25.88h19.01v13.64h-19.01z"/><g clip-path="url(#a)"><path d="m32.09 10.01h19.01v13.64h-19.01z"/><path d="m97.96 10.01h19.01v13.64h-19.01z"/></g></g><path d="m10.22 25.88h19.01v13.64h-19.01z" fill="#fff"/><g clip-path="url(#a)"><path d="m10.22 25.88h19.01v13.64h-19.01z" fill="none" stroke="#000" stroke-width=".45"/></g><path d="m10.22 10.01h19.01v13.64h-19.01z" fill="#fff"/><g clip-path="url(#a)"><path d="m10.22 10.01h19.01v13.64h-19.01z" fill="none" stroke="#000" stroke-width=".45"/></g><path d="m76.09 41.75h19.01v13.64h-19.01z" fill="none" stroke="#000" stroke-width=".45"/><path d="m141.96 41.75h19.01v13.64h-19.01z" fill="none" stroke="#000" stroke-width=".45"/><path d="m76.09 57.61h19.01v13.64h-19.01z" fill="none" stroke="#000" stroke-width=".45"/><path d="m141.96 57.61h19.01v13.64h-19.01z" fill="none" stroke="#000" stroke-width=".45"/><path d="m76.09 73.48h19.01v13.64h-19.01z" fill="none" stroke="#000" stroke-width=".45"/><path d="m141.96 73.48h19.01v13.64h-19.01z" fill="none" stroke="#000" stroke-width=".45"/><g clip-path="url(#a)"><path d="m76.09 89.34h19.01v13.64h-19.01z" fill="none" stroke="#000" stroke-width=".45"/></g><path d="m141.96 89.34h19.01v13.64h-19.01z" fill="#fff"/><g clip-path="url(#a)"><path d="m141.96 89.34h19.01v13.64h-19.01z" fill="none" stroke="#000" stroke-width=".45"/></g><path d="m54.42 41.75h19.01v13.64h-19.01z" fill="none" stroke="#000" stroke-width=".45"/><path d="m120.29 41.75h19.01v13.64h-19.01z" fill="none" stroke="#000" stroke-width=".45"/><path d="m32.09 41.75h19.01v13.64h-19.01z" fill="none" stroke="#000" stroke-width=".45"/><path d="m97.96 41.75h19.01v13.64h-19.01z" fill="none" stroke="#000" stroke-width=".45"/><path d="m10.22 41.74h19.01v13.64h-19.01z" fill="#fff"/><g clip-path="url(#a)"><path d="m10.22 41.75h19.01v13.64h-19.01z" fill="none" stroke="#000" stroke-width=".45"/></g><path d="m54.42 57.61h19.01v13.64h-19.01z" fill="none" stroke="#000" stroke-width=".45"/><path d="m120.29 57.61h19.01v13.64h-19.01z" fill="none" stroke="#000" stroke-width=".45"/><path d="m32.09 57.61h19.01v13.64h-19.01z" fill="none" stroke="#000" stroke-width=".45"/><path d="m97.96 57.61h19.01v13.64h-19.01z" fill="none" stroke="#000" stroke-width=".45"/><path d="m10.22 57.61h19.01v13.64h-19.01z" fill="#fff"/><g clip-path="url(#a)"><path d="m10.22 57.61h19.01v13.64h-19.01z" fill="none" stroke="#000" stroke-width=".45"/></g><path d="m54.42 73.48h19.01v13.64h-19.01z" fill="none" stroke="#000" stroke-width=".45"/><path d="m120.29 73.48h19.01v13.64h-19.01z" fill="none" stroke="#000" stroke-width=".45"/><g clip-path="url(#a)"><path d="m54.42 89.34h19.01v13.64h-19.01z" fill="none" stroke="#000" stroke-width=".45"/></g><path d="m120.29 89.34h19v13.64h-19z" fill="#fff"/><g clip-path="url(#a)"><path d="m120.29 89.34h19.01v13.64h-19.01z" fill="none" stroke="#000" stroke-width=".45"/></g><path d="m32.09 73.48h19.01v13.64h-19.01z" fill="none" stroke="#000" stroke-width=".45"/><path d="m97.96 73.48h19.01v13.64h-19.01z" fill="none" stroke="#000" stroke-width=".45"/><path d="m10.22 73.48h19.01v13.64h-19.01z" fill="#fff"/><g clip-path="url(#a)" fill="none" stroke="#000" stroke-width=".45"><path d="m10.22 73.48h19.01v13.64h-19.01z"/><path d="m32.09 89.34h19.01v13.64h-19.01z"/></g><path d="m97.96 89.34h19.01v13.64h-19.01z" fill="#fff"/><g clip-path="url(#a)"><path d="m97.96 89.34h19.01v13.64h-19.01z" fill="none" stroke="#000" stroke-width=".45"/></g><path d="m10.22 89.34h19.01v13.64h-19.01z" fill="#fff"/><g clip-path="url(#a)"><path d="m10.22 89.34h19.01v13.64h-19.01z" fill="none" stroke="#000" stroke-width=".45"/></g><path d="m25.96 77.81 2.05-1.19-2.05-1.19z" fill="#231f20"/></svg>