<svg viewBox="0 0 104.66 113" xmlns="http://www.w3.org/2000/svg" xmlns:xlink="http://www.w3.org/1999/xlink"><clipPath id="a"><path d="m10 41.39h84.66v30.23h-84.66z"/></clipPath><path d="m75.08 41.53h19.51v30h-19.51z" fill="#969696"/><path d="m31.75 41.51h19.45v30.1h-19.45z" fill="#c8c8c8"/><path d="m53.39 41.56h19.48v29.93h-19.48z" fill="#e6e6e6"/><g clip-path="url(#a)"><path d="m31.95 57.61h19.01v13.64h-19.01z" fill="none" stroke="#000" stroke-width=".45"/></g><path d="m10.23 57.61h19v13.64h-19z" fill="#fff"/><g clip-path="url(#a)" fill="none" stroke="#000" stroke-width=".45"><path d="m10.23 57.61h19.01v13.64h-19.01z"/><path d="m53.62 57.61h19.01v13.64h-19.01z"/><path d="m75.29 57.61h19.01v13.64h-19.01z"/></g><path d="m31.95 41.74h19.01v13.64h-19.01z" fill="none" stroke="#000" stroke-width=".45"/><path d="m10.23 41.75h19v13.64h-19z" fill="#fff"/><g clip-path="url(#a)"><path d="m10.23 41.74h19.01v13.64h-19.01z" fill="none" stroke="#000" stroke-width=".45"/></g><path d="m53.62 41.74h19.01v13.64h-19.01z" fill="none" stroke="#000" stroke-width=".45"/><g clip-path="url(#a)"><path d="m75.29 41.74h19.01v13.64h-19.01z" fill="none" stroke="#000" stroke-width=".45"/></g><path d="m26.12 45.44 2.05-1.18-2.05-1.19z" fill="#231f20"/></svg>