<svg viewBox="0 0 105.28 113" xmlns="http://www.w3.org/2000/svg" xmlns:xlink="http://www.w3.org/1999/xlink"><clipPath id="a"><path d="m10 33.45h85.28v46.09h-85.28z"/></clipPath><path d="m75.56 33.45h19.72v30.22h-19.72z" fill="#969696"/><path d="m32.21 33.45h19.72v30.22h-19.72z" fill="#c8c8c8"/><path d="m53.94 49.32h19.66v30.23h-19.66z" fill="#e6e6e6"/><path d="m32.57 49.68h19.01v13.64h-19.01z" fill="none" stroke="#000" stroke-width=".45"/><path d="m10.22 49.68h19.01v13.64h-19.01z" fill="#fff"/><g clip-path="url(#a)"><path d="m10.22 49.68h19.01v13.64h-19.01z" fill="none" stroke="#000" stroke-width=".45"/></g><g fill="none" stroke="#000" stroke-width=".45"><path d="m54.24 49.68h19.01v13.64h-19.01z"/><path d="m75.91 49.68h19.01v13.64h-19.01z"/><path d="m32.57 33.81h19.01v13.64h-19.01z"/></g><path d="m10.22 33.81h19.01v13.64h-19.01z" fill="#fff"/><g clip-path="url(#a)"><path d="m10.22 33.81h19.01v13.64h-19.01z" fill="none" stroke="#000" stroke-width=".45"/></g><path d="m54.24 33.81h19.01v13.64h-19.01z" fill="#fff"/><path d="m54.24 33.81h19.01v13.64h-19.01z" fill="none" stroke="#000" stroke-width=".45"/><path d="m75.91 33.81h19.01v13.64h-19.01z" fill="none" stroke="#000" stroke-width=".45"/><path d="m32.57 65.54h19.01v13.64h-19.01z" fill="#fff"/><g clip-path="url(#a)"><path d="m32.57 65.54h19.01v13.64h-19.01z" fill="none" stroke="#000" stroke-width=".45"/></g><path d="m10.22 65.54h19.01v13.64h-19.01z" fill="#fff"/><g clip-path="url(#a)" fill="none" stroke="#000" stroke-width=".45"><path d="m10.22 65.54h19.01v13.64h-19.01z"/><path d="m54.24 65.54h19.01v13.64h-19.01z"/></g><path d="m75.91 65.54h19.01v13.64h-19.01z" fill="#fff"/><g clip-path="url(#a)"><path d="m75.91 65.54h19.01v13.64h-19.01z" fill="none" stroke="#000" stroke-width=".45"/></g><path d="m26.12 52.79 2.05-1.19-2.05-1.18z" fill="#231f20"/></svg>