<svg viewBox="0 0 83.06 113" xmlns="http://www.w3.org/2000/svg" xmlns:xlink="http://www.w3.org/1999/xlink"><clipPath id="a"><path d="m7.76 33.52h63.06v45.96h-63.06z"/></clipPath><path d="m51.1 33.52h19.72v30.23h-19.72z" fill="#969696"/><path d="m7.76 33.52h19.72v30.23h-19.72z" fill="#c8c8c8"/><path d="m29.49 33.52h19.66v30.23h-19.66z" fill="#e6e6e6"/><g clip-path="url(#a)"><path d="m8.12 49.74h19.01v13.64h-19.01z" fill="none" stroke="#000" stroke-width=".45"/></g><g fill="none" stroke="#000" stroke-width=".45"><path d="m29.79 49.74h19.01v13.64h-19.01z"/><path d="m51.46 49.74h19.01v13.64h-19.01z"/><g clip-path="url(#a)"><path d="m8.12 33.88h19.01v13.64h-19.01z"/><path d="m29.79 33.88h19.01v13.64h-19.01z"/><path d="m51.46 33.88h19.01v13.64h-19.01z"/></g></g><path d="m8.12 65.61h19v13.64h-19z" fill="#fff"/><g clip-path="url(#a)"><path d="m8.12 65.61h19.01v13.64h-19.01z" fill="none" stroke="#000" stroke-width=".45"/></g><path d="m29.79 65.61h19v13.64h-19z" fill="#fff"/><g clip-path="url(#a)"><path d="m29.79 65.61h19.01v13.64h-19.01z" fill="none" stroke="#000" stroke-width=".45"/></g><path d="m51.46 65.61h19.01v13.64h-19.01z" fill="#fff"/><g clip-path="url(#a)"><path d="m51.46 65.61h19.01v13.64h-19.01z" fill="none" stroke="#000" stroke-width=".45"/></g><path d="m26.38 68.57-1.18-2.05-1.19 2.05z" fill="#231f20"/></svg>