<svg viewBox="0 0 61.26 113" xmlns="http://www.w3.org/2000/svg" xmlns:xlink="http://www.w3.org/1999/xlink"><clipPath id="a"><path d="m10 9.66h41.26v93.69h-41.26z"/></clipPath><path d="m31.54 41.39h19.72v30.23h-19.72z" fill="#c8c8c8"/><path d="m31.54 9.66h19.72v30.23h-19.72z" fill="#969696"/><path d="m31.54 73.12h19.72v30.23h-19.72z" fill="#e6e6e6"/><path d="m31.89 57.61h19.01v13.64h-19.01z" fill="none" stroke="#000" stroke-width=".45"/><path d="m10.22 57.61h19.01v13.64h-19.01z" fill="#fff"/><g clip-path="url(#a)"><path d="m10.22 57.61h19.01v13.64h-19.01z" fill="none" stroke="#000" stroke-width=".45"/></g><path d="m31.89 73.48h19.01v13.64h-19.01z" fill="none" stroke="#000" stroke-width=".45"/><path d="m10.22 73.48h19.01v13.64h-19.01z" fill="#fff"/><g clip-path="url(#a)" fill="none" stroke="#000" stroke-width=".45"><path d="m10.22 73.48h19.01v13.64h-19.01z"/><path d="m31.89 89.34h19.01v13.64h-19.01z"/></g><path d="m10.22 89.34h19.01v13.64h-19.01z" fill="#fff"/><g clip-path="url(#a)"><path d="m10.22 89.34h19.01v13.64h-19.01z" fill="none" stroke="#000" stroke-width=".45"/></g><path d="m31.89 25.88h19.01v13.64h-19.01z" fill="none" stroke="#000" stroke-width=".45"/><path d="m10.22 25.88h19.01v13.64h-19.01z" fill="#fff"/><g clip-path="url(#a)"><path d="m10.22 25.88h19.01v13.64h-19.01z" fill="none" stroke="#000" stroke-width=".45"/></g><path d="m31.89 41.75h19.01v13.64h-19.01z" fill="none" stroke="#000" stroke-width=".45"/><path d="m10.22 41.75h19.01v13.64h-19.01z" fill="#fff"/><g clip-path="url(#a)" fill="none" stroke="#000" stroke-width=".45"><path d="m10.22 41.75h19.01v13.64h-19.01z"/><path d="m31.89 10.01h19.01v13.64h-19.01z"/></g><path d="m10.22 10.01h19.01v13.64h-19.01z" fill="#fff"/><g clip-path="url(#a)"><path d="m10.22 10.01h19.01v13.64h-19.01z" fill="none" stroke="#000" stroke-width=".45"/></g><path d="m26.28 76.75 2.05-1.19-2.05-1.19z" fill="#231f20"/></svg>