<svg viewBox="0 0 147.94 113" xmlns="http://www.w3.org/2000/svg" xmlns:xlink="http://www.w3.org/1999/xlink"><clipPath id="a"><path d="m10 17.59h127.94v77.82h-127.94z"/></clipPath><path d="m31.61 17.67h106.19v77.56h-106.19z" fill="#e6e6e6"/><g fill="none" stroke="#000" stroke-width=".45"><g clip-path="url(#a)"><path d="m118.58 17.98h19.01v13.64h-19.01z"/><path d="m75.23 17.95h19.01v13.64h-19.01z"/><path d="m96.91 17.95h19.01v13.64h-19.01z"/><path d="m118.58 33.85h19.01v13.64h-19.01z"/></g><path d="m53.56 33.81h19.01v13.64h-19.01z"/><g clip-path="url(#a)"><path d="m53.56 17.95h19.01v13.64h-19.01z"/><path d="m118.58 65.58h19.01v13.64h-19.01z"/></g><path d="m53.56 65.54h19.01v13.64h-19.01z"/></g><g clip-path="url(#a)"><path d="m118.58 49.71h19.01v13.64h-19.01z" fill="none" stroke="#000" stroke-width=".45"/></g><g fill="none" stroke="#000" stroke-width=".45"><path d="m53.56 49.68h19.01v13.64h-19.01z"/><g clip-path="url(#a)"><path d="m118.58 81.44h19.01v13.64h-19.01z"/><path d="m53.56 81.41h19.01v13.64h-19.01z"/></g><path d="m75.23 33.81h19.01v13.64h-19.01z"/><path d="m75.23 65.54h19.01v13.64h-19.01z"/><path d="m75.23 49.68h19.01v13.64h-19.01z"/></g><g clip-path="url(#a)"><path d="m75.23 81.41h19.01v13.64h-19.01z" fill="none" stroke="#000" stroke-width=".45"/></g><g fill="none" stroke="#000" stroke-width=".45"><path d="m96.91 33.81h19.01v13.64h-19.01z"/><path d="m31.89 33.81h19.01v13.64h-19.01z"/><g clip-path="url(#a)"><path d="m10.22 33.81h19.01v13.64h-19.01z"/><path d="m31.89 17.95h19.01v13.64h-19.01z"/><path d="m10.22 17.95h19.01v13.64h-19.01z"/></g><path d="m96.91 65.54h19.01v13.64h-19.01z"/><path d="m31.89 65.54h19.01v13.64h-19.01z"/></g><g clip-path="url(#a)"><path d="m10.22 65.54h19.01v13.64h-19.01z" fill="none" stroke="#000" stroke-width=".45"/></g><path d="m96.91 49.68h19.01v13.64h-19.01z" fill="none" stroke="#000" stroke-width=".45"/><path d="m31.89 49.68h19.01v13.64h-19.01z" fill="none" stroke="#000" stroke-width=".45"/><g clip-path="url(#a)" fill="none" stroke="#000" stroke-width=".45"><path d="m10.22 49.68h19.01v13.64h-19.01z"/><path d="m96.91 81.41h19.01v13.64h-19.01z"/><path d="m31.89 81.41h19.01v13.64h-19.01z"/><path d="m10.22 81.41h19.01v13.64h-19.01z"/></g><path d="m26.41 68.69 2.05-1.19-2.05-1.19z" fill="#231f20"/></svg>