<svg viewBox="0 0 148.07 113" xmlns="http://www.w3.org/2000/svg" xmlns:xlink="http://www.w3.org/1999/xlink"><clipPath id="a"><path d="m10 25.59h128.07v61.82h-128.07z"/></clipPath><path d="m75.1 25.73h62.84v45.8h-62.84z" fill="#c8c8c8"/><path d="m10.11 25.69h62.95v45.86h-62.95z" fill="#e6e6e6"/><g clip-path="url(#a)"><path d="m10.36 57.68h19.01v13.64h-19.01z" fill="none" stroke="#000" stroke-width=".45"/></g><path d="m75.37 57.68h19.01v13.64h-19.01z" fill="none" stroke="#000" stroke-width=".45"/><path d="m53.7 57.68h19.01v13.64h-19.01z" fill="none" stroke="#000" stroke-width=".45"/><path d="m118.71 57.68h19.01v13.64h-19.01z" fill="none" stroke="#000" stroke-width=".45"/><path d="m53.7 73.54h19.01v13.64h-19.01z" fill="#fff"/><g clip-path="url(#a)"><path d="m53.7 73.54h19.01v13.64h-19.01z" fill="none" stroke="#000" stroke-width=".45"/></g><path d="m118.71 73.54h19v13.64h-19z" fill="#fff"/><g clip-path="url(#a)"><path d="m118.71 73.54h19.01v13.64h-19.01z" fill="none" stroke="#000" stroke-width=".45"/></g><path d="m32.03 57.68h19.01v13.64h-19.01z" fill="none" stroke="#000" stroke-width=".45"/><path d="m97.04 57.68h19.01v13.64h-19.01z" fill="none" stroke="#000" stroke-width=".45"/><g clip-path="url(#a)"><path d="m10.36 41.81h19.01v13.64h-19.01z" fill="none" stroke="#000" stroke-width=".45"/></g><g fill="none" stroke="#000" stroke-width=".45"><path d="m75.37 41.81h19.01v13.64h-19.01z"/><g clip-path="url(#a)"><path d="m10.36 25.95h19.01v13.64h-19.01z"/><path d="m75.37 25.95h19.01v13.64h-19.01z"/></g><path d="m53.7 41.81h19.01v13.64h-19.01z"/><path d="m118.71 41.81h19.01v13.64h-19.01z"/><g clip-path="url(#a)"><path d="m53.7 25.95h19.01v13.64h-19.01z"/><path d="m118.71 25.95h19.01v13.64h-19.01z"/></g><path d="m32.03 41.81h19.01v13.64h-19.01z"/><path d="m97.04 41.81h19.01v13.64h-19.01z"/><g clip-path="url(#a)"><path d="m32.03 25.95h19.01v13.64h-19.01z"/><path d="m97.04 25.95h19.01v13.64h-19.01z"/></g></g><path d="m10.36 73.54h19v13.64h-19z" fill="#fff"/><g clip-path="url(#a)"><path d="m10.36 73.54h19.01v13.64h-19.01z" fill="none" stroke="#000" stroke-width=".45"/></g><path d="m75.37 73.54h19v13.64h-19z" fill="#fff"/><g clip-path="url(#a)"><path d="m75.37 73.54h19.01v13.64h-19.01z" fill="none" stroke="#000" stroke-width=".45"/></g><path d="m32.03 73.54h19v13.64h-19z" fill="#fff"/><g clip-path="url(#a)"><path d="m32.03 73.54h19.01v13.64h-19.01z" fill="none" stroke="#000" stroke-width=".45"/></g><path d="m97.04 73.54h19v13.64h-19z" fill="#fff"/><g clip-path="url(#a)"><path d="m97.04 73.54h19.01v13.64h-19.01z" fill="none" stroke="#000" stroke-width=".45"/></g><path d="m27.44 76.5-1.19-2.05-1.19 2.05z" fill="#231f20"/></svg>