<svg viewBox="0 0 169.74 113" xmlns="http://www.w3.org/2000/svg" xmlns:xlink="http://www.w3.org/1999/xlink"><clipPath id="a"><path d="m6.14 12.21h149.74v77.69h-149.74z"/></clipPath><clipPath id="b"><path d="m6.14 12.34h149.74v77.56h-149.74z"/></clipPath><path d="m92.96 12.33h62.79v45.83h-62.79z" fill="#c8c8c8"/><path d="m6.28 12.33h84.46v61.69h-84.46z" fill="#e6e6e6"/><g clip-path="url(#a)"><path d="m6.5 60.16h19.01v13.64h-19.01z" fill="none" stroke="#000" stroke-width=".45"/></g><path d="m93.18 60.16h19.01v13.64h-19.01z" fill="#fff"/><path d="m93.18 60.16h19.01v13.64h-19.01z" fill="none" stroke="#000" stroke-width=".45"/><path d="m49.84 60.16h19.01v13.64h-19.01z" fill="none" stroke="#000" stroke-width=".45"/><path d="m136.52 60.16h19.01v13.64h-19.01z" fill="#fff"/><g clip-path="url(#a)"><path d="m136.52 60.16h19.01v13.64h-19.01z" fill="none" stroke="#000" stroke-width=".45"/></g><path d="m49.84 76.03h19.01v13.64h-19.01z" fill="#fff"/><g clip-path="url(#a)"><path d="m49.84 76.03h19.01v13.64h-19.01z" fill="none" stroke="#000" stroke-width=".45"/></g><path d="m136.52 76.03h19.01v13.64h-19.01z" fill="#fff"/><g clip-path="url(#a)"><path d="m136.52 76.03h19.01v13.64h-19.01z" fill="none" stroke="#000" stroke-width=".45"/></g><path d="m28.17 60.16h19.01v13.64h-19.01z" fill="none" stroke="#000" stroke-width=".45"/><path d="m114.85 60.16h19.01v13.64h-19.01z" fill="#fff"/><path d="m114.85 60.16h19.01v13.64h-19.01z" fill="none" stroke="#000" stroke-width=".45"/><g clip-path="url(#a)"><path d="m6.5 44.3h19.01v13.64h-19.01z" fill="none" stroke="#000" stroke-width=".45"/></g><path d="m93.18 44.3h19.01v13.64h-19.01z" fill="none" stroke="#000" stroke-width=".45"/><path d="m71.51 44.3h19.01v13.64h-19.01z" fill="none" stroke="#000" stroke-width=".45"/><path d="m71.51 60.16h19.01v13.64h-19.01z" fill="none" stroke="#000" stroke-width=".45"/><path d="m71.51 76.03h19v13.64h-19z" fill="#fff"/><g fill="none" stroke="#000" stroke-width=".45"><g clip-path="url(#a)"><path d="m71.51 76.03h19.01v13.64h-19.01z"/><path d="m6.5 12.56h19.01v13.64h-19.01z"/><path d="m93.18 12.56h19.01v13.64h-19.01z"/><path d="m71.51 12.56h19.01v13.64h-19.01z"/><path d="m6.5 28.43h19.01v13.64h-19.01z"/></g><path d="m93.18 28.43h19.01v13.64h-19.01z"/><path d="m71.51 28.43h19.01v13.64h-19.01z"/><path d="m49.84 44.3h19.01v13.64h-19.01z"/><g clip-path="url(#a)"><path d="m136.52 44.3h19.01v13.64h-19.01z"/><path d="m49.84 12.56h19.01v13.64h-19.01z"/><path d="m136.52 12.56h19.01v13.64h-19.01z"/></g><path d="m49.84 28.43h19.01v13.64h-19.01z"/></g><g clip-path="url(#a)"><path d="m136.52 28.43h19.01v13.64h-19.01z" fill="none" stroke="#000" stroke-width=".45"/></g><g fill="none" stroke="#000" stroke-width=".45"><path d="m28.17 44.3h19.01v13.64h-19.01z"/><path d="m114.85 44.3h19.01v13.64h-19.01z"/><g clip-path="url(#a)"><path d="m28.17 12.56h19.01v13.64h-19.01z"/><path d="m114.85 12.56h19.01v13.64h-19.01z"/></g><path d="m28.17 28.43h19.01v13.64h-19.01z"/><path d="m114.85 28.43h19.01v13.64h-19.01z"/></g><path d="m6.5 76.03h19v13.64h-19z" fill="#fff"/><g clip-path="url(#a)"><path d="m6.5 76.03h19.01v13.64h-19.01z" fill="none" stroke="#000" stroke-width=".45"/></g><path d="m93.18 76.03h19v13.64h-19z" fill="#fff"/><g clip-path="url(#a)"><path d="m93.18 76.03h19.01v13.64h-19.01z" fill="none" stroke="#000" stroke-width=".45"/></g><path d="m28.17 76.03h19v13.64h-19z" fill="#fff"/><g clip-path="url(#a)"><path d="m28.17 76.03h19.01v13.64h-19.01z" fill="none" stroke="#000" stroke-width=".45"/></g><path d="m114.85 76.03h19v13.64h-19z" fill="#fff"/><g clip-path="url(#b)"><path d="m114.85 76.05h19.01v13.62h-19.01z" fill="none" stroke="#000" stroke-width=".45"/></g><path d="m24.73 78.98-1.18-2.05-1.19 2.05z" fill="#231f20"/></svg>