<svg viewBox="0 0 213.22 113" xmlns="http://www.w3.org/2000/svg" xmlns:xlink="http://www.w3.org/1999/xlink"><clipPath id="a"><path d="m10 9.72h193.23v93.56h-193.23z"/></clipPath><clipPath id="b"><path d="m10.15 9.72h193.08v93.56h-193.08z"/></clipPath><path d="m10.13 9.85h106.13v77.57h-106.13z" fill="#e6e6e6"/><path d="m118.62 9.86h84.45v61.7h-84.45z" fill="#c8c8c8"/><g clip-path="url(#a)"><path d="m10.36 73.54h19.01v13.64h-19.01z" fill="none" stroke="#000" stroke-width=".45"/></g><path d="m118.85 73.54h19.01v13.64h-19.01z" fill="#fff"/><path d="m118.85 73.54h19.01v13.64h-19.01z" fill="none" stroke="#000" stroke-width=".45"/><path d="m53.7 73.54h19.01v13.64h-19.01z" fill="none" stroke="#000" stroke-width=".45"/><path d="m162.19 73.54h19.01v13.64h-19.01z" fill="#fff"/><path d="m162.19 73.54h19.01v13.64h-19.01z" fill="none" stroke="#000" stroke-width=".45"/><path d="m53.7 89.41h19.01v13.64h-19.01z" fill="#fff"/><g clip-path="url(#a)"><path d="m53.7 89.41h19.01v13.64h-19.01z" fill="none" stroke="#000" stroke-width=".45"/></g><path d="m162.19 89.41h19.01v13.64h-19.01z" fill="#fff"/><g clip-path="url(#a)"><path d="m162.19 89.41h19.01v13.64h-19.01z" fill="none" stroke="#000" stroke-width=".45"/></g><path d="m32.03 73.54h19.01v13.64h-19.01z" fill="none" stroke="#000" stroke-width=".45"/><path d="m140.52 73.54h19.01v13.64h-19.01z" fill="#fff"/><path d="m140.52 73.54h19.01v13.64h-19.01z" fill="none" stroke="#000" stroke-width=".45"/><g clip-path="url(#a)"><path d="m10.36 57.68h19.01v13.64h-19.01z" fill="none" stroke="#000" stroke-width=".45"/></g><path d="m118.85 57.68h19.01v13.64h-19.01z" fill="none" stroke="#000" stroke-width=".45"/><path d="m75.37 57.68h19.01v13.64h-19.01z" fill="none" stroke="#000" stroke-width=".45"/><path d="m183.86 57.68h19.01v13.64h-19.01z" fill="none" stroke="#000" stroke-width=".45"/><path d="m75.37 73.54h19.01v13.64h-19.01z" fill="none" stroke="#000" stroke-width=".45"/><path d="m183.86 73.54h19.01v13.64h-19.01z" fill="#fff"/><path d="m183.86 73.54h19.01v13.64h-19.01z" fill="none" stroke="#000" stroke-width=".45"/><path d="m75.37 89.41h19v13.64h-19z" fill="#fff"/><g clip-path="url(#a)"><path d="m75.37 89.41h19.01v13.64h-19.01z" fill="none" stroke="#000" stroke-width=".45"/></g><path d="m183.86 89.41h19.01v13.64h-19.01z" fill="#fff"/><g clip-path="url(#b)" fill="none" stroke="#000" stroke-width=".45"><path d="m183.88 89.41h18.99v13.64h-18.99z"/><path d="m10.51 25.95h18.99v13.64h-18.99z"/></g><path d="m118.85 25.95h19.01v13.64h-19.01z" fill="none" stroke="#000" stroke-width=".45"/><path d="m75.37 25.95h19.01v13.64h-19.01z" fill="none" stroke="#000" stroke-width=".45"/><path d="m183.86 25.95h19.01v13.64h-19.01z" fill="none" stroke="#000" stroke-width=".45"/><g clip-path="url(#a)"><path d="m10.36 41.81h19.01v13.64h-19.01z" fill="none" stroke="#000" stroke-width=".45"/></g><g fill="none" stroke="#000" stroke-width=".45"><path d="m118.85 41.81h19.01v13.64h-19.01z"/><path d="m75.37 41.81h19.01v13.64h-19.01z"/><path d="m183.86 41.81h19.01v13.64h-19.01z"/><g clip-path="url(#a)"><path d="m10.36 10.08h19.01v13.64h-19.01z"/><path d="m118.85 10.08h19.01v13.64h-19.01z"/><path d="m75.37 10.08h19.01v13.64h-19.01z"/><path d="m183.86 10.08h19.01v13.64h-19.01z"/></g><path d="m53.7 57.68h19.01v13.64h-19.01z"/><path d="m162.19 57.68h19.01v13.64h-19.01z"/><path d="m53.7 25.95h19.01v13.64h-19.01z"/><path d="m162.19 25.95h19.01v13.64h-19.01z"/><path d="m53.7 41.81h19.01v13.64h-19.01z"/><path d="m162.19 41.81h19.01v13.64h-19.01z"/><g clip-path="url(#a)"><path d="m53.7 10.08h19.01v13.64h-19.01z"/><path d="m162.19 10.08h19.01v13.64h-19.01z"/></g><path d="m32.03 57.68h19.01v13.64h-19.01z"/><path d="m140.52 57.68h19.01v13.64h-19.01z"/><path d="m97.04 57.68h19.01v13.64h-19.01z"/><path d="m97.04 73.54h19.01v13.64h-19.01z"/></g><path d="m97.04 89.41h19v13.64h-19z" fill="#fff"/><g clip-path="url(#a)"><path d="m97.04 89.41h19.01v13.64h-19.01z" fill="none" stroke="#000" stroke-width=".45"/></g><g fill="none" stroke="#000" stroke-width=".45"><path d="m32.03 25.95h19.01v13.64h-19.01z"/><path d="m140.52 25.95h19.01v13.64h-19.01z"/><path d="m97.04 25.95h19.01v13.64h-19.01z"/><path d="m32.03 41.81h19.01v13.64h-19.01z"/><path d="m140.52 41.81h19.01v13.64h-19.01z"/><path d="m97.04 41.81h19.01v13.64h-19.01z"/><g clip-path="url(#a)"><path d="m32.03 10.08h19.01v13.64h-19.01z"/><path d="m140.52 10.08h19.01v13.64h-19.01z"/><path d="m97.04 10.08h19.01v13.64h-19.01z"/></g></g><path d="m10.36 89.41h19v13.64h-19z" fill="#fff"/><g clip-path="url(#a)"><path d="m10.36 89.41h19.01v13.64h-19.01z" fill="none" stroke="#000" stroke-width=".45"/></g><path d="m118.85 89.41h19.01v13.64h-19.01z" fill="#fff"/><g clip-path="url(#a)"><path d="m118.85 89.41h19.01v13.64h-19.01z" fill="none" stroke="#000" stroke-width=".45"/></g><path d="m32.03 89.41h19v13.64h-19z" fill="#fff"/><g clip-path="url(#a)"><path d="m32.03 89.41h19.01v13.64h-19.01z" fill="none" stroke="#000" stroke-width=".45"/></g><path d="m140.52 89.41h19.01v13.64h-19.01z" fill="#fff"/><g clip-path="url(#a)"><path d="m140.52 89.41h19.01v13.64h-19.01z" fill="none" stroke="#000" stroke-width=".45"/></g><path d="m28.59 92.37-1.18-2.06-1.19 2.06z" fill="#231f20"/></svg>