<svg viewBox="0 0 61.26 113" xmlns="http://www.w3.org/2000/svg" xmlns:xlink="http://www.w3.org/1999/xlink"><clipPath id="a"><path d="m10 33.45h41.26v46.09h-41.26z"/></clipPath><path d="m31.65 65.35h19.21v13.99h-19.21z" fill="#e6e6e6"/><path d="m31.37 33.7h19.24v13.94h-19.24z" fill="#969696"/><path d="m31.4 49.6h19.38v13.71h-19.38z" fill="#c8c8c8"/><path d="m10.23 49.68h19v13.64h-19z" fill="#fff"/><g clip-path="url(#a)"><path d="m10.23 49.68h19.01v13.64h-19.01z" fill="none" stroke="#000" stroke-width=".45"/></g><path d="m31.56 49.68h19.01v13.64h-19.01z" fill="none" stroke="#000" stroke-width=".45"/><path d="m10.23 33.81h19v13.64h-19z" fill="#fff"/><g clip-path="url(#a)"><path d="m10.23 33.81h19.01v13.64h-19.01z" fill="none" stroke="#000" stroke-width=".45"/></g><path d="m31.56 33.81h19.01v13.64h-19.01z" fill="none" stroke="#000" stroke-width=".45"/><path d="m10.23 65.54h19v13.64h-19z" fill="#fff"/><g clip-path="url(#a)" fill="none" stroke="#000" stroke-width=".45"><path d="m10.23 65.54h19.01v13.64h-19.01z"/><path d="m31.9 65.54h19.01v13.64h-19.01z"/></g><path d="m26.28 52.53 2.05-1.19-2.05-1.18z" fill="#231f20"/></svg>