<svg viewBox="0 0 83.04 113" xmlns="http://www.w3.org/2000/svg" xmlns:xlink="http://www.w3.org/1999/xlink"><clipPath id="a"><path d="m10 33.52h63.04v45.96h-63.04z"/></clipPath><path d="m53.63 33.9h19.18v13.8h-19.18z" fill="#e6e6e6"/><path d="m53.53 49.57h19.31v13.82h-19.31z" fill="#969696"/><path d="m10.11 33.63h41.13v29.99h-41.13z" fill="#c8c8c8"/><path d="m32 49.74h19.01v13.64h-19.01z" fill="none" stroke="#000" stroke-width=".45"/><g clip-path="url(#a)"><path d="m10.33 49.74h19.01v13.64h-19.01z" fill="none" stroke="#000" stroke-width=".45"/></g><path d="m53.67 49.74h19.01v13.64h-19.01z" fill="none" stroke="#000" stroke-width=".45"/><g clip-path="url(#a)" fill="none" stroke="#000" stroke-width=".45"><path d="m32 33.88h19.01v13.64h-19.01z"/><path d="m10.33 33.88h19.01v13.64h-19.01z"/><path d="m53.67 33.88h19.01v13.64h-19.01z"/></g><path d="m32 65.61h19v13.64h-19z" fill="#fff"/><g clip-path="url(#a)"><path d="m32 65.61h19.01v13.64h-19.01z" fill="none" stroke="#000" stroke-width=".45"/></g><path d="m10.33 65.61h19v13.64h-19z" fill="#fff"/><g clip-path="url(#a)"><path d="m10.33 65.61h19.01v13.64h-19.01z" fill="none" stroke="#000" stroke-width=".45"/></g><path d="m53.67 65.61h19.01v13.64h-19.01z" fill="#fff"/><g clip-path="url(#a)"><path d="m53.67 65.61h19.01v13.64h-19.01z" fill="none" stroke="#000" stroke-width=".45"/></g><path d="m13.48 68.57-1.18-2.05-1.19 2.05z" fill="#231f20"/></svg>