<svg viewBox="0 0 61.37 113" xmlns="http://www.w3.org/2000/svg" xmlns:xlink="http://www.w3.org/1999/xlink"><clipPath id="a"><path d="m10 33.52h41.37v45.96h-41.37z"/></clipPath><path d="m32.16 33.89h18.72v13.82h-18.72z" fill="#e6e6e6"/><path d="m10.26 49.6h19.19v13.82h-19.19z" fill="#969696"/><path d="m10.2 33.6h19.25v14.05h-19.25z" fill="#c8c8c8"/><path d="m32 49.75h19v13.64h-19z" fill="#fff"/><path d="m32 49.74h19.01v13.64h-19.01z" fill="none" stroke="#000" stroke-width=".45"/><g clip-path="url(#a)" fill="none" stroke="#000" stroke-width=".45"><path d="m10.34 49.74h19.01v13.64h-19.01z"/><path d="m32 33.88h19.01v13.64h-19.01z"/><path d="m10.34 33.88h19.01v13.64h-19.01z"/></g><path d="m32 65.61h19v13.64h-19z" fill="#fff"/><g clip-path="url(#a)"><path d="m32 65.61h19.01v13.64h-19.01z" fill="none" stroke="#000" stroke-width=".45"/></g><path d="m10.34 65.61h19v13.64h-19z" fill="#fff"/><g clip-path="url(#a)"><path d="m10.34 65.61h19.01v13.64h-19.01z" fill="none" stroke="#000" stroke-width=".45"/></g><path d="m13.48 68.57-1.18-2.05-1.19 2.05z" fill="#231f20"/></svg>