<svg viewBox="0 0 104.73 113" xmlns="http://www.w3.org/2000/svg" xmlns:xlink="http://www.w3.org/1999/xlink"><clipPath id="a"><path d="m10 33.45h84.73v46.09h-84.73z"/></clipPath><path d="m53.42 33.58h41.19v29.96h-41.19z" fill="#e6e6e6"/><path d="m53.52 65.34h19.33v13.96h-19.33z" fill="#969696"/><path d="m10.12 33.59h41.11v29.95h-41.11z" fill="#c8c8c8"/><path d="m32 49.68h19.01v13.64h-19.01z" fill="none" stroke="#000" stroke-width=".45"/><g clip-path="url(#a)"><path d="m10.33 49.68h19.01v13.64h-19.01z" fill="none" stroke="#000" stroke-width=".45"/></g><path d="m53.67 49.68h19.01v13.64h-19.01z" fill="none" stroke="#000" stroke-width=".45"/><g clip-path="url(#a)"><path d="m75.37 49.68h19.01v13.64h-19.01z" fill="none" stroke="#000" stroke-width=".45"/></g><path d="m32 33.81h19.01v13.64h-19.01z" fill="none" stroke="#000" stroke-width=".45"/><g clip-path="url(#a)"><path d="m10.33 33.81h19.01v13.64h-19.01z" fill="none" stroke="#000" stroke-width=".45"/></g><path d="m53.67 33.81h19.01v13.64h-19.01z" fill="none" stroke="#000" stroke-width=".45"/><g clip-path="url(#a)"><path d="m75.37 33.81h19.01v13.64h-19.01z" fill="none" stroke="#000" stroke-width=".45"/></g><path d="m32 65.54h19v13.64h-19z" fill="#fff"/><g clip-path="url(#a)"><path d="m32 65.54h19.01v13.64h-19.01z" fill="none" stroke="#000" stroke-width=".45"/></g><path d="m10.33 65.54h19v13.64h-19z" fill="#fff"/><g clip-path="url(#a)" fill="none" stroke="#000" stroke-width=".45"><path d="m10.33 65.54h19.01v13.64h-19.01z"/><path d="m53.67 65.54h19.01v13.64h-19.01z"/></g><path d="m75.37 65.54h19v13.64h-19z" fill="#fff"/><g clip-path="url(#a)"><path d="m75.37 65.54h19.01v13.64h-19.01z" fill="none" stroke="#000" stroke-width=".45"/></g><path d="m13.48 68.5-1.18-2.05-1.19 2.05z" fill="#231f20"/></svg>