<svg viewBox="0 0 126.4 113" xmlns="http://www.w3.org/2000/svg" xmlns:xlink="http://www.w3.org/1999/xlink"><clipPath id="a"><path d="m10 25.52h106.4v61.96h-106.4z"/></clipPath><path d="m75.09 57.37h41.17v29.97h-41.17z" fill="#969696"/><path d="m75.2 25.65h41.07v29.97h-41.07z" fill="#c8c8c8"/><path d="m10.22 25.79h62.61v45.64h-62.61z" fill="#e6e6e6"/><path d="m75.37 57.61h19.01v13.64h-19.01z" fill="none" stroke="#000" stroke-width=".45"/><path d="m53.7 57.61h19.01v13.64h-19.01z" fill="none" stroke="#000" stroke-width=".45"/><path d="m53.7 73.48h19.01v13.64h-19.01z" fill="#fff"/><g clip-path="url(#a)"><path d="m53.7 73.48h19.01v13.64h-19.01z" fill="none" stroke="#000" stroke-width=".45"/></g><g fill="none" stroke="#000" stroke-width=".45"><path d="m32.03 57.61h19.01v13.64h-19.01z"/><path d="m97.04 57.61h19.01v13.64h-19.01z"/><g clip-path="url(#a)"><path d="m10.36 41.74h19.01v13.64h-19.01z"/><path d="m10.36 57.62h19.01v13.64h-19.01z"/></g><path d="m75.37 41.74h19.01v13.64h-19.01z"/><g clip-path="url(#a)"><path d="m10.36 25.88h19.01v13.64h-19.01z"/><path d="m75.37 25.88h19.01v13.64h-19.01z"/></g><path d="m53.7 41.74h19.01v13.64h-19.01z"/></g><g clip-path="url(#a)"><path d="m53.7 25.88h19.01v13.64h-19.01z" fill="none" stroke="#000" stroke-width=".45"/></g><path d="m32.03 41.74h19.01v13.64h-19.01z" fill="none" stroke="#000" stroke-width=".45"/><path d="m97.04 41.74h19.01v13.64h-19.01z" fill="none" stroke="#000" stroke-width=".45"/><g clip-path="url(#a)" fill="none" stroke="#000" stroke-width=".45"><path d="m32.03 25.88h19.01v13.64h-19.01z"/><path d="m97.04 25.88h19.01v13.64h-19.01z"/></g><path d="m10.36 73.48h19v13.64h-19z" fill="#fff"/><g clip-path="url(#a)" fill="none" stroke="#000" stroke-width=".45"><path d="m10.36 73.48h19.01v13.64h-19.01z"/><path d="m75.37 73.48h19.01v13.64h-19.01z"/></g><path d="m32.03 73.48h19v13.64h-19z" fill="#fff"/><g clip-path="url(#a)"><path d="m32.03 73.48h19.01v13.64h-19.01z" fill="none" stroke="#000" stroke-width=".45"/><path d="m97.04 73.48h19.01v13.64h-19.01z" fill="none" stroke="#000" stroke-width=".45"/><path d="m27.05 76.21-.8-1.38c-.26.46-.53.92-.8 1.38z" fill="#231f20"/><path d="m27.05 76.21-.8-1.38c-.26.46-.53.92-.8 1.38z" fill="none" stroke="#000" stroke-width=".45"/></g></svg>