<svg viewBox="0 0 126.4 113" xmlns="http://www.w3.org/2000/svg" xmlns:xlink="http://www.w3.org/1999/xlink"><clipPath id="a"><path d="m10 25.59h106.4v61.82h-106.4z"/></clipPath><path d="m96.95 57.57h19.17v13.79h-19.17z" fill="#969696"/><path d="m75.15 25.71h41.13v29.97h-41.13z" fill="#c8c8c8"/><path d="m10.13 25.71h62.81v45.85h-62.81z" fill="#e6e6e6"/><g clip-path="url(#a)"><path d="m10.36 57.68h19.01v13.64h-19.01z" fill="none" stroke="#000" stroke-width=".45"/></g><path d="m75.37 57.68h19.01v13.64h-19.01z" fill="#fff"/><path d="m75.37 57.68h19.01v13.64h-19.01z" fill="none" stroke="#000" stroke-width=".45"/><path d="m53.7 57.68h19.01v13.64h-19.01z" fill="none" stroke="#000" stroke-width=".45"/><path d="m53.7 73.54h19.01v13.64h-19.01z" fill="#fff"/><g clip-path="url(#a)"><path d="m53.7 73.54h19.01v13.64h-19.01z" fill="none" stroke="#000" stroke-width=".45"/></g><path d="m32.03 57.68h19.01v13.64h-19.01z" fill="none" stroke="#000" stroke-width=".45"/><path d="m97.04 57.68h19.01v13.64h-19.01z" fill="none" stroke="#000" stroke-width=".45"/><g clip-path="url(#a)"><path d="m10.36 41.81h19.01v13.64h-19.01z" fill="none" stroke="#000" stroke-width=".45"/></g><g fill="none" stroke="#000" stroke-width=".45"><path d="m75.37 41.81h19.01v13.64h-19.01z"/><g clip-path="url(#a)"><path d="m10.36 25.95h19.01v13.64h-19.01z"/><path d="m75.37 25.95h19.01v13.64h-19.01z"/></g><path d="m53.7 41.81h19.01v13.64h-19.01z"/></g><g clip-path="url(#a)"><path d="m53.7 25.95h19.01v13.64h-19.01z" fill="none" stroke="#000" stroke-width=".45"/></g><path d="m32.03 41.81h19.01v13.64h-19.01z" fill="none" stroke="#000" stroke-width=".45"/><path d="m97.04 41.81h19.01v13.64h-19.01z" fill="none" stroke="#000" stroke-width=".45"/><g clip-path="url(#a)" fill="none" stroke="#000" stroke-width=".45"><path d="m32.03 25.95h19.01v13.64h-19.01z"/><path d="m97.04 25.95h19.01v13.64h-19.01z"/></g><path d="m10.36 73.54h19v13.64h-19z" fill="#fff"/><g clip-path="url(#a)"><path d="m10.36 73.54h19.01v13.64h-19.01z" fill="none" stroke="#000" stroke-width=".45"/></g><path d="m75.37 73.54h19v13.64h-19z" fill="#fff"/><g clip-path="url(#a)"><path d="m75.37 73.54h19.01v13.64h-19.01z" fill="none" stroke="#000" stroke-width=".45"/></g><path d="m32.03 73.54h19v13.64h-19z" fill="#fff"/><g clip-path="url(#a)"><path d="m32.03 73.54h19.01v13.64h-19.01z" fill="none" stroke="#000" stroke-width=".45"/></g><path d="m97.04 73.54h19v13.64h-19z" fill="#fff"/><g clip-path="url(#a)"><path d="m97.04 73.54h19.01v13.64h-19.01z" fill="none" stroke="#000" stroke-width=".45"/></g><path d="m27.44 76.5-1.19-2.05-1.19 2.05z" fill="#231f20"/></svg>