<svg viewBox="0 0 169.69 113" xmlns="http://www.w3.org/2000/svg" xmlns:xlink="http://www.w3.org/1999/xlink"><clipPath id="a"><path d="m10 17.59h149.69v77.82h-149.69z"/></clipPath><path d="m118.26 65.19h41.39v30.23h-41.39z" fill="#969696"/><path d="m96.74 17.59h62.95v46.03h-62.95z" fill="#c8c8c8"/><path d="m10 17.59h84.73v61.96h-84.73z" fill="#e6e6e6"/><g clip-path="url(#a)"><path d="m10.36 65.54h19.01v13.64h-19.01z" fill="none" stroke="#000" stroke-width=".45"/></g><path d="m97.04 65.54h19.01v13.64h-19.01z" fill="#fff"/><path d="m97.04 65.54h19.01v13.64h-19.01z" fill="none" stroke="#000" stroke-width=".45"/><path d="m53.7 65.54h19.01v13.64h-19.01z" fill="none" stroke="#000" stroke-width=".45"/><path d="m53.7 81.41h19.01v13.64h-19.01z" fill="#fff"/><g clip-path="url(#a)"><path d="m53.7 81.41h19.01v13.64h-19.01z" fill="none" stroke="#000" stroke-width=".45"/></g><g fill="none" stroke="#000" stroke-width=".45"><path d="m32.03 65.54h19.01v13.64h-19.01z"/><path d="m118.71 65.54h19.01v13.64h-19.01z"/><g clip-path="url(#a)"><path d="m140.32 65.54h19.01v13.64h-19.01z"/><path d="m10.36 49.68h19.01v13.64h-19.01z"/></g><path d="m97.04 49.68h19.01v13.64h-19.01z"/><path d="m75.37 49.68h19.01v13.64h-19.01z"/><path d="m75.37 65.54h19.01v13.64h-19.01z"/></g><path d="m75.37 81.41h19v13.64h-19z" fill="#fff"/><g clip-path="url(#a)" fill="none" stroke="#000" stroke-width=".45"><path d="m75.37 81.41h19.01v13.64h-19.01z"/><path d="m10.36 17.95h19.01v13.64h-19.01z"/><path d="m97.04 17.95h19.01v13.64h-19.01z"/><path d="m75.37 17.95h19.01v13.64h-19.01z"/><path d="m10.36 33.81h19.01v13.64h-19.01z"/></g><path d="m97.04 33.81h19.01v13.64h-19.01z" fill="none" stroke="#000" stroke-width=".45"/><path d="m75.37 33.81h19.01v13.64h-19.01z" fill="none" stroke="#000" stroke-width=".45"/><path d="m53.7 49.68h19.01v13.64h-19.01z" fill="none" stroke="#000" stroke-width=".45"/><g clip-path="url(#a)"><path d="m53.7 17.95h19.01v13.64h-19.01z" fill="none" stroke="#000" stroke-width=".45"/></g><g fill="none" stroke="#000" stroke-width=".45"><path d="m53.7 33.81h19.01v13.64h-19.01z"/><path d="m32.03 49.68h19.01v13.64h-19.01z"/><path d="m118.71 49.68h19.01v13.64h-19.01z"/><g clip-path="url(#a)"><path d="m140.32 49.68h19.01v13.64h-19.01z"/><path d="m32.03 17.95h19.01v13.64h-19.01z"/><path d="m118.71 17.95h19.01v13.64h-19.01z"/><path d="m140.32 17.95h19.01v13.64h-19.01z"/></g><path d="m32.03 33.81h19.01v13.64h-19.01z"/><path d="m118.71 33.81h19.01v13.64h-19.01z"/></g><g clip-path="url(#a)"><path d="m140.32 33.81h19.01v13.64h-19.01z" fill="none" stroke="#000" stroke-width=".45"/></g><path d="m10.36 81.41h19v13.64h-19z" fill="#fff"/><g clip-path="url(#a)"><path d="m10.36 81.41h19.01v13.64h-19.01z" fill="none" stroke="#000" stroke-width=".45"/></g><path d="m97.04 81.41h19v13.64h-19z" fill="#fff"/><g clip-path="url(#a)"><path d="m97.04 81.41h19.01v13.64h-19.01z" fill="none" stroke="#000" stroke-width=".45"/></g><path d="m32.03 81.41h19v13.64h-19z" fill="#fff"/><g clip-path="url(#a)" fill="none" stroke="#000" stroke-width=".45"><path d="m32.03 81.41h19.01v13.64h-19.01z"/><path d="m118.71 81.41h19.01v13.64h-19.01z"/><path d="m140.32 81.41h19.01v13.64h-19.01z"/></g><path d="m28.59 84.37-1.18-2.06-1.19 2.06z" fill="#231f20"/></svg>