<svg viewBox="0 0 83.06 113" xmlns="http://www.w3.org/2000/svg" xmlns:xlink="http://www.w3.org/1999/xlink"><clipPath id="a"><path d="m10 41.39h63.06v30.23h-63.06z"/></clipPath><path d="m31.88 41.54h19.3v14.09h-19.3z" fill="#e6e6e6"/><path d="m53.45 41.5h19.49v29.95h-19.49z" fill="#969696"/><path d="m10.44 41.71h18.85v13.76h-18.85z" fill="#c8c8c8"/><path d="m32.03 41.74h19.01v13.64h-19.01z" fill="none" stroke="#000" stroke-width=".45"/><path d="m53.7 41.74h19.01v13.64h-19.01z" fill="none" stroke="#000" stroke-width=".45"/><g clip-path="url(#a)"><path d="m10.36 41.74h19.01v13.64h-19.01z" fill="none" stroke="#000" stroke-width=".45"/></g><path d="m32.03 57.61h19v13.64h-19z" fill="#fff"/><g clip-path="url(#a)" fill="none" stroke="#000" stroke-width=".45"><path d="m32.03 57.61h19.01v13.64h-19.01z"/><path d="m53.7 57.61h19.01v13.64h-19.01z"/></g><path d="m10.36 57.61h19v13.64h-19z" fill="#fff"/><g clip-path="url(#a)"><path d="m10.36 57.61h19.01v13.64h-19.01z" fill="none" stroke="#000" stroke-width=".45"/></g><path d="m28.92 60.57-1.19-2.05-1.18 2.05z" fill="#231f20"/></svg>