<svg viewBox="0 0 147.79 113" xmlns="http://www.w3.org/2000/svg"><path d="m96.66 26.06h41.12v29.97h-41.12z" fill="#969696"/><path d="m53.35 26.07h40.71v45.84h-40.71z" fill="#c8c8c8"/><path d="m10 41.93h41.11v29.99h-41.11z" fill="#e6e6e6"/><path d="m10.23 58.03h19.01v13.64h-19.01z" fill="none" stroke="#000" stroke-width=".45"/><path d="m75.24 58.03h19.01v13.64h-19.01z" fill="none" stroke="#000" stroke-width=".45"/><path d="m53.57 58.03h19.01v13.64h-19.01z" fill="none" stroke="#000" stroke-width=".45"/><path d="m96.9 58.03h19.01v13.64h-19.01z" fill="#fff"/><path d="m96.9 58.03h19.01v13.64h-19.01z" fill="none" stroke="#000" stroke-width=".45"/><path d="m118.57 58.03h19.01v13.64h-19.01z" fill="#fff"/><path d="m118.57 58.03h19.01v13.64h-19.01z" fill="none" stroke="#000" stroke-width=".45"/><path d="m53.57 73.89h19.01v13.64h-19.01z" fill="#fff"/><path d="m53.57 73.89h19.01v13.64h-19.01z" fill="none" stroke="#000" stroke-width=".45"/><path d="m96.9 73.89h19v13.64h-19z" fill="#fff"/><path d="m96.9 73.89h19.01v13.64h-19.01z" fill="none" stroke="#000" stroke-width=".45"/><path d="m118.57 73.89h19.01v13.64h-19.01z" fill="#fff"/><path d="m118.57 73.89h19.01v13.64h-19.01z" fill="none" stroke="#000" stroke-width=".45"/><path d="m31.9 58.03h19.01v13.64h-19.01z" fill="none" stroke="#000" stroke-width=".45"/><path d="m10.23 42.16h19.01v13.64h-19.01z" fill="none" stroke="#000" stroke-width=".45"/><path d="m75.24 42.16h19.01v13.64h-19.01z" fill="none" stroke="#000" stroke-width=".45"/><path d="m10.23 26.3h19v13.64h-19z" fill="#fff"/><g fill="none" stroke="#000" stroke-width=".45"><path d="m10.23 26.29h19.01v13.64h-19.01z"/><path d="m75.24 26.29h19.01v13.64h-19.01z"/><path d="m53.57 42.16h19.01v13.64h-19.01z"/><path d="m96.9 42.16h19.01v13.64h-19.01z"/><path d="m118.57 42.16h19.01v13.64h-19.01z"/><path d="m53.57 26.29h19.01v13.64h-19.01z"/><path d="m96.9 26.29h19.01v13.64h-19.01z"/><path d="m118.57 26.29h19.01v13.64h-19.01z"/><path d="m31.9 42.16h19.01v13.64h-19.01z"/></g><path d="m31.9 26.3h19v13.64h-19z" fill="#fff"/><path d="m31.9 26.29h19.01v13.64h-19.01z" fill="none" stroke="#000" stroke-width=".45"/><path d="m10.23 73.89h19v13.64h-19z" fill="#fff"/><path d="m10.23 73.89h19.01v13.64h-19.01z" fill="none" stroke="#000" stroke-width=".45"/><path d="m75.24 73.89h19v13.64h-19z" fill="#fff"/><path d="m75.24 73.89h19.01v13.64h-19.01z" fill="none" stroke="#000" stroke-width=".45"/><path d="m31.9 73.89h19v13.64h-19z" fill="#fff"/><path d="m31.9 73.89h19.01v13.64h-19.01z" fill="none" stroke="#000" stroke-width=".45"/><path d="m27.31 76.85-1.18-2.05-1.19 2.05z" fill="#231f20"/></svg>