<svg viewBox="0 0 104.3 113" xmlns="http://www.w3.org/2000/svg" xmlns:xlink="http://www.w3.org/1999/xlink"><clipPath id="a"><path d="m10 25.59h84.3v61.82h-84.3z"/></clipPath><path d="m74.58 57.32h19.72v14.36h-19.72z" fill="#969696"/><path d="m53.03 25.69h41.13v30.01h-41.13z" fill="#c8c8c8"/><path d="m10.12 25.69h41.12v45.86h-41.12z" fill="#e6e6e6"/><g clip-path="url(#a)"><path d="m10.36 57.68h19.01v13.64h-19.01z" fill="none" stroke="#000" stroke-width=".45"/></g><path d="m53.27 57.68h19.01v13.64h-19.01z" fill="#fff"/><path d="m53.27 57.68h19.01v13.64h-19.01z" fill="none" stroke="#000" stroke-width=".45"/><path d="m32.03 57.68h19.01v13.64h-19.01z" fill="none" stroke="#000" stroke-width=".45"/><path d="m74.94 57.68h19.01v13.64h-19.01z" fill="none" stroke="#000" stroke-width=".45"/><g clip-path="url(#a)"><path d="m10.36 41.81h19.01v13.64h-19.01z" fill="none" stroke="#000" stroke-width=".45"/></g><g fill="none" stroke="#000" stroke-width=".45"><path d="m53.27 41.81h19.01v13.64h-19.01z"/><g clip-path="url(#a)"><path d="m10.36 25.95h19.01v13.64h-19.01z"/><path d="m53.27 25.95h19.01v13.64h-19.01z"/></g><path d="m32.03 41.81h19.01v13.64h-19.01z"/><path d="m74.94 41.81h19.01v13.64h-19.01z"/><g clip-path="url(#a)"><path d="m32.03 25.95h19.01v13.64h-19.01z"/><path d="m74.94 25.95h19.01v13.64h-19.01z"/></g></g><path d="m10.36 73.54h19v13.64h-19z" fill="#fff"/><g clip-path="url(#a)"><path d="m10.36 73.54h19.01v13.64h-19.01z" fill="none" stroke="#000" stroke-width=".45"/></g><path d="m53.27 73.54h19.01v13.64h-19.01z" fill="#fff"/><g clip-path="url(#a)"><path d="m53.27 73.54h19.01v13.64h-19.01z" fill="none" stroke="#000" stroke-width=".45"/></g><path d="m32.03 73.54h19v13.64h-19z" fill="#fff"/><g clip-path="url(#a)"><path d="m32.03 73.54h19.01v13.64h-19.01z" fill="none" stroke="#000" stroke-width=".45"/></g><path d="m74.94 73.54h19v13.64h-19z" fill="#fff"/><g clip-path="url(#a)"><path d="m74.94 73.54h19.01v13.64h-19.01z" fill="none" stroke="#000" stroke-width=".45"/></g><path d="m27.44 76.5-1.19-2.05-1.19 2.05z" fill="#231f20"/></svg>