<svg viewBox="0 0 104.85 113" xmlns="http://www.w3.org/2000/svg" xmlns:xlink="http://www.w3.org/1999/xlink"><clipPath id="a"><path d="m10 17.66h84.85v77.69h-84.85z"/></clipPath><path d="m53.5 49.52h41.17v29.96h-41.17z" fill="#969696"/><path d="m53.5 17.78h41.14v29.97h-41.14z" fill="#c8c8c8"/><path d="m10.12 17.77h41.13v61.71h-41.13z" fill="#e6e6e6"/><g clip-path="url(#a)"><path d="m10.36 65.61h19.01v13.64h-19.01z" fill="none" stroke="#000" stroke-width=".45"/></g><g fill="none" stroke="#000" stroke-width=".45"><path d="m53.73 65.61h19.01v13.64h-19.01z"/><path d="m32.03 65.61h19.01v13.64h-19.01z"/><g clip-path="url(#a)"><path d="m75.4 65.61h19.01v13.64h-19.01z"/><path d="m10.36 49.74h19.01v13.64h-19.01z"/></g><path d="m53.73 49.74h19.01v13.64h-19.01z"/><g clip-path="url(#a)"><path d="m10.36 18.01h19.01v13.64h-19.01z"/><path d="m53.73 18.01h19.01v13.64h-19.01z"/><path d="m10.36 33.88h19.01v13.64h-19.01z"/></g><path d="m53.73 33.88h19.01v13.64h-19.01z"/><path d="m32.03 49.74h19.01v13.64h-19.01z"/><g clip-path="url(#a)"><path d="m75.4 49.74h19.01v13.64h-19.01z"/><path d="m32.03 18.01h19.01v13.64h-19.01z"/><path d="m75.4 18.01h19.01v13.64h-19.01z"/></g><path d="m32.03 33.88h19.01v13.64h-19.01z"/></g><g clip-path="url(#a)"><path d="m75.4 33.88h19.01v13.64h-19.01z" fill="none" stroke="#000" stroke-width=".45"/></g><path d="m10.36 81.48h19v13.64h-19z" fill="#fff"/><g clip-path="url(#a)"><path d="m10.36 81.48h19.01v13.64h-19.01z" fill="none" stroke="#000" stroke-width=".45"/></g><path d="m53.73 81.48h19.01v13.64h-19.01z" fill="#fff"/><g clip-path="url(#a)"><path d="m53.73 81.48h19.01v13.64h-19.01z" fill="none" stroke="#000" stroke-width=".45"/></g><path d="m32.03 81.48h19v13.64h-19z" fill="#fff"/><g clip-path="url(#a)"><path d="m32.03 81.48h19.01v13.64h-19.01z" fill="none" stroke="#000" stroke-width=".45"/></g><path d="m75.4 81.48h19v13.64h-19z" fill="#fff"/><g clip-path="url(#a)"><path d="m75.4 81.48h19.01v13.64h-19.01z" fill="none" stroke="#000" stroke-width=".45"/></g><path d="m28.59 84.43-1.18-2.05-1.19 2.05z" fill="#231f20"/></svg>