<svg viewBox="0 0 147.73 113" xmlns="http://www.w3.org/2000/svg" xmlns:xlink="http://www.w3.org/1999/xlink"><clipPath id="a"><path d="m10 9.64h127.73v93.72h-127.73z"/></clipPath><path d="m74.76 57.35h62.97v45.83h-62.97z" fill="#969696"/><path d="m10.12 9.76h62.8v77.58h-62.8z" fill="#e6e6e6"/><path d="m74.79 9.77h62.94v45.83h-62.94z" fill="#c8c8c8"/><g clip-path="url(#a)"><path d="m10.36 73.46h19.01v13.64h-19.01z" fill="none" stroke="#000" stroke-width=".45"/></g><path d="m75.03 73.46h19.01v13.64h-19.01z" fill="none" stroke="#000" stroke-width=".45"/><path d="m53.7 73.46h19.01v13.64h-19.01z" fill="none" stroke="#000" stroke-width=".45"/><g clip-path="url(#a)"><path d="m118.37 73.46h19.01v13.64h-19.01z" fill="none" stroke="#000" stroke-width=".45"/></g><path d="m53.7 89.33h19.01v13.64h-19.01z" fill="#fff"/><g clip-path="url(#a)" fill="none" stroke="#000" stroke-width=".45"><path d="m53.7 89.33h19.01v13.64h-19.01z"/><path d="m118.37 89.33h19.01v13.64h-19.01z"/></g><path d="m32.03 73.46h19.01v13.64h-19.01z" fill="none" stroke="#000" stroke-width=".45"/><path d="m96.7 73.46h19.01v13.64h-19.01z" fill="none" stroke="#000" stroke-width=".45"/><g clip-path="url(#a)"><path d="m10.36 57.59h19.01v13.64h-19.01z" fill="none" stroke="#000" stroke-width=".45"/></g><path d="m75.03 57.59h19.01v13.64h-19.01z" fill="none" stroke="#000" stroke-width=".45"/><g clip-path="url(#a)"><path d="m10.36 25.86h19.01v13.64h-19.01z" fill="none" stroke="#000" stroke-width=".45"/></g><path d="m75.03 25.86h19.01v13.64h-19.01z" fill="none" stroke="#000" stroke-width=".45"/><g clip-path="url(#a)"><path d="m10.36 41.73h19.01v13.64h-19.01z" fill="none" stroke="#000" stroke-width=".45"/></g><path d="m75.03 41.73h19.01v13.64h-19.01z" fill="none" stroke="#000" stroke-width=".45"/><g clip-path="url(#a)" fill="none" stroke="#000" stroke-width=".45"><path d="m10.36 10h19.01v13.64h-19.01z"/><path d="m75.03 10h19.01v13.64h-19.01z"/></g><path d="m53.7 57.59h19.01v13.64h-19.01z" fill="none" stroke="#000" stroke-width=".45"/><g clip-path="url(#a)"><path d="m118.37 57.59h19.01v13.64h-19.01z" fill="none" stroke="#000" stroke-width=".45"/></g><path d="m53.7 25.86h19.01v13.64h-19.01z" fill="none" stroke="#000" stroke-width=".45"/><g clip-path="url(#a)"><path d="m118.37 25.86h19.01v13.64h-19.01z" fill="none" stroke="#000" stroke-width=".45"/></g><g fill="none" stroke="#000" stroke-width=".45"><path d="m53.7 41.73h19.01v13.64h-19.01z"/><g clip-path="url(#a)"><path d="m118.37 41.73h19.01v13.64h-19.01z"/><path d="m53.7 10h19.01v13.64h-19.01z"/><path d="m118.37 10h19.01v13.64h-19.01z"/></g><path d="m32.03 57.59h19.01v13.64h-19.01z"/><path d="m96.7 57.59h19.01v13.64h-19.01z"/><path d="m32.03 25.86h19.01v13.64h-19.01z"/><path d="m96.7 25.86h19.01v13.64h-19.01z"/><path d="m32.03 41.73h19.01v13.64h-19.01z"/><path d="m96.7 41.73h19.01v13.64h-19.01z"/><g clip-path="url(#a)"><path d="m32.03 10h19.01v13.64h-19.01z"/><path d="m96.7 10h19.01v13.64h-19.01z"/></g></g><path d="m10.36 89.33h19v13.64h-19z" fill="#fff"/><g clip-path="url(#a)" fill="none" stroke="#000" stroke-width=".45"><path d="m10.36 89.33h19.01v13.64h-19.01z"/><path d="m75.03 89.33h19.01v13.64h-19.01z"/></g><path d="m32.03 89.33h19v13.64h-19z" fill="#fff"/><g clip-path="url(#a)" fill="none" stroke="#000" stroke-width=".45"><path d="m32.03 89.33h19.01v13.64h-19.01z"/><path d="m96.7 89.33h19.01v13.64h-19.01z"/></g><path d="m28.59 92.28-1.18-2.05-1.19 2.05z" fill="#231f20"/></svg>