<svg viewBox="0 0 61.39 113" xmlns="http://www.w3.org/2000/svg" xmlns:xlink="http://www.w3.org/1999/xlink"><clipPath id="a"><path d="m10 33.52h41.39v45.96h-41.39z"/></clipPath><path d="m26.5 38.91h29.97v19.48h-29.97z" fill="#c8c8c8" transform="matrix(.00226893 -.99999743 .99999743 .00226893 -7.26 90.02)"/><path d="m10.1 33.76h19.42v13.94h-19.42z" fill="#e6e6e6"/><path d="m10.32 49.75h19.01v13.64h-19.01z" fill="#fff"/><g clip-path="url(#a)"><path d="m10.32 49.74h19.01v13.64h-19.01z" fill="none" stroke="#000" stroke-width=".45"/></g><path d="m31.99 49.74h19.01v13.64h-19.01z" fill="none" stroke="#000" stroke-width=".45"/><g clip-path="url(#a)" fill="none" stroke="#000" stroke-width=".45"><path d="m10.32 33.88h19.01v13.64h-19.01z"/><path d="m31.99 33.88h19.01v13.64h-19.01z"/></g><path d="m10.32 65.61h19.01v13.64h-19.01z" fill="#fff"/><g clip-path="url(#a)"><path d="m10.32 65.61h19.01v13.64h-19.01z" fill="none" stroke="#000" stroke-width=".45"/></g><path d="m31.99 65.61h19.01v13.64h-19.01z" fill="#fff"/><g clip-path="url(#a)"><path d="m31.99 65.61h19.01v13.64h-19.01z" fill="none" stroke="#000" stroke-width=".45"/></g><path d="m28.58 68.57-1.18-2.05-1.19 2.05z" fill="#231f20"/></svg>