<svg viewBox="0 0 126.25 113" xmlns="http://www.w3.org/2000/svg" xmlns:xlink="http://www.w3.org/1999/xlink"><clipPath id="a"><path d="m10 25.59h106.25v61.82h-106.25z"/></clipPath><path d="m75.17 25.72h40.95v45.84h-40.95z" fill="#c8c8c8"/><path d="m10.12 25.71h62.84v45.84h-62.84z" fill="#e6e6e6"/><g clip-path="url(#a)"><path d="m10.36 57.68h19.01v13.64h-19.01z" fill="none" stroke="#000" stroke-width=".45"/></g><path d="m75.4 57.68h19.01v13.64h-19.01z" fill="none" stroke="#000" stroke-width=".45"/><path d="m96.89 57.68h19.01v13.64h-19.01z" fill="none" stroke="#000" stroke-width=".45"/><path d="m75.4 73.54h19v13.64h-19z" fill="#fff"/><g clip-path="url(#a)"><path d="m75.4 73.54h19.01v13.64h-19.01z" fill="none" stroke="#000" stroke-width=".45"/></g><path d="m96.89 73.54h19v13.64h-19z" fill="#fff"/><g clip-path="url(#a)"><path d="m96.89 73.54h19.01v13.64h-19.01z" fill="none" stroke="#000" stroke-width=".45"/></g><g fill="none" stroke="#000" stroke-width=".45"><path d="m32.03 57.68h19.01v13.64h-19.01z"/><path d="m53.73 57.68h19.01v13.64h-19.01z"/><g clip-path="url(#a)"><path d="m10.36 41.81h19.01v13.64h-19.01z"/><path d="m10.36 25.95h19.01v13.64h-19.01z"/></g><path d="m75.4 41.81h19.01v13.64h-19.01z"/><path d="m96.89 41.81h19.01v13.64h-19.01z"/><g clip-path="url(#a)"><path d="m75.4 25.95h19.01v13.64h-19.01z"/><path d="m96.89 25.95h19.01v13.64h-19.01z"/></g><path d="m32.03 41.81h19.01v13.64h-19.01z"/><path d="m53.73 41.81h19.01v13.64h-19.01z"/><g clip-path="url(#a)"><path d="m32.03 25.95h19.01v13.64h-19.01z"/><path d="m53.73 25.95h19.01v13.64h-19.01z"/></g></g><path d="m10.36 73.54h19v13.64h-19z" fill="#fff"/><g clip-path="url(#a)"><path d="m10.36 73.54h19.01v13.64h-19.01z" fill="none" stroke="#000" stroke-width=".45"/></g><path d="m32.03 73.54h19v13.64h-19z" fill="#fff"/><g clip-path="url(#a)"><path d="m32.03 73.54h19.01v13.64h-19.01z" fill="none" stroke="#000" stroke-width=".45"/></g><path d="m53.73 73.54h19.01v13.64h-19.01z" fill="#fff"/><g clip-path="url(#a)"><path d="m53.73 73.54h19.01v13.64h-19.01z" fill="none" stroke="#000" stroke-width=".45"/></g><path d="m27.44 76.5-1.19-2.05-1.19 2.05z" fill="#231f20"/></svg>