<svg viewBox="0 0 147.54 113" xmlns="http://www.w3.org/2000/svg" xmlns:xlink="http://www.w3.org/1999/xlink"><clipPath id="a"><path d="m10 17.66h127.54v77.69h-127.54z"/></clipPath><path d="m96.42 17.78h41.08v61.7h-41.08z" fill="#c8c8c8"/><path d="m10.01 17.78h84.45v61.7h-84.45z" fill="#e6e6e6"/><g clip-path="url(#a)"><path d="m10.23 65.61h19.01v13.64h-19.01z" fill="none" stroke="#000" stroke-width=".45"/></g><path d="m96.64 65.61h19.01v13.64h-19.01z" fill="none" stroke="#000" stroke-width=".45"/><path d="m53.56 65.61h19.01v13.64h-19.01z" fill="none" stroke="#000" stroke-width=".45"/><path d="m53.56 81.48h19.01v13.64h-19.01z" fill="#fff"/><g clip-path="url(#a)"><path d="m53.56 81.48h19.01v13.64h-19.01z" fill="none" stroke="#000" stroke-width=".45"/></g><g fill="none" stroke="#000" stroke-width=".45"><path d="m31.9 65.61h19.01v13.64h-19.01z"/><g clip-path="url(#a)"><path d="m118.31 65.61h19.01v13.64h-19.01z"/><path d="m10.23 49.74h19.01v13.64h-19.01z"/></g><path d="m96.64 49.74h19.01v13.64h-19.01z"/><path d="m75.24 49.74h19.01v13.64h-19.01z"/><path d="m75.24 65.61h19.01v13.64h-19.01z"/></g><path d="m75.24 81.48h19.01v13.64h-19.01z" fill="#fff"/><g fill="none" stroke="#000" stroke-width=".45"><g clip-path="url(#a)"><path d="m75.24 81.48h19.01v13.64h-19.01z"/><path d="m10.23 18.01h19.01v13.64h-19.01z"/><path d="m96.64 18.01h19.01v13.64h-19.01z"/><path d="m75.24 18.01h19.01v13.64h-19.01z"/><path d="m10.23 33.88h19.01v13.64h-19.01z"/></g><path d="m96.64 33.88h19.01v13.64h-19.01z"/><path d="m75.24 33.88h19.01v13.64h-19.01z"/><path d="m53.56 49.74h19.01v13.64h-19.01z"/></g><g clip-path="url(#a)"><path d="m53.56 18.01h19.01v13.64h-19.01z" fill="none" stroke="#000" stroke-width=".45"/></g><path d="m53.56 33.88h19.01v13.64h-19.01z" fill="none" stroke="#000" stroke-width=".45"/><path d="m31.9 49.74h19.01v13.64h-19.01z" fill="none" stroke="#000" stroke-width=".45"/><g clip-path="url(#a)" fill="none" stroke="#000" stroke-width=".45"><path d="m118.31 49.74h19.01v13.64h-19.01z"/><path d="m31.9 18.01h19.01v13.64h-19.01z"/><path d="m118.31 18.01h19.01v13.64h-19.01z"/></g><path d="m31.9 33.88h19.01v13.64h-19.01z" fill="none" stroke="#000" stroke-width=".45"/><g clip-path="url(#a)"><path d="m118.31 33.88h19.01v13.64h-19.01z" fill="none" stroke="#000" stroke-width=".45"/></g><path d="m10.23 81.48h19.01v13.64h-19.01z" fill="#fff"/><g clip-path="url(#a)"><path d="m10.23 81.48h19.01v13.64h-19.01z" fill="none" stroke="#000" stroke-width=".45"/></g><path d="m96.64 81.48h19.01v13.64h-19.01z" fill="#fff"/><g clip-path="url(#a)"><path d="m96.64 81.48h19.01v13.64h-19.01z" fill="none" stroke="#000" stroke-width=".45"/></g><path d="m31.9 81.48h19.01v13.64h-19.01z" fill="#fff"/><g clip-path="url(#a)"><path d="m31.9 81.48h19.01v13.64h-19.01z" fill="none" stroke="#000" stroke-width=".45"/></g><path d="m118.31 81.48h19v13.64h-19z" fill="#fff"/><g clip-path="url(#a)"><path d="m118.31 81.48h19.01v13.64h-19.01z" fill="none" stroke="#000" stroke-width=".45"/></g><path d="m28.46 84.43-1.19-2.05-1.18 2.05z" fill="#231f20"/></svg>