<svg viewBox="0 0 126.48 113" xmlns="http://www.w3.org/2000/svg" xmlns:xlink="http://www.w3.org/1999/xlink"><clipPath id="a"><path d="m10 17.66h106.48v77.69h-106.48z"/></clipPath><path d="m75.21 17.78h41.13v61.7h-41.13z" fill="#c8c8c8"/><path d="m10.2 17.75h62.81v45.89h-62.81z" fill="#e6e6e6"/><path d="m10.43 65.61h19v13.64h-19z" fill="#fff"/><g clip-path="url(#a)"><path d="m10.43 65.61h19.01v13.64h-19.01z" fill="none" stroke="#000" stroke-width=".45"/></g><path d="m75.44 65.61h19.01v13.64h-19.01z" fill="none" stroke="#000" stroke-width=".45"/><path d="m53.77 65.61h19.01v13.64h-19.01z" fill="#fff"/><path d="m53.77 65.61h19.01v13.64h-19.01z" fill="none" stroke="#000" stroke-width=".45"/><path d="m53.77 81.48h19.01v13.64h-19.01z" fill="#fff"/><g clip-path="url(#a)"><path d="m53.77 81.48h19.01v13.64h-19.01z" fill="none" stroke="#000" stroke-width=".45"/></g><path d="m32.1 65.61h19.01v13.64h-19.01z" fill="#fff"/><g fill="none" stroke="#000" stroke-width=".45"><path d="m32.1 65.61h19.01v13.64h-19.01z"/><g clip-path="url(#a)"><path d="m97.11 65.61h19.01v13.64h-19.01z"/><path d="m10.43 49.74h19.01v13.64h-19.01z"/></g><path d="m75.44 49.74h19.01v13.64h-19.01z"/><g clip-path="url(#a)"><path d="m10.43 18.01h19.01v13.64h-19.01z"/><path d="m75.44 18.01h19.01v13.64h-19.01z"/><path d="m10.43 33.88h19.01v13.64h-19.01z"/></g><path d="m75.44 33.88h19.01v13.64h-19.01z"/><path d="m53.77 49.74h19.01v13.64h-19.01z"/></g><g clip-path="url(#a)"><path d="m53.77 18.01h19.01v13.64h-19.01z" fill="none" stroke="#000" stroke-width=".45"/></g><path d="m53.77 33.88h19.01v13.64h-19.01z" fill="none" stroke="#000" stroke-width=".45"/><path d="m32.1 49.74h19.01v13.64h-19.01z" fill="none" stroke="#000" stroke-width=".45"/><g clip-path="url(#a)" fill="none" stroke="#000" stroke-width=".45"><path d="m97.11 49.74h19.01v13.64h-19.01z"/><path d="m32.1 18.01h19.01v13.64h-19.01z"/><path d="m97.11 18.01h19.01v13.64h-19.01z"/></g><path d="m32.1 33.88h19.01v13.64h-19.01z" fill="none" stroke="#000" stroke-width=".45"/><g clip-path="url(#a)"><path d="m97.11 33.88h19.01v13.64h-19.01z" fill="none" stroke="#000" stroke-width=".45"/></g><path d="m10.43 81.48h19v13.64h-19z" fill="#fff"/><g clip-path="url(#a)"><path d="m10.43 81.48h19.01v13.64h-19.01z" fill="none" stroke="#000" stroke-width=".45"/></g><path d="m75.44 81.48h19v13.64h-19z" fill="#fff"/><g clip-path="url(#a)"><path d="m75.44 81.48h19.01v13.64h-19.01z" fill="none" stroke="#000" stroke-width=".45"/></g><path d="m32.1 81.48h19.01v13.64h-19.01z" fill="#fff"/><g clip-path="url(#a)"><path d="m32.1 81.48h19.01v13.64h-19.01z" fill="none" stroke="#000" stroke-width=".45"/></g><path d="m97.11 81.48h19v13.64h-19z" fill="#fff"/><g clip-path="url(#a)"><path d="m97.11 81.48h19.01v13.64h-19.01z" fill="none" stroke="#000" stroke-width=".45"/></g><path d="m28.67 84.43-1.19-2.05-1.18 2.05z" fill="#231f20"/></svg>