<svg viewBox="0 0 83.06 113" xmlns="http://www.w3.org/2000/svg" xmlns:xlink="http://www.w3.org/1999/xlink"><clipPath id="a"><path d="m10 33.52h63.06v45.96h-63.06z"/></clipPath><path d="m53.46 33.64h19.49v29.94h-19.49z" fill="#969696"/><path d="m10.1 33.66h19.48v29.97h-19.48z" fill="#c8c8c8"/><path d="m32.22 33.88h18.68v13.64h-18.68z" fill="#e6e6e6"/><g clip-path="url(#a)"><path d="m10.36 49.74h19.01v13.64h-19.01z" fill="none" stroke="#000" stroke-width=".45"/></g><g fill="none" stroke="#000" stroke-width=".45"><path d="m32.03 49.74h19.01v13.64h-19.01z"/><path d="m53.7 49.74h19.01v13.64h-19.01z"/><g clip-path="url(#a)"><path d="m10.36 33.88h19.01v13.64h-19.01z"/><path d="m32.03 33.88h19.01v13.64h-19.01z"/><path d="m53.7 33.88h19.01v13.64h-19.01z"/></g></g><path d="m10.36 65.61h19v13.64h-19z" fill="#fff"/><g clip-path="url(#a)"><path d="m10.36 65.61h19.01v13.64h-19.01z" fill="none" stroke="#000" stroke-width=".45"/></g><path d="m32.03 65.61h19v13.64h-19z" fill="#fff"/><g clip-path="url(#a)"><path d="m32.03 65.61h19.01v13.64h-19.01z" fill="none" stroke="#000" stroke-width=".45"/></g><path d="m53.7 65.61h19.01v13.64h-19.01z" fill="#fff"/><g clip-path="url(#a)"><path d="m53.7 65.61h19.01v13.64h-19.01z" fill="none" stroke="#000" stroke-width=".45"/></g><path d="m28.62 68.57-1.18-2.05-1.19 2.05z" fill="#231f20"/></svg>