<svg viewBox="0 0 104.48 113" xmlns="http://www.w3.org/2000/svg" xmlns:xlink="http://www.w3.org/1999/xlink"><clipPath id="a"><path d="m10 33.45h84.48v46.09h-84.48z"/></clipPath><path d="m31.88 65.48h18.93v13.78h-18.93z" fill="#969696"/><path d="m31.6 33.56h19.45v29.99h-19.45z" fill="#c8c8c8"/><path d="m53.22 33.57h41.14v45.85h-41.14z" fill="#e6e6e6"/><g fill="none" stroke="#000" stroke-width=".45"><path d="m53.45 49.68h19.01v13.64h-19.01z"/><path d="m31.83 49.68h19.01v13.64h-19.01z"/><g clip-path="url(#a)"><path d="m75.12 49.68h19.01v13.64h-19.01z"/><path d="m10.22 49.68h19.01v13.64h-19.01z"/></g><path d="m53.45 33.81h19.01v13.64h-19.01z"/><path d="m31.83 33.81h19.01v13.64h-19.01z"/><g clip-path="url(#a)"><path d="m75.12 33.81h19.01v13.64h-19.01z"/><path d="m10.22 33.81h19.01v13.64h-19.01z"/><path d="m53.45 65.54h19.01v13.64h-19.01z"/><path d="m31.83 65.54h19.01v13.64h-19.01z"/><path d="m75.12 65.54h19.01v13.64h-19.01z"/></g></g><path d="m10.22 65.54h19.01v13.64h-19.01z" fill="#fff"/><g clip-path="url(#a)"><path d="m10.22 65.54h19.01v13.64h-19.01z" fill="none" stroke="#000" stroke-width=".45"/></g><path d="m26.12 52.79 2.05-1.19-2.05-1.18z" fill="#231f20"/></svg>