<svg viewBox="0 0 104.73 113" xmlns="http://www.w3.org/2000/svg" xmlns:xlink="http://www.w3.org/1999/xlink"><clipPath id="a"><path d="m10 33.41h84.73v46.19h-84.73z"/></clipPath><path d="m75.13 33.73h19.46v29.98h-19.46z" fill="#969696"/><path d="m10.12 33.77h19.45v29.95h-19.45z" fill="#c8c8c8"/><path d="m31.77 33.75h41.18v29.99h-41.18z" fill="#e6e6e6"/><g clip-path="url(#a)"><path d="m10.36 49.86h19.01v13.64h-19.01z" fill="none" stroke="#000" stroke-width=".45"/></g><g fill="none" stroke="#000" stroke-width=".45"><path d="m32.03 49.86h19.01v13.64h-19.01z"/><path d="m53.7 49.86h19.01v13.64h-19.01z"/><g clip-path="url(#a)"><path d="m75.37 49.86h19.01v13.64h-19.01z"/><path d="m10.36 33.99h19.01v13.64h-19.01z"/></g><path d="m32.03 33.99h19.01v13.64h-19.01z"/><path d="m53.7 33.99h19.01v13.64h-19.01z"/></g><g clip-path="url(#a)"><path d="m75.37 33.99h19.01v13.64h-19.01z" fill="none" stroke="#000" stroke-width=".45"/></g><path d="m10.36 65.73h19v13.64h-19z" fill="#fff"/><g clip-path="url(#a)" fill="none" stroke="#000" stroke-width=".45"><path d="m10.36 65.73h19.01v13.64h-19.01z"/><path d="m32.03 65.73h19.01v13.64h-19.01z"/><path d="m53.7 65.73h19.01v13.64h-19.01z"/></g><path d="m75.37 65.73h19v13.64h-19z" fill="#fff"/><g clip-path="url(#a)"><path d="m75.37 65.73h19.01v13.64h-19.01z" fill="none" stroke="#000" stroke-width=".45"/></g><path d="m28.63 68.84-1.19-2.06-1.19 2.06z" fill="#231f20"/></svg>