<svg viewBox="0 0 83.04 113" xmlns="http://www.w3.org/2000/svg" xmlns:xlink="http://www.w3.org/1999/xlink"><clipPath id="a"><path d="m10 25.59h63.04v61.82h-63.04z"/></clipPath><path d="m10.24 25.7h19.46v29.96h-19.46z" fill="#c8c8c8"/><path d="m10.46 57.47h19.24v14.03h-19.24z" fill="#969696"/><path d="m31.85 25.7h41.19v45.84h-41.19z" fill="#e6e6e6"/><g clip-path="url(#a)"><path d="m10.47 57.68h19.01v13.64h-19.01z" fill="none" stroke="#000" stroke-width=".45"/></g><path d="m53.81 57.68h19.01v13.64h-19.01z" fill="none" stroke="#000" stroke-width=".45"/><g clip-path="url(#a)"><path d="m53.81 73.54h19.01v13.64h-19.01z" fill="none" stroke="#000" stroke-width=".45"/></g><g fill="none" stroke="#000" stroke-width=".45"><path d="m32.14 57.68h19.01v13.64h-19.01z"/><g clip-path="url(#a)"><path d="m10.47 41.81h19.01v13.64h-19.01z"/><path d="m10.47 25.95h19.01v13.64h-19.01z"/></g><path d="m53.81 41.81h19.01v13.64h-19.01z"/></g><g clip-path="url(#a)"><path d="m53.81 25.95h19.01v13.64h-19.01z" fill="none" stroke="#000" stroke-width=".45"/></g><path d="m32.14 41.81h19.01v13.64h-19.01z" fill="none" stroke="#000" stroke-width=".45"/><g clip-path="url(#a)"><path d="m32.14 25.95h19.01v13.64h-19.01z" fill="none" stroke="#000" stroke-width=".45"/></g><path d="m10.47 73.54h19.01v13.64h-19.01z" fill="#fff"/><g clip-path="url(#a)"><path d="m10.47 73.54h19.01v13.64h-19.01z" fill="none" stroke="#000" stroke-width=".45"/></g><path d="m32.15 73.54h19.01v13.64h-19.01z" fill="#fff"/><g clip-path="url(#a)"><path d="m32.14 73.54h19.01v13.64h-19.01z" fill="none" stroke="#000" stroke-width=".45"/></g><path d="m27.55 76.5-1.18-2.05-1.19 2.05z" fill="#231f20"/></svg>