<svg viewBox="0 0 147.47 113" xmlns="http://www.w3.org/2000/svg" xmlns:xlink="http://www.w3.org/1999/xlink"><clipPath id="a"><path d="m10 17.61h127.47v77.78h-127.47z"/></clipPath><path d="m26.12 84.51 2.05-1.19-2.05-1.19z" fill="#231f20"/><path d="m31.62 65.34h41.19v30h-41.19z" fill="#969696"/><path d="m31.67 17.75h41.16v45.91h-41.16z" fill="#c8c8c8"/><path d="m74.88 17.61h62.35v77.78h-62.35z" fill="#e6e6e6"/><path d="m96.64 65.61h19.01v13.64h-19.01z" fill="none" stroke="#000" stroke-width=".45"/><path d="m118 65.61h19.01v13.64h-19.01z" fill="none" stroke="#000" stroke-width=".45"/><path d="m53.56 65.61h19.01v13.64h-19.01z" fill="none" stroke="#000" stroke-width=".45"/><g clip-path="url(#a)"><path d="m53.56 81.47h19.01v13.64h-19.01z" fill="none" stroke="#000" stroke-width=".45"/></g><path d="m31.9 65.61h19.01v13.64h-19.01z" fill="none" stroke="#000" stroke-width=".45"/><g clip-path="url(#a)"><path d="m10.22 65.61h19.01v13.64h-19.01z" fill="none" stroke="#000" stroke-width=".45"/></g><g fill="none" stroke="#000" stroke-width=".45"><path d="m96.64 49.74h19.01v13.64h-19.01z"/><path d="m118 49.74h19.01v13.64h-19.01z"/><path d="m75.24 49.74h19.01v13.64h-19.01z"/><path d="m75.24 65.61h19.01v13.64h-19.01z"/><g clip-path="url(#a)"><path d="m75.24 81.47h19.01v13.64h-19.01z"/><path d="m96.64 18.01h19.01v13.64h-19.01z"/><path d="m118 18.01h19.01v13.64h-19.01z"/><path d="m75.24 18.01h19.01v13.64h-19.01z"/></g><path d="m96.64 33.87h19.01v13.64h-19.01z"/><path d="m118 33.87h19.01v13.64h-19.01z"/><path d="m75.24 33.87h19.01v13.64h-19.01z"/><path d="m53.56 49.74h19.01v13.64h-19.01z"/></g><g clip-path="url(#a)"><path d="m53.56 18.01h19.01v13.64h-19.01z" fill="none" stroke="#000" stroke-width=".45"/></g><path d="m53.56 33.87h19.01v13.64h-19.01z" fill="none" stroke="#000" stroke-width=".45"/><path d="m31.9 49.74h19.01v13.64h-19.01z" fill="none" stroke="#000" stroke-width=".45"/><g clip-path="url(#a)" fill="none" stroke="#000" stroke-width=".45"><path d="m10.22 49.74h19.01v13.64h-19.01z"/><path d="m31.9 18.01h19.01v13.64h-19.01z"/><path d="m10.22 18.01h19.01v13.64h-19.01z"/></g><path d="m31.9 33.87h19.01v13.64h-19.01z" fill="none" stroke="#000" stroke-width=".45"/><g clip-path="url(#a)" fill="none" stroke="#000" stroke-width=".45"><path d="m10.22 33.87h19.01v13.64h-19.01z"/><path d="m96.64 81.47h19.01v13.64h-19.01z"/><path d="m118 81.47h19.01v13.64h-19.01z"/><path d="m31.9 81.47h19.01v13.64h-19.01z"/><path d="m10.22 81.47h19.01v13.64h-19.01z"/></g></svg>