<svg viewBox="0 0 147.68 112.95" xmlns="http://www.w3.org/2000/svg" xmlns:xlink="http://www.w3.org/1999/xlink"><clipPath id="a"><path d="m10 17.63h127.68v77.69h-127.68z"/></clipPath><path d="m96.41 17.71h41.11v61.77h-41.11z" fill="#969696"/><path d="m53.31 17.75h41.16v29.97h-41.16z" fill="#c8c8c8"/><path d="m9.97 17.73h41.17v61.75h-41.17z" fill="#e6e6e6"/><g clip-path="url(#a)"><path d="m10.22 65.58h19.01v13.64h-19.01z" fill="none" stroke="#000" stroke-width=".45"/></g><path d="m96.64 65.58h19.01v13.64h-19.01z" fill="none" stroke="#000" stroke-width=".45"/><path d="m53.56 65.58h19.01v13.64h-19.01z" fill="none" stroke="#000" stroke-width=".45"/><path d="m53.56 81.45h19.01v13.64h-19.01z" fill="#fff"/><g clip-path="url(#a)"><path d="m53.56 81.45h19.01v13.64h-19.01z" fill="none" stroke="#000" stroke-width=".45"/></g><g fill="none" stroke="#000" stroke-width=".45"><path d="m31.89 65.58h19.01v13.64h-19.01z"/><g clip-path="url(#a)"><path d="m118.31 65.58h19.01v13.64h-19.01z"/><path d="m10.22 49.72h19.01v13.64h-19.01z"/></g><path d="m96.64 49.72h19.01v13.64h-19.01z"/><path d="m75.24 49.72h19.01v13.64h-19.01z"/><path d="m75.24 65.58h19.01v13.64h-19.01z"/></g><path d="m75.24 81.45h19.01v13.64h-19.01z" fill="#fff"/><g clip-path="url(#a)" fill="none" stroke="#000" stroke-width=".45"><path d="m75.24 81.45h19.01v13.64h-19.01z"/><path d="m10.22 17.99h19.01v13.64h-19.01z"/><path d="m96.64 17.99h19.01v13.64h-19.01z"/><path d="m75.24 17.99h19.01v13.64h-19.01z"/><path d="m10.22 33.85h19.01v13.64h-19.01z"/></g><path d="m96.64 33.85h19.01v13.64h-19.01z" fill="none" stroke="#000" stroke-width=".45"/><path d="m75.24 33.85h19.01v13.64h-19.01z" fill="none" stroke="#000" stroke-width=".45"/><path d="m53.56 49.72h19.01v13.64h-19.01z" fill="none" stroke="#000" stroke-width=".45"/><g clip-path="url(#a)"><path d="m53.56 17.99h19.01v13.64h-19.01z" fill="none" stroke="#000" stroke-width=".45"/></g><path d="m53.56 33.85h19.01v13.64h-19.01z" fill="none" stroke="#000" stroke-width=".45"/><path d="m31.89 49.72h19.01v13.64h-19.01z" fill="none" stroke="#000" stroke-width=".45"/><g clip-path="url(#a)" fill="none" stroke="#000" stroke-width=".45"><path d="m118.31 49.72h19.01v13.64h-19.01z"/><path d="m31.89 17.99h19.01v13.64h-19.01z"/><path d="m118.31 17.99h19.01v13.64h-19.01z"/></g><path d="m31.89 33.85h19.01v13.64h-19.01z" fill="none" stroke="#000" stroke-width=".45"/><g clip-path="url(#a)"><path d="m118.31 33.85h19.01v13.64h-19.01z" fill="none" stroke="#000" stroke-width=".45"/></g><path d="m10.22 81.45h19.01v13.64h-19.01z" fill="#fff"/><g clip-path="url(#a)"><path d="m10.22 81.45h19.01v13.64h-19.01z" fill="none" stroke="#000" stroke-width=".45"/></g><path d="m96.64 81.45h19.01v13.64h-19.01z" fill="#fff"/><g clip-path="url(#a)"><path d="m96.64 81.45h19.01v13.64h-19.01z" fill="none" stroke="#000" stroke-width=".45"/></g><path d="m31.89 81.45h19.01v13.64h-19.01z" fill="#fff"/><g clip-path="url(#a)"><path d="m31.89 81.45h19.01v13.64h-19.01z" fill="none" stroke="#000" stroke-width=".45"/></g><path d="m118.31 81.45h19v13.64h-19z" fill="#fff"/><g clip-path="url(#a)"><path d="m118.31 81.45h19.01v13.64h-19.01z" fill="none" stroke="#000" stroke-width=".45"/></g><path d="m28.46 84.41-1.19-2.06-1.18 2.06z" fill="#231f20"/></svg>