<svg viewBox="0 0 213.08 112.95" xmlns="http://www.w3.org/2000/svg" xmlns:xlink="http://www.w3.org/1999/xlink"><clipPath id="a"><path d="m10.13 9.7h192.95v93.56h-192.95z"/></clipPath><path d="m10.24 9.81h62.79v77.55h-62.79z" fill="#c8c8c8"/><path d="m140.18 9.82h62.79v77.57h-62.79z" fill="#969696"/><path d="m75.22 9.8h62.74v45.85h-62.74z" fill="#e6e6e6"/><g clip-path="url(#a)"><path d="m10.49 73.52h18.99v13.64h-18.99z" fill="none" stroke="#000" stroke-width=".45"/></g><path d="m53.8 73.52h18.99v13.64h-18.99z" fill="none" stroke="#000" stroke-width=".45"/><path d="m97.11 73.52h18.99v13.64h-18.99z" fill="none" stroke="#000" stroke-width=".45"/><path d="m140.42 73.52h18.99v13.64h-18.99z" fill="none" stroke="#000" stroke-width=".45"/><path d="m183.73 73.52h18.99v13.64h-18.99z" fill="none" stroke="#000" stroke-width=".45"/><g clip-path="url(#a)" fill="none" stroke="#000" stroke-width=".45"><path d="m53.8 89.38h18.99v13.64h-18.99z"/><path d="m97.11 89.38h18.99v13.64h-18.99z"/><path d="m140.42 89.38h18.99v13.64h-18.99z"/><path d="m183.73 89.38h18.99v13.64h-18.99z"/></g><path d="m32.14 73.52h18.99v13.64h-18.99z" fill="none" stroke="#000" stroke-width=".45"/><g clip-path="url(#a)"><path d="m10.49 57.65h18.99v13.64h-18.99z" fill="none" stroke="#000" stroke-width=".45"/></g><path d="m75.46 57.65h18.99v13.64h-18.99z" fill="none" stroke="#000" stroke-width=".45"/><path d="m118.77 57.65h18.99v13.64h-18.99z" fill="none" stroke="#000" stroke-width=".45"/><path d="m162.08 57.65h18.99v13.64h-18.99z" fill="none" stroke="#000" stroke-width=".45"/><path d="m75.46 73.52h18.99v13.64h-18.99z" fill="none" stroke="#000" stroke-width=".45"/><path d="m118.77 73.52h18.99v13.64h-18.99z" fill="none" stroke="#000" stroke-width=".45"/><path d="m162.08 73.52h18.99v13.64h-18.99z" fill="none" stroke="#000" stroke-width=".45"/><g clip-path="url(#a)" fill="none" stroke="#000" stroke-width=".45"><path d="m75.46 89.38h18.99v13.64h-18.99z"/><path d="m118.77 89.38h18.99v13.64h-18.99z"/><path d="m162.08 89.38h18.99v13.64h-18.99z"/><path d="m10.49 25.92h18.99v13.64h-18.99z"/></g><path d="m75.46 25.92h18.99v13.64h-18.99z" fill="none" stroke="#000" stroke-width=".45"/><path d="m118.77 25.92h18.99v13.64h-18.99z" fill="none" stroke="#000" stroke-width=".45"/><path d="m162.08 25.92h18.99v13.64h-18.99z" fill="none" stroke="#000" stroke-width=".45"/><g clip-path="url(#a)"><path d="m10.49 41.78h18.99v13.64h-18.99z" fill="none" stroke="#000" stroke-width=".45"/></g><g fill="none" stroke="#000" stroke-width=".45"><path d="m75.46 41.78h18.99v13.64h-18.99z"/><path d="m118.77 41.78h18.99v13.64h-18.99z"/><path d="m162.08 41.78h18.99v13.64h-18.99z"/><g clip-path="url(#a)"><path d="m10.49 10.05h18.99v13.64h-18.99z"/><path d="m75.46 10.05h18.99v13.64h-18.99z"/><path d="m118.77 10.05h18.99v13.64h-18.99z"/><path d="m162.08 10.05h18.99v13.64h-18.99z"/></g><path d="m53.8 57.65h18.99v13.64h-18.99z"/><path d="m97.11 57.65h18.99v13.64h-18.99z"/><path d="m140.42 57.65h18.99v13.64h-18.99z"/><path d="m183.73 57.65h18.99v13.64h-18.99z"/><path d="m53.8 25.92h18.99v13.64h-18.99z"/><path d="m97.11 25.92h18.99v13.64h-18.99z"/><path d="m140.42 25.92h18.99v13.64h-18.99z"/><path d="m183.73 25.92h18.99v13.64h-18.99z"/><path d="m53.8 41.78h18.99v13.64h-18.99z"/><path d="m97.11 41.78h18.99v13.64h-18.99z"/><path d="m140.42 41.78h18.99v13.64h-18.99z"/><path d="m183.73 41.78h18.99v13.64h-18.99z"/><g clip-path="url(#a)"><path d="m53.8 10.05h18.99v13.64h-18.99z"/><path d="m97.11 10.05h18.99v13.64h-18.99z"/><path d="m140.42 10.05h18.99v13.64h-18.99z"/><path d="m183.73 10.05h18.99v13.64h-18.99z"/></g><path d="m32.14 57.65h18.99v13.64h-18.99z"/><path d="m32.14 25.92h18.99v13.64h-18.99z"/><path d="m32.14 41.78h18.99v13.64h-18.99z"/><g clip-path="url(#a)"><path d="m32.14 10.05h18.99v13.64h-18.99z"/><path d="m10.49 89.38h18.99v13.64h-18.99z"/><path d="m32.14 89.38h18.99v13.64h-18.99z"/></g></g><path d="m28.74 92.49-1.18-2.05-1.19 2.05z" fill="#231f20"/></svg>