<svg viewBox="0 0 147.81 112.95" xmlns="http://www.w3.org/2000/svg" xmlns:xlink="http://www.w3.org/1999/xlink"><clipPath id="a"><path d="m10 9.63h127.81v93.69h-127.81z"/></clipPath><path d="m31.66 9.76h41.15v61.7h-41.15z" fill="#c8c8c8"/><path d="m75.01 9.72h62.79v93.47h-62.79z" fill="#969696"/><path d="m31.54 73.09h41.39v30.23h-41.39z" fill="#e6e6e6"/><g fill="none" stroke="#000" stroke-width=".45"><path d="m31.9 73.45h19.01v13.64h-19.01z"/><path d="m75.24 73.45h19.01v13.64h-19.01z"/><g clip-path="url(#a)"><path d="m118.58 73.45h19.01v13.64h-19.01z"/><path d="m75.24 89.31h19.01v13.64h-19.01z"/><path d="m118.58 89.31h19.01v13.64h-19.01z"/></g><path d="m53.56 73.45h19.01v13.64h-19.01z"/><path d="m31.9 57.58h19.01v13.64h-19.01z"/><path d="m96.91 57.58h19.01v13.64h-19.01z"/></g><path d="m10.23 57.58h19.01v13.64h-19.01z" fill="#fff"/><g clip-path="url(#a)"><path d="m10.23 57.58h19.01v13.64h-19.01z" fill="none" stroke="#000" stroke-width=".45"/></g><path d="m96.91 73.45h19.01v13.64h-19.01z" fill="none" stroke="#000" stroke-width=".45"/><path d="m10.23 73.45h19.01v13.64h-19.01z" fill="#fff"/><g clip-path="url(#a)" fill="none" stroke="#000" stroke-width=".45"><path d="m10.23 73.45h19.01v13.64h-19.01z"/><path d="m96.91 89.31h19.01v13.64h-19.01z"/></g><path d="m10.23 89.32h19.01v13.64h-19.01z" fill="#fff"/><g clip-path="url(#a)"><path d="m10.23 89.31h19.01v13.64h-19.01z" fill="none" stroke="#000" stroke-width=".45"/></g><path d="m31.9 25.85h19.01v13.64h-19.01z" fill="none" stroke="#000" stroke-width=".45"/><path d="m96.91 25.85h19.01v13.64h-19.01z" fill="none" stroke="#000" stroke-width=".45"/><path d="m10.23 25.85h19.01v13.64h-19.01z" fill="#fff"/><g clip-path="url(#a)"><path d="m10.23 25.85h19.01v13.64h-19.01z" fill="none" stroke="#000" stroke-width=".45"/></g><path d="m31.9 41.72h19.01v13.64h-19.01z" fill="none" stroke="#000" stroke-width=".45"/><path d="m96.91 41.72h19.01v13.64h-19.01z" fill="none" stroke="#000" stroke-width=".45"/><path d="m10.23 41.72h19.01v13.64h-19.01z" fill="#fff"/><g clip-path="url(#a)" fill="none" stroke="#000" stroke-width=".45"><path d="m10.23 41.72h19.01v13.64h-19.01z"/><path d="m31.9 9.99h19.01v13.64h-19.01z"/><path d="m96.91 9.99h19.01v13.64h-19.01z"/></g><path d="m10.23 9.99h19.01v13.64h-19.01z" fill="#fff"/><g clip-path="url(#a)"><path d="m10.23 9.99h19.01v13.64h-19.01z" fill="none" stroke="#000" stroke-width=".45"/></g><path d="m75.24 57.58h19.01v13.64h-19.01z" fill="none" stroke="#000" stroke-width=".45"/><g clip-path="url(#a)"><path d="m118.58 57.58h19.01v13.64h-19.01z" fill="none" stroke="#000" stroke-width=".45"/></g><path d="m75.24 25.85h19.01v13.64h-19.01z" fill="none" stroke="#000" stroke-width=".45"/><g clip-path="url(#a)"><path d="m118.58 25.85h19.01v13.64h-19.01z" fill="none" stroke="#000" stroke-width=".45"/></g><path d="m75.24 41.72h19.01v13.64h-19.01z" fill="none" stroke="#000" stroke-width=".45"/><g clip-path="url(#a)" fill="none" stroke="#000" stroke-width=".45"><path d="m118.58 41.72h19.01v13.64h-19.01z"/><path d="m75.24 9.99h19.01v13.64h-19.01z"/><path d="m118.58 9.99h19.01v13.64h-19.01z"/></g><path d="m53.56 57.58h19.01v13.64h-19.01z" fill="none" stroke="#000" stroke-width=".45"/><path d="m53.56 25.85h19.01v13.64h-19.01z" fill="none" stroke="#000" stroke-width=".45"/><path d="m53.56 41.72h19.01v13.64h-19.01z" fill="none" stroke="#000" stroke-width=".45"/><g clip-path="url(#a)" fill="none" stroke="#000" stroke-width=".45"><path d="m53.56 9.99h19.01v13.64h-19.01z"/><path d="m31.9 89.31h19.01v13.64h-19.01z"/><path d="m53.56 89.31h19.01v13.64h-19.01z"/></g><path d="m26.13 76.86 2.05-1.19-2.05-1.18z" fill="#231f20"/></svg>