<svg viewBox="0 0 82.84 113" xmlns="http://www.w3.org/2000/svg" xmlns:xlink="http://www.w3.org/1999/xlink"><clipPath id="a"><path d="m10 25.52h62.85v61.96h-62.85z"/></clipPath><path d="m31.66 25.65h41.15v61.71h-41.15z" fill="#e6e6e6"/><g clip-path="url(#a)"><path d="m53.56 25.88h19.01v13.64h-19.01z" fill="none" stroke="#000" stroke-width=".45"/></g><g fill="none" stroke="#000" stroke-width=".45"><path d="m31.89 41.74h19.01v13.64h-19.01z"/><g clip-path="url(#a)"><path d="m10.22 41.74h19.01v13.64h-19.01z"/><path d="m31.89 25.88h19.01v13.64h-19.01z"/><path d="m10.22 25.88h19.01v13.64h-19.01z"/><path d="m31.89 73.48h19.01v13.64h-19.01z"/><path d="m10.22 73.48h19.01v13.64h-19.01z"/></g><path d="m31.89 57.61h19.01v13.64h-19.01z"/><g clip-path="url(#a)"><path d="m10.22 57.61h19.01v13.64h-19.01z"/><path d="m53.56 41.74h19.01v13.64h-19.01z"/><path d="m53.56 73.48h19.01v13.64h-19.01z"/><path d="m53.56 57.61h19.01v13.64h-19.01z"/></g></g><path d="m26.03 61.08 2.05-1.19-2.05-1.19z" fill="#231f20"/></svg>