<svg viewBox="0 0 171.32 113" xmlns="http://www.w3.org/2000/svg" xmlns:xlink="http://www.w3.org/1999/xlink"><clipPath id="a"><path d="m13.36 9.76h151.21v93.69h-151.21z"/></clipPath><clipPath id="b"><path d="m13.36 9.76h151.32v93.69h-151.32z"/></clipPath><path d="m35.22 9.87h63.46v93.58h-63.46z" fill="#e6e6e6"/><path d="m101.07 9.88h63.5v93.45h-63.5z" fill="#c8c8c8"/><g fill="none" stroke="#000" stroke-width=".45"><path d="m79.45 25.99h19.01v13.64h-19.01z"/><path d="m145.32 25.99h19.01v13.64h-19.01z"/><g clip-path="url(#a)"><path d="m79.4 10.12h18.99v13.64h-18.99z"/><path d="m145.22 10.12h18.99v13.64h-18.99z"/></g><path d="m57.78 25.99h19.01v13.64h-19.01z"/><path d="m123.65 25.99h19.01v13.64h-19.01z"/><g clip-path="url(#b)"><path d="m57.78 10.12h19.01v13.64h-19.01z"/><path d="m123.65 10.12h19.01v13.64h-19.01z"/></g><path d="m35.45 25.99h19.01v13.64h-19.01z"/><path d="m101.32 25.99h19.01v13.64h-19.01z"/><g clip-path="url(#b)"><path d="m35.45 10.12h19.01v13.64h-19.01z"/><path d="m101.32 10.12h19.01v13.64h-19.01z"/></g></g><path d="m13.58 25.99h19v13.64h-19z" fill="#fff"/><g clip-path="url(#b)"><path d="m13.58 25.99h19.01v13.64h-19.01z" fill="none" stroke="#000" stroke-width=".45"/></g><path d="m13.58 10.12h19v13.64h-19z" fill="#fff"/><g clip-path="url(#b)"><path d="m13.58 10.12h19.01v13.64h-19.01z" fill="none" stroke="#000" stroke-width=".45"/></g><g fill="none" stroke="#000" stroke-width=".45"><path d="m79.45 41.85h19.01v13.64h-19.01z"/><path d="m145.32 41.85h19.01v13.64h-19.01z"/><path d="m79.45 57.72h19.01v13.64h-19.01z"/><path d="m145.32 57.72h19.01v13.64h-19.01z"/><path d="m79.45 73.58h19.01v13.64h-19.01z"/><path d="m145.32 73.58h19.01v13.64h-19.01z"/><g clip-path="url(#b)"><path d="m79.45 89.45h19.01v13.64h-19.01z"/><path d="m145.32 89.45h19.01v13.64h-19.01z"/></g><path d="m57.78 41.85h19.01v13.64h-19.01z"/><path d="m123.65 41.85h19.01v13.64h-19.01z"/><path d="m35.45 41.85h19.01v13.64h-19.01z"/><path d="m101.32 41.85h19.01v13.64h-19.01z"/></g><path d="m13.58 41.85h19v13.64h-19z" fill="#fff"/><g clip-path="url(#b)"><path d="m13.58 41.85h19.01v13.64h-19.01z" fill="none" stroke="#000" stroke-width=".45"/></g><path d="m57.78 57.72h19.01v13.64h-19.01z" fill="none" stroke="#000" stroke-width=".45"/><path d="m123.65 57.72h19.01v13.64h-19.01z" fill="none" stroke="#000" stroke-width=".45"/><path d="m35.45 57.72h19.01v13.64h-19.01z" fill="none" stroke="#000" stroke-width=".45"/><path d="m101.32 57.72h19.01v13.64h-19.01z" fill="none" stroke="#000" stroke-width=".45"/><path d="m13.58 57.72h19v13.64h-19z" fill="#fff"/><g clip-path="url(#b)"><path d="m13.58 57.72h19.01v13.64h-19.01z" fill="none" stroke="#000" stroke-width=".45"/></g><path d="m57.78 73.58h19.01v13.64h-19.01z" fill="none" stroke="#000" stroke-width=".45"/><path d="m123.65 73.58h19.01v13.64h-19.01z" fill="none" stroke="#000" stroke-width=".45"/><g clip-path="url(#b)" fill="none" stroke="#000" stroke-width=".45"><path d="m57.78 89.45h19.01v13.64h-19.01z"/><path d="m123.65 89.45h19.01v13.64h-19.01z"/></g><path d="m35.45 73.58h19.01v13.64h-19.01z" fill="none" stroke="#000" stroke-width=".45"/><path d="m101.32 73.58h19.01v13.64h-19.01z" fill="none" stroke="#000" stroke-width=".45"/><path d="m13.58 73.58h19v13.64h-19z" fill="#fff"/><g clip-path="url(#b)" fill="none" stroke="#000" stroke-width=".45"><path d="m13.58 73.58h19.01v13.64h-19.01z"/><path d="m35.45 89.45h19.01v13.64h-19.01z"/><path d="m101.32 89.45h19.01v13.64h-19.01z"/></g><path d="m13.58 89.45h19v13.64h-19z" fill="#fff"/><g clip-path="url(#b)"><path d="m13.58 89.45h19.01v13.64h-19.01z" fill="none" stroke="#000" stroke-width=".45"/></g><path d="m29.32 77.91 2.05-1.18-2.05-1.19z" fill="#231f20"/></svg>