<svg viewBox="0 0 83.79 113" xmlns="http://www.w3.org/2000/svg" xmlns:xlink="http://www.w3.org/1999/xlink"><clipPath id="a"><path d="m10 9.66h63.79v93.69h-63.79z"/></clipPath><path d="m31.74 9.66h42.05v46.09h-42.05z" fill="#e6e6e6"/><path d="m31.74 57.25h42.05v46.09h-42.05z" fill="#c8c8c8"/><g clip-path="url(#a)" fill="none" stroke="#000" stroke-width=".45"><path d="m54.42 25.88h19.01v13.64h-19.01z"/><path d="m54.42 10.01h19.01v13.64h-19.01z"/></g><path d="m32.09 25.88h19.01v13.64h-19.01z" fill="none" stroke="#000" stroke-width=".45"/><g clip-path="url(#a)"><path d="m32.09 10.01h19.01v13.64h-19.01z" fill="none" stroke="#000" stroke-width=".45"/></g><path d="m10.23 25.88h19.01v13.64h-19.01z" fill="#fff"/><g clip-path="url(#a)"><path d="m10.23 25.88h19.01v13.64h-19.01z" fill="none" stroke="#000" stroke-width=".45"/></g><path d="m10.23 10.01h19.01v13.64h-19.01z" fill="#fff"/><g clip-path="url(#a)" fill="none" stroke="#000" stroke-width=".45"><path d="m10.23 10.01h19.01v13.64h-19.01z"/><path d="m54.42 41.75h19.01v13.64h-19.01z"/></g><path d="m32.09 41.75h19.01v13.64h-19.01z" fill="none" stroke="#000" stroke-width=".45"/><path d="m10.23 41.74h19.01v13.64h-19.01z" fill="#fff"/><g clip-path="url(#a)" fill="none" stroke="#000" stroke-width=".45"><path d="m10.23 41.75h19.01v13.64h-19.01z"/><path d="m54.42 57.61h19.01v13.64h-19.01z"/></g><path d="m32.09 57.61h19.01v13.64h-19.01z" fill="none" stroke="#000" stroke-width=".45"/><path d="m10.23 57.61h19.01v13.64h-19.01z" fill="#fff"/><g clip-path="url(#a)" fill="none" stroke="#000" stroke-width=".45"><path d="m10.23 57.61h19.01v13.64h-19.01z"/><path d="m54.42 73.48h19.01v13.64h-19.01z"/><path d="m54.42 89.34h19.01v13.64h-19.01z"/></g><path d="m32.09 73.48h19.01v13.64h-19.01z" fill="none" stroke="#000" stroke-width=".45"/><path d="m10.23 73.48h19.01v13.64h-19.01z" fill="#fff"/><g clip-path="url(#a)" fill="none" stroke="#000" stroke-width=".45"><path d="m10.23 73.48h19.01v13.64h-19.01z"/><path d="m32.09 89.34h19.01v13.64h-19.01z"/></g><path d="m10.23 89.34h19.01v13.64h-19.01z" fill="#fff"/><g clip-path="url(#a)"><path d="m10.23 89.34h19.01v13.64h-19.01z" fill="none" stroke="#000" stroke-width=".45"/></g><path d="m25.96 77.81 2.05-1.19-2.05-1.19z" fill="#231f20"/></svg>