<svg viewBox="0 0 147.94 113" xmlns="http://www.w3.org/2000/svg" xmlns:xlink="http://www.w3.org/1999/xlink"><clipPath id="a"><path d="m10 25.52h127.94v61.96h-127.94z"/></clipPath><path d="m96.73 25.52h41.21v46.09h-41.21z" fill="#969696"/><g clip-path="url(#a)"><path d="m118.58 41.75h19.01v13.64h-19.01z" fill="none" stroke="#000" stroke-width=".45"/></g><path d="m10 25.52h41.21v46.09h-41.21z" fill="#c8c8c8"/><path d="m53.58 41.43h41.39v46.05h-41.39z" fill="#e6e6e6"/><g clip-path="url(#a)"><path d="m10.47 57.61h19.01v13.64h-19.01z" fill="none" stroke="#000" stroke-width=".45"/></g><path d="m53.81 57.61h19.01v13.64h-19.01z" fill="none" stroke="#000" stroke-width=".45"/><path d="m97.09 57.61h19.01v13.64h-19.01z" fill="none" stroke="#000" stroke-width=".45"/><path d="m75.3 57.61h19.01v13.64h-19.01z" fill="none" stroke="#000" stroke-width=".45"/><g clip-path="url(#a)" fill="none" stroke="#000" stroke-width=".45"><path d="m118.58 57.61h19.01v13.64h-19.01z"/><path d="m53.81 73.48h19.01v13.64h-19.01z"/></g><path d="m97.09 73.48h19v13.64h-19z" fill="#fff"/><g clip-path="url(#a)" fill="none" stroke="#000" stroke-width=".45"><path d="m97.09 73.48h19.01v13.64h-19.01z"/><path d="m75.3 73.48h19.01v13.64h-19.01z"/></g><path d="m118.58 73.48h19v13.64h-19z" fill="#fff"/><g clip-path="url(#a)"><path d="m118.58 73.48h19.01v13.64h-19.01z" fill="none" stroke="#000" stroke-width=".45"/></g><g fill="none" stroke="#000" stroke-width=".45"><path d="m32.14 57.61h19.01v13.64h-19.01z"/><g clip-path="url(#a)"><path d="m10.47 41.75h19.01v13.64h-19.01z"/><path d="m10.47 25.88h19.01v13.64h-19.01z"/></g><path d="m53.81 41.75h19.01v13.64h-19.01z"/><path d="m97.09 41.75h19.01v13.64h-19.01z"/><path d="m75.3 41.75h19.01v13.64h-19.01z"/></g><path d="m53.81 25.88h19.01v13.64h-19.01z" fill="#fff"/><g clip-path="url(#a)" fill="none" stroke="#000" stroke-width=".45"><path d="m53.81 25.88h19.01v13.64h-19.01z"/><path d="m97.09 25.88h19.01v13.64h-19.01z"/></g><path d="m75.3 25.88h19v13.64h-19z" fill="#fff"/><g clip-path="url(#a)" fill="none" stroke="#000" stroke-width=".45"><path d="m75.3 25.88h19.01v13.64h-19.01z"/><path d="m118.58 25.88h19.01v13.64h-19.01z"/></g><path d="m32.14 41.75h19.01v13.64h-19.01z" fill="none" stroke="#000" stroke-width=".45"/><g clip-path="url(#a)"><path d="m32.14 25.88h19.01v13.64h-19.01z" fill="none" stroke="#000" stroke-width=".45"/></g><path d="m10.47 73.48h19.01v13.64h-19.01z" fill="#fff"/><g clip-path="url(#a)"><path d="m10.47 73.48h19.01v13.64h-19.01z" fill="none" stroke="#000" stroke-width=".45"/></g><path d="m32.14 73.48h19.01v13.64h-19.01z" fill="#fff"/><g clip-path="url(#a)"><path d="m32.14 73.48h19.01v13.64h-19.01z" fill="none" stroke="#000" stroke-width=".45"/></g><path d="m27.55 76.44-1.18-2.06-1.19 2.06z" fill="#231f20"/></svg>