<svg viewBox="0 0 147.68 113" xmlns="http://www.w3.org/2000/svg" xmlns:xlink="http://www.w3.org/1999/xlink"><clipPath id="a"><path d="m10 17.66h127.68v77.69h-127.68z"/></clipPath><path d="m96.19 17.74h41.49v61.87h-41.49z" fill="#969696"/><path d="m53.47 17.66h41.13v61.96h-41.13z" fill="#c8c8c8"/><path d="m10.01 17.66h40.7v61.96h-40.7z" fill="#e6e6e6"/><g clip-path="url(#a)"><path d="m10.22 65.61h19.01v13.64h-19.01z" fill="none" stroke="#000" stroke-width=".45"/></g><path d="m96.64 65.61h19.01v13.64h-19.01z" fill="none" stroke="#000" stroke-width=".45"/><path d="m53.56 65.61h19.01v13.64h-19.01z" fill="none" stroke="#000" stroke-width=".45"/><path d="m53.56 81.48h19.01v13.64h-19.01z" fill="#fff"/><g clip-path="url(#a)"><path d="m53.56 81.48h19.01v13.64h-19.01z" fill="none" stroke="#000" stroke-width=".45"/></g><g fill="none" stroke="#000" stroke-width=".45"><path d="m31.89 65.61h19.01v13.64h-19.01z"/><g clip-path="url(#a)"><path d="m118.31 65.61h19.01v13.64h-19.01z"/><path d="m10.22 49.74h19.01v13.64h-19.01z"/></g><path d="m96.64 49.74h19.01v13.64h-19.01z"/><path d="m75.24 49.74h19.01v13.64h-19.01z"/><path d="m75.24 65.61h19.01v13.64h-19.01z"/></g><path d="m75.24 81.48h19.01v13.64h-19.01z" fill="#fff"/><g clip-path="url(#a)" fill="none" stroke="#000" stroke-width=".45"><path d="m75.24 81.48h19.01v13.64h-19.01z"/><path d="m10.22 18.01h19.01v13.64h-19.01z"/><path d="m96.64 18.01h19.01v13.64h-19.01z"/><path d="m75.24 18.01h19.01v13.64h-19.01z"/><path d="m10.22 33.88h19.01v13.64h-19.01z"/></g><path d="m96.64 33.88h19.01v13.64h-19.01z" fill="none" stroke="#000" stroke-width=".45"/><path d="m75.24 33.88h19.01v13.64h-19.01z" fill="none" stroke="#000" stroke-width=".45"/><path d="m53.56 49.74h19.01v13.64h-19.01z" fill="none" stroke="#000" stroke-width=".45"/><g clip-path="url(#a)"><path d="m53.56 18.01h19.01v13.64h-19.01z" fill="none" stroke="#000" stroke-width=".45"/></g><path d="m53.56 33.88h19.01v13.64h-19.01z" fill="none" stroke="#000" stroke-width=".45"/><path d="m31.89 49.74h19.01v13.64h-19.01z" fill="none" stroke="#000" stroke-width=".45"/><g clip-path="url(#a)" fill="none" stroke="#000" stroke-width=".45"><path d="m118.31 49.74h19.01v13.64h-19.01z"/><path d="m31.89 18.01h19.01v13.64h-19.01z"/><path d="m118.31 18.01h19.01v13.64h-19.01z"/></g><path d="m31.89 33.88h19.01v13.64h-19.01z" fill="none" stroke="#000" stroke-width=".45"/><g clip-path="url(#a)"><path d="m118.31 33.88h19.01v13.64h-19.01z" fill="none" stroke="#000" stroke-width=".45"/></g><path d="m10.22 81.48h19v13.64h-19z" fill="#fff"/><g clip-path="url(#a)"><path d="m10.22 81.48h19.01v13.64h-19.01z" fill="none" stroke="#000" stroke-width=".45"/></g><path d="m96.64 81.48h19.01v13.64h-19.01z" fill="#fff"/><g clip-path="url(#a)"><path d="m96.64 81.48h19.01v13.64h-19.01z" fill="none" stroke="#000" stroke-width=".45"/></g><path d="m31.89 81.48h19.01v13.64h-19.01z" fill="#fff"/><g clip-path="url(#a)"><path d="m31.89 81.48h19.01v13.64h-19.01z" fill="none" stroke="#000" stroke-width=".45"/></g><path d="m118.31 81.48h19v13.64h-19z" fill="#fff"/><g clip-path="url(#a)"><path d="m118.31 81.48h19.01v13.64h-19.01z" fill="none" stroke="#000" stroke-width=".45"/></g><path d="m28.46 84.43-1.19-2.05-1.18 2.05z" fill="#231f20"/></svg>