<svg viewBox="0 0 168.65 113" xmlns="http://www.w3.org/2000/svg" xmlns:xlink="http://www.w3.org/1999/xlink"><clipPath id="a"><path d="m10 17.55h148.65v77.9h-148.65z"/></clipPath><path d="m117.95 49.36h40.7v46.09h-40.7z" fill="#969696"/><path d="m53.47 17.55h62.59v77.9h-62.59z" fill="#c8c8c8"/><path d="m10.01 17.55h40.98v46.09h-40.98z" fill="#e6e6e6"/><path d="m10.22 65.5h19.01v13.64h-19.01z" fill="#fff"/><g clip-path="url(#a)"><path d="m10.22 65.5h19.01v13.64h-19.01z" fill="none" stroke="#000" stroke-width=".45"/></g><path d="m96.64 65.5h19.01v13.64h-19.01z" fill="none" stroke="#000" stroke-width=".45"/><path d="m53.56 65.5h19.01v13.64h-19.01z" fill="none" stroke="#000" stroke-width=".45"/><g clip-path="url(#a)"><path d="m53.56 81.37h19.01v13.64h-19.01z" fill="none" stroke="#000" stroke-width=".45"/></g><path d="m31.89 65.5h19.01v13.64h-19.01z" fill="#fff"/><g fill="none" stroke="#000" stroke-width=".45"><path d="m31.89 65.5h19.01v13.64h-19.01z"/><path d="m118.31 65.5h19.01v13.64h-19.01z"/><g clip-path="url(#a)"><path d="m139.29 65.5h19.01v13.64h-19.01z"/><path d="m10.22 49.64h19.01v13.64h-19.01z"/></g><path d="m96.64 49.64h19.01v13.64h-19.01z"/><path d="m75.24 49.64h19.01v13.64h-19.01z"/><path d="m75.24 65.5h19.01v13.64h-19.01z"/><g clip-path="url(#a)"><path d="m75.24 81.37h19.01v13.64h-19.01z"/><path d="m10.22 17.9h19.01v13.64h-19.01z"/><path d="m96.64 17.9h19.01v13.64h-19.01z"/><path d="m75.24 17.9h19.01v13.64h-19.01z"/><path d="m10.22 33.77h19.01v13.64h-19.01z"/></g><path d="m96.64 33.77h19.01v13.64h-19.01z"/><path d="m75.24 33.77h19.01v13.64h-19.01z"/><path d="m53.56 49.64h19.01v13.64h-19.01z"/></g><g clip-path="url(#a)"><path d="m53.56 17.9h19.01v13.64h-19.01z" fill="none" stroke="#000" stroke-width=".45"/></g><g fill="none" stroke="#000" stroke-width=".45"><path d="m53.56 33.77h19.01v13.64h-19.01z"/><path d="m31.89 49.64h19.01v13.64h-19.01z"/><path d="m118.31 49.64h19.01v13.64h-19.01z"/><g clip-path="url(#a)"><path d="m139.29 49.64h19.01v13.64h-19.01z"/><path d="m31.89 17.9h19.01v13.64h-19.01z"/></g></g><path d="m118.31 17.9h19v13.64h-19z" fill="#fff"/><g clip-path="url(#a)"><path d="m118.31 17.9h19.01v13.64h-19.01z" fill="none" stroke="#000" stroke-width=".45"/></g><path d="m139.29 17.9h19.01v13.64h-19.01z" fill="#fff"/><g clip-path="url(#a)"><path d="m139.29 17.9h19.01v13.64h-19.01z" fill="none" stroke="#000" stroke-width=".45"/></g><path d="m31.89 33.77h19.01v13.64h-19.01z" fill="none" stroke="#000" stroke-width=".45"/><path d="m118.31 33.77h19.01v13.64h-19.01z" fill="#fff"/><path d="m118.31 33.77h19.01v13.64h-19.01z" fill="none" stroke="#000" stroke-width=".45"/><path d="m139.29 33.77h19.01v13.64h-19.01z" fill="#fff"/><g clip-path="url(#a)"><path d="m139.29 33.77h19.01v13.64h-19.01z" fill="none" stroke="#000" stroke-width=".45"/></g><path d="m10.22 81.37h19.01v13.64h-19.01z" fill="#fff"/><g clip-path="url(#a)" fill="none" stroke="#000" stroke-width=".45"><path d="m10.22 81.37h19.01v13.64h-19.01z"/><path d="m96.64 81.37h19.01v13.64h-19.01z"/></g><path d="m31.89 81.37h19.01v13.64h-19.01z" fill="#fff"/><g clip-path="url(#a)" fill="none" stroke="#000" stroke-width=".45"><path d="m31.89 81.37h19.01v13.64h-19.01z"/><path d="m118.31 81.37h19.01v13.64h-19.01z"/><path d="m139.29 81.37h19.01v13.64h-19.01z"/></g><path d="m28.46 84.33-1.19-2.06-1.18 2.06z" fill="#231f20"/></svg>