<svg viewBox="0 0 234.51 112.95" xmlns="http://www.w3.org/2000/svg" xmlns:xlink="http://www.w3.org/1999/xlink"><clipPath id="a"><path d="m9.16 9.25h214.62v93.69h-214.62z"/></clipPath><path d="m30.69 9.25h63.06v93.69h-63.06z" fill="#c8c8c8"/><path d="m160.71 9.25h63.06v93.69h-63.06z" fill="#969696"/><path d="m95.93 9.25h62.84v93.69h-62.84z" fill="#e6e6e6"/><g fill="none" stroke="#000" stroke-width=".45"><path d="m31.05 73.07h19.01v13.64h-19.01z"/><path d="m74.39 73.07h19.01v13.64h-19.01z"/><path d="m117.73 73.07h19.01v13.64h-19.01z"/><path d="m161.07 73.07h19.01v13.64h-19.01z"/><g clip-path="url(#a)"><path d="m204.41 73.07h19.01v13.64h-19.01z"/><path d="m74.39 88.94h19.01v13.64h-19.01z"/><path d="m117.73 88.94h19.01v13.64h-19.01z"/><path d="m161.07 88.94h19.01v13.64h-19.01z"/><path d="m204.41 88.94h19.01v13.64h-19.01z"/></g><path d="m52.72 73.07h19.01v13.64h-19.01z"/><path d="m31.05 57.2h19.01v13.64h-19.01z"/><path d="m96.06 57.2h19.01v13.64h-19.01z"/><path d="m139.4 57.2h19.01v13.64h-19.01z"/><path d="m182.74 57.2h19.01v13.64h-19.01z"/></g><path d="m9.38 57.2h19v13.64h-19z" fill="#fff"/><g clip-path="url(#a)"><path d="m9.38 57.2h19.01v13.64h-19.01z" fill="none" stroke="#000" stroke-width=".45"/></g><path d="m96.06 73.07h19.01v13.64h-19.01z" fill="none" stroke="#000" stroke-width=".45"/><path d="m139.4 73.07h19.01v13.64h-19.01z" fill="none" stroke="#000" stroke-width=".45"/><path d="m182.74 73.07h19.01v13.64h-19.01z" fill="none" stroke="#000" stroke-width=".45"/><path d="m9.38 73.07h19v13.64h-19z" fill="#fff"/><g clip-path="url(#a)" fill="none" stroke="#000" stroke-width=".45"><path d="m9.38 73.07h19.01v13.64h-19.01z"/><path d="m96.06 88.94h19.01v13.64h-19.01z"/><path d="m139.4 88.94h19.01v13.64h-19.01z"/><path d="m182.74 88.94h19.01v13.64h-19.01z"/></g><path d="m9.38 88.94h19v13.64h-19z" fill="#fff"/><g clip-path="url(#a)"><path d="m9.38 88.94h19.01v13.64h-19.01z" fill="none" stroke="#000" stroke-width=".45"/></g><path d="m31.05 25.47h19.01v13.64h-19.01z" fill="none" stroke="#000" stroke-width=".45"/><path d="m96.06 25.47h19.01v13.64h-19.01z" fill="none" stroke="#000" stroke-width=".45"/><path d="m139.4 25.47h19.01v13.64h-19.01z" fill="none" stroke="#000" stroke-width=".45"/><path d="m182.74 25.47h19.01v13.64h-19.01z" fill="none" stroke="#000" stroke-width=".45"/><path d="m9.38 25.47h19v13.64h-19z" fill="#fff"/><g clip-path="url(#a)"><path d="m9.38 25.47h19.01v13.64h-19.01z" fill="none" stroke="#000" stroke-width=".45"/></g><path d="m31.05 41.34h19.01v13.64h-19.01z" fill="none" stroke="#000" stroke-width=".45"/><path d="m96.06 41.34h19.01v13.64h-19.01z" fill="none" stroke="#000" stroke-width=".45"/><path d="m139.4 41.34h19.01v13.64h-19.01z" fill="none" stroke="#000" stroke-width=".45"/><path d="m182.74 41.34h19.01v13.64h-19.01z" fill="none" stroke="#000" stroke-width=".45"/><path d="m9.38 41.34h19v13.64h-19z" fill="#fff"/><g clip-path="url(#a)" fill="none" stroke="#000" stroke-width=".45"><path d="m9.38 41.34h19.01v13.64h-19.01z"/><path d="m31.05 9.61h19.01v13.64h-19.01z"/><path d="m96.06 9.61h19.01v13.64h-19.01z"/><path d="m139.4 9.61h19.01v13.64h-19.01z"/><path d="m182.74 9.61h19.01v13.64h-19.01z"/></g><path d="m9.38 9.61h19v13.64h-19z" fill="#fff"/><g clip-path="url(#a)"><path d="m9.38 9.61h19.01v13.64h-19.01z" fill="none" stroke="#000" stroke-width=".45"/></g><path d="m74.39 57.2h19.01v13.64h-19.01z" fill="none" stroke="#000" stroke-width=".45"/><path d="m117.73 57.2h19.01v13.64h-19.01z" fill="none" stroke="#000" stroke-width=".45"/><path d="m161.07 57.2h19.01v13.64h-19.01z" fill="none" stroke="#000" stroke-width=".45"/><g clip-path="url(#a)"><path d="m204.41 57.2h19.01v13.64h-19.01z" fill="none" stroke="#000" stroke-width=".45"/></g><path d="m74.39 25.47h19.01v13.64h-19.01z" fill="none" stroke="#000" stroke-width=".45"/><path d="m117.73 25.47h19.01v13.64h-19.01z" fill="none" stroke="#000" stroke-width=".45"/><path d="m161.07 25.47h19.01v13.64h-19.01z" fill="none" stroke="#000" stroke-width=".45"/><g clip-path="url(#a)"><path d="m204.41 25.47h19.01v13.64h-19.01z" fill="none" stroke="#000" stroke-width=".45"/></g><path d="m74.39 41.34h19.01v13.64h-19.01z" fill="none" stroke="#000" stroke-width=".45"/><path d="m117.73 41.34h19.01v13.64h-19.01z" fill="none" stroke="#000" stroke-width=".45"/><path d="m161.07 41.34h19.01v13.64h-19.01z" fill="none" stroke="#000" stroke-width=".45"/><g clip-path="url(#a)" fill="none" stroke="#000" stroke-width=".45"><path d="m204.41 41.34h19.01v13.64h-19.01z"/><path d="m74.39 9.61h19.01v13.64h-19.01z"/><path d="m117.73 9.61h19.01v13.64h-19.01z"/><path d="m161.07 9.61h19.01v13.64h-19.01z"/><path d="m204.41 9.61h19.01v13.64h-19.01z"/></g><path d="m52.72 57.2h19.01v13.64h-19.01z" fill="none" stroke="#000" stroke-width=".45"/><path d="m52.72 25.47h19.01v13.64h-19.01z" fill="none" stroke="#000" stroke-width=".45"/><path d="m52.72 41.34h19.01v13.64h-19.01z" fill="none" stroke="#000" stroke-width=".45"/><g clip-path="url(#a)" fill="none" stroke="#000" stroke-width=".45"><path d="m52.72 9.61h19.01v13.64h-19.01z"/><path d="m31.05 88.94h19.01v13.64h-19.01z"/><path d="m52.72 88.94h19.01v13.64h-19.01z"/></g><path d="m25.29 76.48 2.05-1.19-2.05-1.18z" fill="#231f20"/></svg>