<svg viewBox="0 0 169.91 113" xmlns="http://www.w3.org/2000/svg" xmlns:xlink="http://www.w3.org/1999/xlink"><clipPath id="a"><path d="m10 9.66h149.91v93.69h-149.91z"/></clipPath><path d="m32.19 73.48h19.01v13.64h-19.01z" fill="#fff"/><path d="m32.19 73.48h19.01v13.64h-19.01z" fill="none" stroke="#000" stroke-width=".45"/><path d="m53.5 9.66h63.06v93.69h-63.06z" fill="#c8c8c8"/><path d="m118.51 41.39h41.39v61.96h-41.39z" fill="#969696"/><path d="m10 9.66h41.56v61.96h-41.56z" fill="#e6e6e6"/><path d="m10.52 73.48h19.01v13.64h-19.01z" fill="#fff"/><g clip-path="url(#a)"><path d="m10.52 73.48h19.01v13.64h-19.01z" fill="none" stroke="#000" stroke-width=".45"/></g><g fill="none" stroke="#000" stroke-width=".45"><path d="m53.86 73.48h19.01v13.64h-19.01z"/><path d="m97.2 73.48h19.01v13.64h-19.01z"/><g clip-path="url(#a)"><path d="m140.54 73.48h19.01v13.64h-19.01z"/><path d="m53.86 89.34h19.01v13.64h-19.01z"/><path d="m97.2 89.34h19.01v13.64h-19.01z"/><path d="m140.54 89.34h19.01v13.64h-19.01z"/><path d="m10.52 57.61h19.01v13.64h-19.01z"/></g><path d="m75.53 57.61h19.01v13.64h-19.01z"/><path d="m118.87 57.61h19.01v13.64h-19.01z"/><path d="m75.53 73.48h19.01v13.64h-19.01z"/><path d="m118.87 73.48h19.01v13.64h-19.01z"/><g clip-path="url(#a)"><path d="m75.53 89.34h19.01v13.64h-19.01z"/><path d="m118.87 89.34h19.01v13.64h-19.01z"/><path d="m10.52 25.88h19.01v13.64h-19.01z"/></g><path d="m75.53 25.88h19.01v13.64h-19.01z"/></g><path d="m118.87 25.88h19.01v13.64h-19.01z" fill="#fff"/><path d="m118.87 25.88h19.01v13.64h-19.01z" fill="none" stroke="#000" stroke-width=".45"/><g clip-path="url(#a)"><path d="m10.52 41.74h19.01v13.64h-19.01z" fill="none" stroke="#000" stroke-width=".45"/></g><g fill="none" stroke="#000" stroke-width=".45"><path d="m75.53 41.74h19.01v13.64h-19.01z"/><path d="m118.87 41.74h19.01v13.64h-19.01z"/><g clip-path="url(#a)"><path d="m10.52 10.01h19.01v13.64h-19.01z"/><path d="m75.53 10.01h19.01v13.64h-19.01z"/></g></g><path d="m118.87 10.01h19.01v13.64h-19.01z" fill="#fff"/><g clip-path="url(#a)"><path d="m118.87 10.01h19.01v13.64h-19.01z" fill="none" stroke="#000" stroke-width=".45"/></g><path d="m53.86 57.61h19.01v13.64h-19.01z" fill="none" stroke="#000" stroke-width=".45"/><path d="m97.2 57.61h19.01v13.64h-19.01z" fill="none" stroke="#000" stroke-width=".45"/><g clip-path="url(#a)"><path d="m140.54 57.61h19.01v13.64h-19.01z" fill="none" stroke="#000" stroke-width=".45"/></g><path d="m53.86 25.88h19.01v13.64h-19.01z" fill="none" stroke="#000" stroke-width=".45"/><path d="m97.2 25.88h19.01v13.64h-19.01z" fill="none" stroke="#000" stroke-width=".45"/><path d="m140.54 25.88h19.01v13.64h-19.01z" fill="#fff"/><g clip-path="url(#a)"><path d="m140.54 25.88h19.01v13.64h-19.01z" fill="none" stroke="#000" stroke-width=".45"/></g><path d="m53.86 41.74h19.01v13.64h-19.01z" fill="none" stroke="#000" stroke-width=".45"/><path d="m97.2 41.74h19.01v13.64h-19.01z" fill="none" stroke="#000" stroke-width=".45"/><g clip-path="url(#a)" fill="none" stroke="#000" stroke-width=".45"><path d="m140.54 41.74h19.01v13.64h-19.01z"/><path d="m53.86 10.01h19.01v13.64h-19.01z"/><path d="m97.2 10.01h19.01v13.64h-19.01z"/></g><path d="m140.54 10.01h19.01v13.64h-19.01z" fill="#fff"/><g clip-path="url(#a)"><path d="m140.54 10.01h19.01v13.64h-19.01z" fill="none" stroke="#000" stroke-width=".45"/></g><path d="m32.19 57.61h19.01v13.64h-19.01z" fill="none" stroke="#000" stroke-width=".45"/><path d="m32.19 25.88h19.01v13.64h-19.01z" fill="none" stroke="#000" stroke-width=".45"/><path d="m32.19 41.74h19.01v13.64h-19.01z" fill="none" stroke="#000" stroke-width=".45"/><g clip-path="url(#a)"><path d="m32.19 10.01h19.01v13.64h-19.01z" fill="none" stroke="#000" stroke-width=".45"/></g><path d="m10.52 89.34h19.01v13.64h-19.01z" fill="#fff"/><g clip-path="url(#a)"><path d="m10.52 89.34h19.01v13.64h-19.01z" fill="none" stroke="#000" stroke-width=".45"/></g><path d="m32.19 89.34h19.01v13.64h-19.01z" fill="#fff"/><g clip-path="url(#a)"><path d="m32.19 89.34h19.01v13.64h-19.01z" fill="none" stroke="#000" stroke-width=".45"/></g><path d="m28.64 76.73-1.18-2.06-1.19 2.06z" fill="#231f20"/></svg>